<svg width="342" height="341" viewBox="0 0 342 341" fill="none" xmlns="http://www.w3.org/2000/svg">
<rect x="241.862" y="240.949" width="100" height="100" fill="#F2F2F2"/>
<path d="M268.722 289.925L268.206 292.582H270.417V293.589H268.018L267.362 296.949H266.292L266.948 293.589H264.581L263.94 296.949H262.878L263.503 293.589H261.456V292.582H263.698L264.229 289.925H262.065V288.933H264.401L265.042 285.527H266.128L265.487 288.933H267.87L268.526 285.527H269.573L268.917 288.933H270.979V289.925H268.722ZM264.768 292.582H267.136L267.651 289.925H265.284L264.768 292.582ZM274.3 296.949H272.972V285.527H279.339V286.707H274.3V290.886H279.034V292.066H274.3V296.949ZM287.956 296.949H280.448V295.832L283.456 292.808C284.373 291.881 284.977 291.22 285.268 290.824C285.56 290.428 285.779 290.042 285.925 289.667C286.071 289.292 286.143 288.889 286.143 288.457C286.143 287.847 285.959 287.365 285.589 287.011C285.219 286.652 284.706 286.472 284.05 286.472C283.576 286.472 283.125 286.55 282.698 286.707C282.276 286.863 281.805 287.147 281.284 287.558L280.597 286.675C281.649 285.8 282.795 285.363 284.034 285.363C285.107 285.363 285.948 285.639 286.558 286.191C287.167 286.738 287.472 287.475 287.472 288.402C287.472 289.126 287.268 289.842 286.862 290.55C286.456 291.259 285.696 292.154 284.581 293.238L282.081 295.683V295.746H287.956V296.949ZM291.722 296.949H290.393V285.527H296.761V286.707H291.722V290.886H296.456V292.066H291.722V296.949ZM305.378 296.949H297.87V295.832L300.878 292.808C301.795 291.881 302.399 291.22 302.69 290.824C302.982 290.428 303.201 290.042 303.347 289.667C303.492 289.292 303.565 288.889 303.565 288.457C303.565 287.847 303.38 287.365 303.011 287.011C302.641 286.652 302.128 286.472 301.472 286.472C300.998 286.472 300.547 286.55 300.12 286.707C299.698 286.863 299.227 287.147 298.706 287.558L298.018 286.675C299.071 285.8 300.216 285.363 301.456 285.363C302.529 285.363 303.37 285.639 303.979 286.191C304.589 286.738 304.893 287.475 304.893 288.402C304.893 289.126 304.69 289.842 304.284 290.55C303.878 291.259 303.117 292.154 302.003 293.238L299.503 295.683V295.746H305.378V296.949ZM309.143 296.949H307.815V285.527H314.183V286.707H309.143V290.886H313.878V292.066H309.143V296.949ZM322.8 296.949H315.292V295.832L318.3 292.808C319.216 291.881 319.821 291.22 320.112 290.824C320.404 290.428 320.623 290.042 320.768 289.667C320.914 289.292 320.987 288.889 320.987 288.457C320.987 287.847 320.802 287.365 320.433 287.011C320.063 286.652 319.55 286.472 318.893 286.472C318.42 286.472 317.969 286.55 317.542 286.707C317.12 286.863 316.649 287.147 316.128 287.558L315.44 286.675C316.492 285.8 317.638 285.363 318.878 285.363C319.951 285.363 320.792 285.639 321.401 286.191C322.011 286.738 322.315 287.475 322.315 288.402C322.315 289.126 322.112 289.842 321.706 290.55C321.3 291.259 320.539 292.154 319.425 293.238L316.925 295.683V295.746H322.8V296.949Z" fill="black"/>
<rect x="121.862" y="240.949" width="100" height="100" fill="#D9D9D9"/>
<path d="M143.612 289.925L143.097 292.582H145.308V293.589H142.909L142.253 296.949H141.183L141.839 293.589H139.472L138.831 296.949H137.768L138.393 293.589H136.347V292.582H138.589L139.12 289.925H136.956V288.933H139.292L139.933 285.527H141.018L140.378 288.933H142.761L143.417 285.527H144.464L143.808 288.933H145.87V289.925H143.612ZM139.659 292.582H142.026L142.542 289.925H140.175L139.659 292.582ZM156.979 291.128C156.979 293.014 156.466 294.457 155.44 295.457C154.42 296.451 152.948 296.949 151.026 296.949H147.862V285.527H151.362C153.138 285.527 154.518 286.019 155.503 287.003C156.487 287.988 156.979 289.363 156.979 291.128ZM155.573 291.175C155.573 289.686 155.198 288.563 154.448 287.808C153.703 287.053 152.594 286.675 151.12 286.675H149.19V295.8H150.808C152.391 295.8 153.581 295.412 154.378 294.636C155.175 293.855 155.573 292.701 155.573 291.175ZM166.253 290.402C166.253 294.871 164.524 297.105 161.065 297.105C160.461 297.105 159.982 297.053 159.628 296.949V295.832C160.045 295.967 160.518 296.035 161.05 296.035C162.3 296.035 163.242 295.649 163.878 294.878C164.518 294.102 164.867 292.915 164.925 291.316H164.831C164.545 291.748 164.164 292.079 163.69 292.308C163.216 292.532 162.683 292.644 162.089 292.644C161.078 292.644 160.276 292.342 159.683 291.738C159.089 291.134 158.792 290.29 158.792 289.207C158.792 288.019 159.123 287.082 159.784 286.394C160.451 285.707 161.326 285.363 162.409 285.363C163.185 285.363 163.862 285.563 164.44 285.964C165.024 286.36 165.472 286.941 165.784 287.707C166.097 288.467 166.253 289.365 166.253 290.402ZM162.409 286.472C161.664 286.472 161.089 286.712 160.683 287.191C160.276 287.67 160.073 288.337 160.073 289.191C160.073 289.941 160.261 290.532 160.636 290.964C161.011 291.391 161.581 291.605 162.347 291.605C162.821 291.605 163.255 291.509 163.651 291.316C164.052 291.123 164.367 290.86 164.597 290.527C164.826 290.194 164.94 289.845 164.94 289.48C164.94 288.933 164.834 288.428 164.62 287.964C164.406 287.501 164.107 287.136 163.722 286.871C163.341 286.605 162.904 286.472 162.409 286.472ZM177.808 291.128C177.808 293.014 177.295 294.457 176.268 295.457C175.248 296.451 173.776 296.949 171.854 296.949H168.69V285.527H172.19C173.966 285.527 175.347 286.019 176.331 287.003C177.315 287.988 177.808 289.363 177.808 291.128ZM176.401 291.175C176.401 289.686 176.026 288.563 175.276 287.808C174.531 287.053 173.422 286.675 171.948 286.675H170.018V295.8H171.636C173.219 295.8 174.409 295.412 175.206 294.636C176.003 293.855 176.401 292.701 176.401 291.175ZM187.081 290.402C187.081 294.871 185.352 297.105 181.893 297.105C181.289 297.105 180.81 297.053 180.456 296.949V295.832C180.873 295.967 181.347 296.035 181.878 296.035C183.128 296.035 184.071 295.649 184.706 294.878C185.347 294.102 185.696 292.915 185.753 291.316H185.659C185.373 291.748 184.992 292.079 184.518 292.308C184.045 292.532 183.511 292.644 182.917 292.644C181.906 292.644 181.104 292.342 180.511 291.738C179.917 291.134 179.62 290.29 179.62 289.207C179.62 288.019 179.951 287.082 180.612 286.394C181.279 285.707 182.154 285.363 183.237 285.363C184.013 285.363 184.69 285.563 185.268 285.964C185.852 286.36 186.3 286.941 186.612 287.707C186.925 288.467 187.081 289.365 187.081 290.402ZM183.237 286.472C182.492 286.472 181.917 286.712 181.511 287.191C181.104 287.67 180.901 288.337 180.901 289.191C180.901 289.941 181.089 290.532 181.464 290.964C181.839 291.391 182.409 291.605 183.175 291.605C183.649 291.605 184.084 291.509 184.479 291.316C184.88 291.123 185.196 290.86 185.425 290.527C185.654 290.194 185.768 289.845 185.768 289.48C185.768 288.933 185.662 288.428 185.448 287.964C185.235 287.501 184.935 287.136 184.55 286.871C184.17 286.605 183.732 286.472 183.237 286.472ZM198.636 291.128C198.636 293.014 198.123 294.457 197.097 295.457C196.076 296.451 194.604 296.949 192.683 296.949H189.518V285.527H193.018C194.795 285.527 196.175 286.019 197.159 287.003C198.143 287.988 198.636 289.363 198.636 291.128ZM197.229 291.175C197.229 289.686 196.854 288.563 196.104 287.808C195.36 287.053 194.25 286.675 192.776 286.675H190.847V295.8H192.464C194.047 295.8 195.237 295.412 196.034 294.636C196.831 293.855 197.229 292.701 197.229 291.175ZM207.909 290.402C207.909 294.871 206.18 297.105 202.722 297.105C202.117 297.105 201.638 297.053 201.284 296.949V295.832C201.701 295.967 202.175 296.035 202.706 296.035C203.956 296.035 204.899 295.649 205.534 294.878C206.175 294.102 206.524 292.915 206.581 291.316H206.487C206.201 291.748 205.821 292.079 205.347 292.308C204.873 292.532 204.339 292.644 203.745 292.644C202.735 292.644 201.933 292.342 201.339 291.738C200.745 291.134 200.448 290.29 200.448 289.207C200.448 288.019 200.779 287.082 201.44 286.394C202.107 285.707 202.982 285.363 204.065 285.363C204.841 285.363 205.518 285.563 206.097 285.964C206.68 286.36 207.128 286.941 207.44 287.707C207.753 288.467 207.909 289.365 207.909 290.402ZM204.065 286.472C203.321 286.472 202.745 286.712 202.339 287.191C201.933 287.67 201.729 288.337 201.729 289.191C201.729 289.941 201.917 290.532 202.292 290.964C202.667 291.391 203.237 291.605 204.003 291.605C204.477 291.605 204.912 291.509 205.308 291.316C205.709 291.123 206.024 290.86 206.253 290.527C206.482 290.194 206.597 289.845 206.597 289.48C206.597 288.933 206.49 288.428 206.276 287.964C206.063 287.501 205.763 287.136 205.378 286.871C204.998 286.605 204.56 286.472 204.065 286.472Z" fill="black"/>
<rect x="0.862213" y="240.949" width="100" height="100" fill="#4F4F4F"/>
<path d="M27.7216 289.925L27.206 292.582H29.4169V293.589H27.0185L26.3622 296.949H25.2919L25.9482 293.589H23.581L22.9403 296.949H21.8778L22.5028 293.589H20.456V292.582H22.6982L23.2294 289.925H21.0653V288.933H23.4013L24.0419 285.527H25.1278L24.4872 288.933H26.87L27.5263 285.527H28.5732L27.9169 288.933H29.9794V289.925H27.7216ZM23.7685 292.582H26.1357L26.6513 289.925H24.2841L23.7685 292.582ZM39.2294 294.324H37.5341V296.949H36.2919V294.324H30.7372V293.191L36.1591 285.464H37.5341V293.144H39.2294V294.324ZM36.2919 293.144V289.347C36.2919 288.602 36.3179 287.761 36.37 286.824H36.3075C36.0575 287.324 35.8232 287.738 35.6044 288.066L32.0341 293.144H36.2919ZM42.456 296.949H41.1278V285.527H47.495V286.707H42.456V290.886H47.1903V292.066H42.456V296.949ZM56.6513 294.324H54.956V296.949H53.7138V294.324H48.1591V293.191L53.581 285.464H54.956V293.144H56.6513V294.324ZM53.7138 293.144V289.347C53.7138 288.602 53.7398 287.761 53.7919 286.824H53.7294C53.4794 287.324 53.245 287.738 53.0263 288.066L49.456 293.144H53.7138ZM59.8778 296.949H58.5497V285.527H64.9169V286.707H59.8778V290.886H64.6122V292.066H59.8778V296.949ZM74.0732 294.324H72.3778V296.949H71.1357V294.324H65.581V293.191L71.0028 285.464H72.3778V293.144H74.0732V294.324ZM71.1357 293.144V289.347C71.1357 288.602 71.1617 287.761 71.2138 286.824H71.1513C70.9013 287.324 70.6669 287.738 70.4482 288.066L66.8778 293.144H71.1357ZM77.2997 296.949H75.9716V285.527H82.3388V286.707H77.2997V290.886H82.0341V292.066H77.2997V296.949Z" fill="white"/>
<rect x="241.862" y="120.949" width="100" height="100" fill="#EE8A0A"/>
<path d="M266.667 169.925L266.151 172.582H268.362V173.589H265.964L265.308 176.949H264.237L264.893 173.589H262.526L261.886 176.949H260.823L261.448 173.589H259.401V172.582H261.643L262.175 169.925H260.011V168.933H262.347L262.987 165.527H264.073L263.433 168.933H265.815L266.472 165.527H267.518L266.862 168.933H268.925V169.925H266.667ZM262.714 172.582H265.081L265.597 169.925H263.229L262.714 172.582ZM277.284 176.949H270.917V165.527H277.284V166.707H272.245V170.386H276.979V171.558H272.245V175.761H277.284V176.949ZM286.19 176.949H279.823V165.527H286.19V166.707H281.151V170.386H285.886V171.558H281.151V175.761H286.19V176.949ZM291.722 165.363C292.763 165.363 293.589 165.605 294.198 166.089C294.808 166.574 295.112 167.243 295.112 168.097C295.112 168.66 294.938 169.173 294.589 169.636C294.24 170.1 293.683 170.522 292.917 170.902C293.844 171.345 294.503 171.811 294.893 172.3C295.284 172.785 295.479 173.347 295.479 173.988C295.479 174.936 295.149 175.694 294.487 176.261C293.826 176.824 292.92 177.105 291.768 177.105C290.55 177.105 289.612 176.839 288.956 176.308C288.3 175.772 287.972 175.014 287.972 174.035C287.972 172.727 288.768 171.709 290.362 170.98C289.643 170.574 289.128 170.136 288.815 169.667C288.503 169.194 288.347 168.665 288.347 168.082C288.347 167.253 288.651 166.595 289.261 166.105C289.875 165.61 290.696 165.363 291.722 165.363ZM289.253 174.066C289.253 174.691 289.469 175.178 289.901 175.527C290.339 175.876 290.951 176.05 291.737 176.05C292.513 176.05 293.117 175.868 293.55 175.503C293.982 175.139 294.198 174.639 294.198 174.003C294.198 173.498 293.995 173.05 293.589 172.66C293.183 172.264 292.474 171.881 291.464 171.511C290.688 171.845 290.125 172.214 289.776 172.621C289.427 173.022 289.253 173.503 289.253 174.066ZM291.706 166.417C291.055 166.417 290.545 166.574 290.175 166.886C289.805 167.199 289.62 167.615 289.62 168.136C289.62 168.615 289.774 169.027 290.081 169.371C290.388 169.714 290.956 170.058 291.784 170.402C292.529 170.089 293.055 169.753 293.362 169.394C293.675 169.035 293.831 168.615 293.831 168.136C293.831 167.61 293.641 167.194 293.261 166.886C292.886 166.574 292.367 166.417 291.706 166.417ZM305.065 176.949L303.643 173.316H299.065L297.659 176.949H296.315L300.831 165.48H301.948L306.44 176.949H305.065ZM303.229 172.121L301.901 168.582C301.729 168.134 301.552 167.584 301.37 166.933C301.255 167.433 301.091 167.983 300.878 168.582L299.534 172.121H303.229ZM314.792 171.222C314.792 173.196 314.479 174.67 313.854 175.644C313.235 176.618 312.284 177.105 311.003 177.105C309.774 177.105 308.839 176.608 308.198 175.613C307.558 174.613 307.237 173.149 307.237 171.222C307.237 169.233 307.547 167.756 308.167 166.792C308.787 165.829 309.732 165.347 311.003 165.347C312.242 165.347 313.183 165.85 313.823 166.855C314.469 167.86 314.792 169.316 314.792 171.222ZM308.55 171.222C308.55 172.884 308.745 174.095 309.136 174.855C309.526 175.61 310.149 175.988 311.003 175.988C311.867 175.988 312.492 175.605 312.878 174.839C313.268 174.069 313.464 172.863 313.464 171.222C313.464 169.582 313.268 168.381 312.878 167.621C312.492 166.855 311.867 166.472 311.003 166.472C310.149 166.472 309.526 166.85 309.136 167.605C308.745 168.355 308.55 169.561 308.55 171.222ZM324.347 176.949L322.925 173.316H318.347L316.94 176.949H315.597L320.112 165.48H321.229L325.722 176.949H324.347ZM322.511 172.121L321.183 168.582C321.011 168.134 320.834 167.584 320.651 166.933C320.537 167.433 320.373 167.983 320.159 168.582L318.815 172.121H322.511Z" fill="white"/>
<rect x="121.862" y="120.949" width="100" height="100" fill="#FFDB58"/>
<path d="M145.909 169.925L145.393 172.582H147.604V173.589H145.206L144.55 176.949H143.479L144.136 173.589H141.768L141.128 176.949H140.065L140.69 173.589H138.643V172.582H140.886L141.417 169.925H139.253V168.933H141.589L142.229 165.527H143.315L142.675 168.933H145.058L145.714 165.527H146.761L146.104 168.933H148.167V169.925H145.909ZM141.956 172.582H144.323L144.839 169.925H142.472L141.956 172.582ZM151.487 176.949H150.159V165.527H156.526V166.707H151.487V170.886H156.222V172.066H151.487V176.949ZM159.753 176.949H158.425V165.527H164.792V166.707H159.753V170.886H164.487V172.066H159.753V176.949ZM175.808 171.128C175.808 173.014 175.295 174.457 174.268 175.457C173.248 176.451 171.776 176.949 169.854 176.949H166.69V165.527H170.19C171.966 165.527 173.347 166.019 174.331 167.003C175.315 167.988 175.808 169.363 175.808 171.128ZM174.401 171.175C174.401 169.686 174.026 168.563 173.276 167.808C172.531 167.053 171.422 166.675 169.948 166.675H168.018V175.8H169.636C171.219 175.8 172.409 175.412 173.206 174.636C174.003 173.855 174.401 172.701 174.401 171.175ZM178.362 165.527H181.589C183.104 165.527 184.201 165.753 184.878 166.207C185.555 166.66 185.893 167.376 185.893 168.355C185.893 169.032 185.703 169.592 185.323 170.035C184.948 170.472 184.399 170.756 183.675 170.886V170.964C185.409 171.261 186.276 172.173 186.276 173.699C186.276 174.72 185.93 175.516 185.237 176.089C184.55 176.662 183.586 176.949 182.347 176.949H178.362V165.527ZM179.69 170.417H181.878C182.815 170.417 183.49 170.272 183.901 169.98C184.313 169.683 184.518 169.186 184.518 168.488C184.518 167.847 184.289 167.386 183.831 167.105C183.373 166.819 182.643 166.675 181.643 166.675H179.69V170.417ZM179.69 171.542V175.816H182.073C182.995 175.816 183.688 175.639 184.151 175.285C184.62 174.925 184.854 174.365 184.854 173.605C184.854 172.897 184.615 172.376 184.136 172.042C183.662 171.709 182.938 171.542 181.964 171.542H179.69ZM191.518 169.972C192.722 169.972 193.667 170.272 194.354 170.871C195.047 171.464 195.393 172.279 195.393 173.316C195.393 174.498 195.016 175.425 194.261 176.097C193.511 176.769 192.474 177.105 191.151 177.105C189.865 177.105 188.883 176.899 188.206 176.488V175.238C188.571 175.472 189.024 175.657 189.565 175.792C190.107 175.923 190.641 175.988 191.167 175.988C192.084 175.988 192.795 175.772 193.3 175.339C193.81 174.907 194.065 174.282 194.065 173.464C194.065 171.871 193.089 171.074 191.136 171.074C190.641 171.074 189.979 171.149 189.151 171.3L188.479 170.871L188.909 165.527H194.589V166.722H190.018L189.729 170.152C190.328 170.032 190.925 169.972 191.518 169.972ZM200.886 165.363C201.927 165.363 202.753 165.605 203.362 166.089C203.972 166.574 204.276 167.243 204.276 168.097C204.276 168.66 204.102 169.173 203.753 169.636C203.404 170.1 202.847 170.522 202.081 170.902C203.008 171.345 203.667 171.811 204.058 172.3C204.448 172.785 204.643 173.347 204.643 173.988C204.643 174.936 204.313 175.694 203.651 176.261C202.99 176.824 202.084 177.105 200.933 177.105C199.714 177.105 198.776 176.839 198.12 176.308C197.464 175.772 197.136 175.014 197.136 174.035C197.136 172.727 197.933 171.709 199.526 170.98C198.808 170.574 198.292 170.136 197.979 169.667C197.667 169.194 197.511 168.665 197.511 168.082C197.511 167.253 197.815 166.595 198.425 166.105C199.039 165.61 199.86 165.363 200.886 165.363ZM198.417 174.066C198.417 174.691 198.633 175.178 199.065 175.527C199.503 175.876 200.115 176.05 200.901 176.05C201.677 176.05 202.281 175.868 202.714 175.503C203.146 175.139 203.362 174.639 203.362 174.003C203.362 173.498 203.159 173.05 202.753 172.66C202.347 172.264 201.638 171.881 200.628 171.511C199.852 171.845 199.289 172.214 198.94 172.621C198.591 173.022 198.417 173.503 198.417 174.066ZM200.87 166.417C200.219 166.417 199.709 166.574 199.339 166.886C198.969 167.199 198.784 167.615 198.784 168.136C198.784 168.615 198.938 169.027 199.245 169.371C199.552 169.714 200.12 170.058 200.948 170.402C201.693 170.089 202.219 169.753 202.526 169.394C202.839 169.035 202.995 168.615 202.995 168.136C202.995 167.61 202.805 167.194 202.425 166.886C202.05 166.574 201.531 166.417 200.87 166.417Z" fill="black"/>
<rect x="0.862213" y="120.949" width="100" height="100" fill="#56CCF2"/>
<path d="M25.8935 169.925L25.3778 172.582H27.5888V173.589H25.1903L24.5341 176.949H23.4638L24.12 173.589H21.7528L21.1122 176.949H20.0497L20.6747 173.589H18.6278V172.582H20.87L21.4013 169.925H19.2372V168.933H21.5732L22.2138 165.527H23.2997L22.6591 168.933H25.0419L25.6982 165.527H26.745L26.0888 168.933H28.1513V169.925H25.8935ZM21.9403 172.582H24.3075L24.8232 169.925H22.456L21.9403 172.582ZM32.9247 169.972C34.1278 169.972 35.0732 170.272 35.7607 170.871C36.4534 171.464 36.7997 172.279 36.7997 173.316C36.7997 174.498 36.4221 175.425 35.6669 176.097C34.9169 176.769 33.8804 177.105 32.5575 177.105C31.2711 177.105 30.2893 176.899 29.6122 176.488V175.238C29.9768 175.472 30.4299 175.657 30.9716 175.792C31.5133 175.923 32.0471 175.988 32.5732 175.988C33.4898 175.988 34.2008 175.772 34.706 175.339C35.2164 174.907 35.4716 174.282 35.4716 173.464C35.4716 171.871 34.495 171.074 32.5419 171.074C32.0471 171.074 31.3857 171.149 30.5575 171.3L29.8857 170.871L30.3153 165.527H35.995V166.722H31.4247L31.1357 170.152C31.7346 170.032 32.331 169.972 32.9247 169.972ZM38.6435 172.066C38.6435 169.821 39.0784 168.144 39.9482 167.035C40.8232 165.92 42.1148 165.363 43.8232 165.363C44.4117 165.363 44.8752 165.412 45.2138 165.511V166.628C44.8127 166.498 44.3544 166.433 43.8388 166.433C42.6148 166.433 41.6799 166.816 41.0341 167.582C40.3883 168.342 40.0341 169.54 39.9716 171.175H40.0653C40.6383 170.279 41.5445 169.832 42.7841 169.832C43.8101 169.832 44.6174 170.141 45.206 170.761C45.7997 171.381 46.0966 172.222 46.0966 173.285C46.0966 174.472 45.7711 175.407 45.12 176.089C44.4742 176.766 43.5992 177.105 42.495 177.105C41.3127 177.105 40.3752 176.662 39.6825 175.777C38.9898 174.886 38.6435 173.649 38.6435 172.066ZM42.4794 176.003C43.219 176.003 43.7919 175.772 44.1982 175.308C44.6096 174.839 44.8153 174.165 44.8153 173.285C44.8153 172.529 44.6252 171.936 44.245 171.503C43.8648 171.071 43.2971 170.855 42.5419 170.855C42.0732 170.855 41.6435 170.951 41.2528 171.144C40.8622 171.337 40.5497 171.602 40.3153 171.941C40.0862 172.279 39.9716 172.631 39.9716 172.996C39.9716 173.532 40.0758 174.032 40.2841 174.496C40.4924 174.959 40.7867 175.326 41.1669 175.597C41.5523 175.868 41.9898 176.003 42.4794 176.003ZM53.3466 166.55C52.0914 166.55 51.0992 166.97 50.37 167.808C49.6461 168.641 49.2841 169.785 49.2841 171.238C49.2841 172.733 49.633 173.889 50.331 174.707C51.0341 175.519 52.0341 175.925 53.331 175.925C54.1278 175.925 55.0367 175.782 56.0575 175.496V176.66C55.2659 176.957 54.2893 177.105 53.1278 177.105C51.4455 177.105 50.1461 176.595 49.2294 175.574C48.3179 174.553 47.8622 173.102 47.8622 171.222C47.8622 170.045 48.081 169.014 48.5185 168.128C48.9612 167.243 49.5966 166.561 50.4247 166.082C51.258 165.602 52.2372 165.363 53.3622 165.363C54.5601 165.363 55.607 165.582 56.5028 166.019L55.9403 167.16C55.0758 166.753 54.2112 166.55 53.3466 166.55ZM63.4403 166.55C62.1851 166.55 61.1929 166.97 60.4638 167.808C59.7398 168.641 59.3778 169.785 59.3778 171.238C59.3778 172.733 59.7268 173.889 60.4247 174.707C61.1278 175.519 62.1278 175.925 63.4247 175.925C64.2216 175.925 65.1304 175.782 66.1513 175.496V176.66C65.3596 176.957 64.383 177.105 63.2216 177.105C61.5393 177.105 60.2398 176.595 59.3232 175.574C58.4117 174.553 57.956 173.102 57.956 171.222C57.956 170.045 58.1747 169.014 58.6122 168.128C59.0549 167.243 59.6903 166.561 60.5185 166.082C61.3518 165.602 62.331 165.363 63.456 165.363C64.6539 165.363 65.7008 165.582 66.5966 166.019L66.0341 167.16C65.1695 166.753 64.3049 166.55 63.4403 166.55ZM69.9716 176.949H68.6435V165.527H75.0107V166.707H69.9716V170.886H74.706V172.066H69.9716V176.949ZM83.6278 176.949H76.12V175.832L79.1278 172.808C80.0445 171.881 80.6487 171.22 80.9403 170.824C81.232 170.428 81.4508 170.042 81.5966 169.667C81.7424 169.292 81.8153 168.889 81.8153 168.457C81.8153 167.847 81.6304 167.365 81.2607 167.011C80.8909 166.652 80.3778 166.472 79.7216 166.472C79.2476 166.472 78.7971 166.55 78.37 166.707C77.9482 166.863 77.4768 167.147 76.956 167.558L76.2685 166.675C77.3205 165.8 78.4664 165.363 79.706 165.363C80.7789 165.363 81.62 165.639 82.2294 166.191C82.8388 166.738 83.1435 167.475 83.1435 168.402C83.1435 169.126 82.9403 169.842 82.5341 170.55C82.1278 171.259 81.3674 172.154 80.2528 173.238L77.7528 175.683V175.746H83.6278V176.949Z" fill="white"/>
<rect x="241.862" y="0.94873" width="100" height="100" fill="#DA5C26"/>
<path d="M264.675 49.9253L264.159 52.5815H266.37V53.5894H263.972L263.315 56.9487H262.245L262.901 53.5894H260.534L259.893 56.9487H258.831L259.456 53.5894H257.409V52.5815H259.651L260.183 49.9253H258.018V48.9331H260.354L260.995 45.5269H262.081L261.44 48.9331H263.823L264.479 45.5269H265.526L264.87 48.9331H266.933V49.9253H264.675ZM260.722 52.5815H263.089L263.604 49.9253H261.237L260.722 52.5815ZM278.042 51.1284C278.042 53.0138 277.529 54.4565 276.503 55.4565C275.482 56.4513 274.011 56.9487 272.089 56.9487H268.925V45.5269H272.425C274.201 45.5269 275.581 46.019 276.565 47.0034C277.55 47.9878 278.042 49.3628 278.042 51.1284ZM276.636 51.1753C276.636 49.6857 276.261 48.5633 275.511 47.8081C274.766 47.0529 273.656 46.6753 272.183 46.6753H270.253V55.8003H271.87C273.453 55.8003 274.643 55.4123 275.44 54.6362C276.237 53.855 276.636 52.7013 276.636 51.1753ZM287.776 56.9487L286.354 53.3159H281.776L280.37 56.9487H279.026L283.542 45.48H284.659L289.151 56.9487H287.776ZM285.94 52.1206L284.612 48.5815C284.44 48.1336 284.263 47.5841 284.081 46.9331C283.966 47.4331 283.802 47.9826 283.589 48.5815L282.245 52.1206H285.94ZM293.503 49.9722C294.706 49.9722 295.651 50.2716 296.339 50.8706C297.031 51.4644 297.378 52.2795 297.378 53.3159C297.378 54.4982 297 55.4253 296.245 56.0972C295.495 56.769 294.459 57.105 293.136 57.105C291.849 57.105 290.867 56.8993 290.19 56.4878V55.2378C290.555 55.4722 291.008 55.6571 291.55 55.7925C292.091 55.9227 292.625 55.9878 293.151 55.9878C294.068 55.9878 294.779 55.7716 295.284 55.3394C295.795 54.9071 296.05 54.2821 296.05 53.4644C296.05 51.8706 295.073 51.0737 293.12 51.0737C292.625 51.0737 291.964 51.1493 291.136 51.3003L290.464 50.8706L290.893 45.5269H296.573V46.7222H292.003L291.714 50.1519C292.313 50.0321 292.909 49.9722 293.503 49.9722ZM304.768 46.5503C303.513 46.5503 302.521 46.9696 301.792 47.8081C301.068 48.6414 300.706 49.7847 300.706 51.2378C300.706 52.7326 301.055 53.8888 301.753 54.7065C302.456 55.519 303.456 55.9253 304.753 55.9253C305.55 55.9253 306.459 55.7821 307.479 55.4956V56.6597C306.688 56.9565 305.711 57.105 304.55 57.105C302.867 57.105 301.568 56.5946 300.651 55.5737C299.74 54.5529 299.284 53.1024 299.284 51.2222C299.284 50.0451 299.503 49.0138 299.94 48.1284C300.383 47.243 301.018 46.5607 301.847 46.0815C302.68 45.6024 303.659 45.3628 304.784 45.3628C305.982 45.3628 307.029 45.5815 307.925 46.019L307.362 47.1597C306.498 46.7534 305.633 46.5503 304.768 46.5503ZM316.69 56.9487H309.183V55.8315L312.19 52.8081C313.107 51.881 313.711 51.2196 314.003 50.8237C314.295 50.4279 314.513 50.0425 314.659 49.6675C314.805 49.2925 314.878 48.8888 314.878 48.4565C314.878 47.8472 314.693 47.3654 314.323 47.0112C313.953 46.6519 313.44 46.4722 312.784 46.4722C312.31 46.4722 311.86 46.5503 311.433 46.7065C311.011 46.8628 310.539 47.1466 310.018 47.5581L309.331 46.6753C310.383 45.8003 311.529 45.3628 312.768 45.3628C313.841 45.3628 314.683 45.6388 315.292 46.1909C315.901 46.7378 316.206 47.4748 316.206 48.4019C316.206 49.1258 316.003 49.842 315.597 50.5503C315.19 51.2586 314.43 52.1545 313.315 53.2378L310.815 55.6831V55.7456H316.69V56.9487ZM318.472 52.0659C318.472 49.8211 318.906 48.144 319.776 47.0347C320.651 45.9201 321.943 45.3628 323.651 45.3628C324.24 45.3628 324.703 45.4123 325.042 45.5112V46.6284C324.641 46.4982 324.183 46.4331 323.667 46.4331C322.443 46.4331 321.508 46.8159 320.862 47.5815C320.216 48.342 319.862 49.5399 319.8 51.1753H319.893C320.466 50.2795 321.373 49.8315 322.612 49.8315C323.638 49.8315 324.446 50.1414 325.034 50.7612C325.628 51.381 325.925 52.2222 325.925 53.2847C325.925 54.4722 325.599 55.4071 324.948 56.0894C324.302 56.7664 323.427 57.105 322.323 57.105C321.141 57.105 320.203 56.6623 319.511 55.7769C318.818 54.8862 318.472 53.6493 318.472 52.0659ZM322.308 56.0034C323.047 56.0034 323.62 55.7716 324.026 55.3081C324.438 54.8394 324.643 54.1649 324.643 53.2847C324.643 52.5295 324.453 51.9357 324.073 51.5034C323.693 51.0711 323.125 50.855 322.37 50.855C321.901 50.855 321.472 50.9513 321.081 51.144C320.69 51.3368 320.378 51.6024 320.143 51.9409C319.914 52.2795 319.8 52.631 319.8 52.9956C319.8 53.5321 319.904 54.0321 320.112 54.4956C320.321 54.9591 320.615 55.3263 320.995 55.5972C321.38 55.868 321.818 56.0034 322.308 56.0034Z" fill="white"/>
<rect x="121.862" y="0.94873" width="100" height="100" fill="#333333"/>
<path d="M146.886 49.9253L146.37 52.5815H148.581V53.5894H146.183L145.526 56.9487H144.456L145.112 53.5894H142.745L142.104 56.9487H141.042L141.667 53.5894H139.62V52.5815H141.862L142.393 49.9253H140.229V48.9331H142.565L143.206 45.5269H144.292L143.651 48.9331H146.034L146.69 45.5269H147.737L147.081 48.9331H149.143V49.9253H146.886ZM142.933 52.5815H145.3L145.815 49.9253H143.448L142.933 52.5815ZM157.425 48.2144C157.425 48.9435 157.219 49.5399 156.808 50.0034C156.401 50.467 155.823 50.7769 155.073 50.9331V50.9956C155.99 51.1102 156.67 51.4019 157.112 51.8706C157.555 52.3394 157.776 52.9539 157.776 53.7144C157.776 54.8029 157.399 55.6414 156.643 56.23C155.888 56.8133 154.815 57.105 153.425 57.105C152.821 57.105 152.266 57.0581 151.761 56.9644C151.261 56.8758 150.774 56.717 150.3 56.4878V55.2534C150.795 55.4982 151.321 55.6857 151.878 55.8159C152.44 55.9409 152.972 56.0034 153.472 56.0034C155.446 56.0034 156.433 55.23 156.433 53.6831C156.433 52.2977 155.344 51.605 153.167 51.605H152.042V50.4878H153.183C154.073 50.4878 154.779 50.2925 155.3 49.9019C155.821 49.506 156.081 48.9591 156.081 48.2612C156.081 47.7039 155.888 47.2664 155.503 46.9487C155.123 46.631 154.604 46.4722 153.948 46.4722C153.448 46.4722 152.977 46.5399 152.534 46.6753C152.091 46.8107 151.586 47.0607 151.018 47.4253L150.362 46.5503C150.831 46.1805 151.37 45.8914 151.979 45.6831C152.594 45.4696 153.24 45.3628 153.917 45.3628C155.026 45.3628 155.888 45.618 156.503 46.1284C157.117 46.6336 157.425 47.3289 157.425 48.2144ZM166.581 48.2144C166.581 48.9435 166.375 49.5399 165.964 50.0034C165.558 50.467 164.979 50.7769 164.229 50.9331V50.9956C165.146 51.1102 165.826 51.4019 166.268 51.8706C166.711 52.3394 166.933 52.9539 166.933 53.7144C166.933 54.8029 166.555 55.6414 165.8 56.23C165.045 56.8133 163.972 57.105 162.581 57.105C161.977 57.105 161.422 57.0581 160.917 56.9644C160.417 56.8758 159.93 56.717 159.456 56.4878V55.2534C159.951 55.4982 160.477 55.6857 161.034 55.8159C161.597 55.9409 162.128 56.0034 162.628 56.0034C164.602 56.0034 165.589 55.23 165.589 53.6831C165.589 52.2977 164.5 51.605 162.323 51.605H161.198V50.4878H162.339C163.229 50.4878 163.935 50.2925 164.456 49.9019C164.977 49.506 165.237 48.9591 165.237 48.2612C165.237 47.7039 165.045 47.2664 164.659 46.9487C164.279 46.631 163.761 46.4722 163.104 46.4722C162.604 46.4722 162.133 46.5399 161.69 46.6753C161.248 46.8107 160.742 47.0607 160.175 47.4253L159.518 46.5503C159.987 46.1805 160.526 45.8914 161.136 45.6831C161.75 45.4696 162.396 45.3628 163.073 45.3628C164.183 45.3628 165.045 45.618 165.659 46.1284C166.274 46.6336 166.581 47.3289 166.581 48.2144ZM175.737 48.2144C175.737 48.9435 175.531 49.5399 175.12 50.0034C174.714 50.467 174.136 50.7769 173.386 50.9331V50.9956C174.302 51.1102 174.982 51.4019 175.425 51.8706C175.867 52.3394 176.089 52.9539 176.089 53.7144C176.089 54.8029 175.711 55.6414 174.956 56.23C174.201 56.8133 173.128 57.105 171.737 57.105C171.133 57.105 170.578 57.0581 170.073 56.9644C169.573 56.8758 169.086 56.717 168.612 56.4878V55.2534C169.107 55.4982 169.633 55.6857 170.19 55.8159C170.753 55.9409 171.284 56.0034 171.784 56.0034C173.758 56.0034 174.745 55.23 174.745 53.6831C174.745 52.2977 173.656 51.605 171.479 51.605H170.354V50.4878H171.495C172.386 50.4878 173.091 50.2925 173.612 49.9019C174.133 49.506 174.393 48.9591 174.393 48.2612C174.393 47.7039 174.201 47.2664 173.815 46.9487C173.435 46.631 172.917 46.4722 172.261 46.4722C171.761 46.4722 171.289 46.5399 170.847 46.6753C170.404 46.8107 169.899 47.0607 169.331 47.4253L168.675 46.5503C169.143 46.1805 169.683 45.8914 170.292 45.6831C170.906 45.4696 171.552 45.3628 172.229 45.3628C173.339 45.3628 174.201 45.618 174.815 46.1284C175.43 46.6336 175.737 47.3289 175.737 48.2144ZM184.893 48.2144C184.893 48.9435 184.688 49.5399 184.276 50.0034C183.87 50.467 183.292 50.7769 182.542 50.9331V50.9956C183.459 51.1102 184.138 51.4019 184.581 51.8706C185.024 52.3394 185.245 52.9539 185.245 53.7144C185.245 54.8029 184.867 55.6414 184.112 56.23C183.357 56.8133 182.284 57.105 180.893 57.105C180.289 57.105 179.735 57.0581 179.229 56.9644C178.729 56.8758 178.242 56.717 177.768 56.4878V55.2534C178.263 55.4982 178.789 55.6857 179.347 55.8159C179.909 55.9409 180.44 56.0034 180.94 56.0034C182.914 56.0034 183.901 55.23 183.901 53.6831C183.901 52.2977 182.813 51.605 180.636 51.605H179.511V50.4878H180.651C181.542 50.4878 182.248 50.2925 182.768 49.9019C183.289 49.506 183.55 48.9591 183.55 48.2612C183.55 47.7039 183.357 47.2664 182.972 46.9487C182.591 46.631 182.073 46.4722 181.417 46.4722C180.917 46.4722 180.446 46.5399 180.003 46.6753C179.56 46.8107 179.055 47.0607 178.487 47.4253L177.831 46.5503C178.3 46.1805 178.839 45.8914 179.448 45.6831C180.063 45.4696 180.709 45.3628 181.386 45.3628C182.495 45.3628 183.357 45.618 183.972 46.1284C184.586 46.6336 184.893 47.3289 184.893 48.2144ZM194.05 48.2144C194.05 48.9435 193.844 49.5399 193.433 50.0034C193.026 50.467 192.448 50.7769 191.698 50.9331V50.9956C192.615 51.1102 193.295 51.4019 193.737 51.8706C194.18 52.3394 194.401 52.9539 194.401 53.7144C194.401 54.8029 194.024 55.6414 193.268 56.23C192.513 56.8133 191.44 57.105 190.05 57.105C189.446 57.105 188.891 57.0581 188.386 56.9644C187.886 56.8758 187.399 56.717 186.925 56.4878V55.2534C187.42 55.4982 187.946 55.6857 188.503 55.8159C189.065 55.9409 189.597 56.0034 190.097 56.0034C192.071 56.0034 193.058 55.23 193.058 53.6831C193.058 52.2977 191.969 51.605 189.792 51.605H188.667V50.4878H189.808C190.698 50.4878 191.404 50.2925 191.925 49.9019C192.446 49.506 192.706 48.9591 192.706 48.2612C192.706 47.7039 192.513 47.2664 192.128 46.9487C191.748 46.631 191.229 46.4722 190.573 46.4722C190.073 46.4722 189.602 46.5399 189.159 46.6753C188.716 46.8107 188.211 47.0607 187.643 47.4253L186.987 46.5503C187.456 46.1805 187.995 45.8914 188.604 45.6831C189.219 45.4696 189.865 45.3628 190.542 45.3628C191.651 45.3628 192.513 45.618 193.128 46.1284C193.742 46.6336 194.05 47.3289 194.05 48.2144ZM203.206 48.2144C203.206 48.9435 203 49.5399 202.589 50.0034C202.183 50.467 201.604 50.7769 200.854 50.9331V50.9956C201.771 51.1102 202.451 51.4019 202.893 51.8706C203.336 52.3394 203.558 52.9539 203.558 53.7144C203.558 54.8029 203.18 55.6414 202.425 56.23C201.67 56.8133 200.597 57.105 199.206 57.105C198.602 57.105 198.047 57.0581 197.542 56.9644C197.042 56.8758 196.555 56.717 196.081 56.4878V55.2534C196.576 55.4982 197.102 55.6857 197.659 55.8159C198.222 55.9409 198.753 56.0034 199.253 56.0034C201.227 56.0034 202.214 55.23 202.214 53.6831C202.214 52.2977 201.125 51.605 198.948 51.605H197.823V50.4878H198.964C199.854 50.4878 200.56 50.2925 201.081 49.9019C201.602 49.506 201.862 48.9591 201.862 48.2612C201.862 47.7039 201.67 47.2664 201.284 46.9487C200.904 46.631 200.386 46.4722 199.729 46.4722C199.229 46.4722 198.758 46.5399 198.315 46.6753C197.873 46.8107 197.367 47.0607 196.8 47.4253L196.143 46.5503C196.612 46.1805 197.151 45.8914 197.761 45.6831C198.375 45.4696 199.021 45.3628 199.698 45.3628C200.808 45.3628 201.67 45.618 202.284 46.1284C202.899 46.6336 203.206 47.3289 203.206 48.2144Z" fill="white"/>
<rect x="0.862213" y="0.94873" width="100" height="100" fill="#077294"/>
<path d="M25.8857 49.9253L25.37 52.5815H27.581V53.5894H25.1825L24.5263 56.9487H23.456L24.1122 53.5894H21.745L21.1044 56.9487H20.0419L20.6669 53.5894H18.62V52.5815H20.8622L21.3935 49.9253H19.2294V48.9331H21.5653L22.206 45.5269H23.2919L22.6513 48.9331H25.0341L25.6903 45.5269H26.7372L26.081 48.9331H28.1435V49.9253H25.8857ZM21.9325 52.5815H24.2997L24.8153 49.9253H22.4482L21.9325 52.5815ZM36.9169 51.2222C36.9169 53.1961 36.6044 54.6701 35.9794 55.644C35.3596 56.618 34.4091 57.105 33.1278 57.105C31.8987 57.105 30.9638 56.6076 30.3232 55.6128C29.6825 54.6128 29.3622 53.1493 29.3622 51.2222C29.3622 49.2326 29.6721 47.756 30.2919 46.7925C30.9117 45.8289 31.857 45.3472 33.1278 45.3472C34.3674 45.3472 35.3075 45.8498 35.9482 46.855C36.594 47.8602 36.9169 49.3159 36.9169 51.2222ZM30.6747 51.2222C30.6747 52.8836 30.87 54.0946 31.2607 54.855C31.6513 55.6102 32.2737 55.9878 33.1278 55.9878C33.9924 55.9878 34.6174 55.605 35.0028 54.8394C35.3935 54.0685 35.5888 52.8628 35.5888 51.2222C35.5888 49.5815 35.3935 48.381 35.0028 47.6206C34.6174 46.855 33.9924 46.4722 33.1278 46.4722C32.2737 46.4722 31.6513 46.8498 31.2607 47.605C30.87 48.355 30.6747 49.5607 30.6747 51.2222ZM39.9482 56.9487L44.6825 46.7222H38.456V45.5269H46.0575V46.5659L41.3857 56.9487H39.9482ZM49.1044 56.9487L53.8388 46.7222H47.6122V45.5269H55.2138V46.5659L50.5419 56.9487H49.1044ZM64.3232 56.9487H56.8153V55.8315L59.8232 52.8081C60.7398 51.881 61.344 51.2196 61.6357 50.8237C61.9273 50.4279 62.1461 50.0425 62.2919 49.6675C62.4377 49.2925 62.5107 48.8888 62.5107 48.4565C62.5107 47.8472 62.3258 47.3654 61.956 47.0112C61.5862 46.6519 61.0732 46.4722 60.4169 46.4722C59.9429 46.4722 59.4924 46.5503 59.0653 46.7065C58.6435 46.8628 58.1721 47.1466 57.6513 47.5581L56.9638 46.6753C58.0159 45.8003 59.1617 45.3628 60.4013 45.3628C61.4742 45.3628 62.3153 45.6388 62.9247 46.1909C63.5341 46.7378 63.8388 47.4748 63.8388 48.4019C63.8388 49.1258 63.6357 49.842 63.2294 50.5503C62.8232 51.2586 62.0627 52.1545 60.9482 53.2378L58.4482 55.6831V55.7456H64.3232V56.9487ZM73.4794 50.4019C73.4794 54.8706 71.7502 57.105 68.2919 57.105C67.6877 57.105 67.2086 57.0529 66.8544 56.9487V55.8315C67.2711 55.967 67.745 56.0347 68.2763 56.0347C69.5263 56.0347 70.469 55.6493 71.1044 54.8784C71.745 54.1024 72.094 52.9149 72.1513 51.3159H72.0575C71.7711 51.7482 71.3909 52.0789 70.9169 52.3081C70.4429 52.5321 69.9091 52.644 69.3153 52.644C68.3049 52.644 67.5028 52.342 66.9091 51.7378C66.3153 51.1336 66.0185 50.2899 66.0185 49.2065C66.0185 48.019 66.3492 47.0815 67.0107 46.394C67.6773 45.7065 68.5523 45.3628 69.6357 45.3628C70.4117 45.3628 71.0888 45.5633 71.6669 45.9644C72.2502 46.3602 72.6982 46.9409 73.0107 47.7065C73.3232 48.467 73.4794 49.3654 73.4794 50.4019ZM69.6357 46.4722C68.8909 46.4722 68.3153 46.7118 67.9091 47.1909C67.5028 47.6701 67.2997 48.3368 67.2997 49.1909C67.2997 49.9409 67.4872 50.5321 67.8622 50.9644C68.2372 51.3914 68.8075 51.605 69.5732 51.605C70.0471 51.605 70.482 51.5086 70.8778 51.3159C71.2789 51.1232 71.594 50.8602 71.8232 50.5269C72.0523 50.1935 72.1669 49.8446 72.1669 49.48C72.1669 48.9331 72.0601 48.4279 71.8466 47.9644C71.633 47.5008 71.3336 47.1362 70.9482 46.8706C70.5679 46.605 70.1304 46.4722 69.6357 46.4722ZM83.1747 54.3237H81.4794V56.9487H80.2372V54.3237H74.6825V53.1909L80.1044 45.4644H81.4794V53.144H83.1747V54.3237ZM80.2372 53.144V49.3472C80.2372 48.6024 80.2633 47.7612 80.3153 46.8237H80.2528C80.0028 47.3237 79.7685 47.7378 79.5497 48.0659L75.9794 53.144H80.2372Z" fill="white"/>
</svg>
