<svg width="688" height="690" viewBox="0 0 688 690" fill="none" xmlns="http://www.w3.org/2000/svg">
<rect x="486.354" y="486.922" width="201.533" height="202.539" fill="#F2F2F2" stroke="black" stroke-width="0.226316"/>
<path d="M556.028 587.348L555.327 590.955H558.33V592.323H555.073L554.182 596.885H552.728L553.62 592.323H550.405L549.535 596.885H548.092L548.941 592.323H546.162V590.955H549.206L549.928 587.348H546.989V586H550.161L551.031 581.375H552.506L551.636 586H554.871L555.762 581.375H557.184L556.293 586H559.094V587.348H556.028ZM550.66 590.955H553.874L554.574 587.348H551.36L550.66 590.955ZM563.602 596.885H561.799V581.375H570.445V582.977H563.602V588.653H570.031V590.254H563.602V596.885ZM582.146 596.885H571.951V595.368L576.035 591.262C577.28 590.003 578.101 589.105 578.497 588.568C578.893 588.03 579.19 587.507 579.388 586.998C579.586 586.488 579.685 585.94 579.685 585.353C579.685 584.526 579.434 583.872 578.932 583.391C578.429 582.903 577.733 582.659 576.842 582.659C576.198 582.659 575.586 582.765 575.006 582.977C574.434 583.189 573.793 583.575 573.086 584.133L572.153 582.934C573.581 581.746 575.137 581.152 576.82 581.152C578.277 581.152 579.42 581.527 580.247 582.277C581.075 583.019 581.488 584.02 581.488 585.279C581.488 586.262 581.212 587.234 580.661 588.196C580.109 589.158 579.077 590.375 577.563 591.846L574.168 595.166V595.251H582.146V596.885ZM587.259 596.885H585.456V581.375H594.102V582.977H587.259V588.653H593.688V590.254H587.259V596.885ZM605.803 596.885H595.608V595.368L599.693 591.262C600.937 590.003 601.758 589.105 602.154 588.568C602.55 588.03 602.847 587.507 603.045 586.998C603.243 586.488 603.342 585.94 603.342 585.353C603.342 584.526 603.091 583.872 602.589 583.391C602.087 582.903 601.39 582.659 600.499 582.659C599.855 582.659 599.243 582.765 598.664 582.977C598.091 583.189 597.451 583.575 596.743 584.133L595.81 582.934C597.238 581.746 598.794 581.152 600.478 581.152C601.935 581.152 603.077 581.527 603.904 582.277C604.732 583.019 605.145 584.02 605.145 585.279C605.145 586.262 604.87 587.234 604.318 588.196C603.766 589.158 602.734 590.375 601.22 591.846L597.825 595.166V595.251H605.803V596.885ZM610.916 596.885H609.113V581.375H617.759V582.977H610.916V588.653H617.345V590.254H610.916V596.885ZM629.46 596.885H619.265V595.368L623.35 591.262C624.594 590.003 625.415 589.105 625.811 588.568C626.207 588.03 626.504 587.507 626.702 586.998C626.9 586.488 626.999 585.94 626.999 585.353C626.999 584.526 626.748 583.872 626.246 583.391C625.744 582.903 625.047 582.659 624.156 582.659C623.512 582.659 622.901 582.765 622.321 582.977C621.748 583.189 621.108 583.575 620.401 584.133L619.467 582.934C620.896 581.746 622.452 581.152 624.135 581.152C625.592 581.152 626.734 581.527 627.561 582.277C628.389 583.019 628.803 584.02 628.803 585.279C628.803 586.262 628.527 587.234 627.975 588.196C627.423 589.158 626.391 590.375 624.877 591.846L621.483 595.166V595.251H629.46V596.885Z" fill="black"/>
<rect x="244.129" y="486.809" width="201.76" height="202.765" fill="#D9D9D9"/>
<path d="M306.978 587.348L306.278 590.955H309.28V592.323H306.023L305.132 596.885H303.679L304.57 592.323H301.356L300.486 596.885H299.043L299.892 592.323H297.112V590.955H300.157L300.878 587.348H297.94V586H301.112L301.981 581.375H303.456L302.586 586H305.822L306.713 581.375H308.134L307.243 586H310.044V587.348H306.978ZM301.61 590.955H304.825L305.525 587.348H302.31L301.61 590.955ZM325.129 588.981C325.129 591.542 324.433 593.501 323.039 594.859C321.653 596.209 319.655 596.885 317.046 596.885H312.749V581.375H317.502C319.913 581.375 321.788 582.043 323.124 583.38C324.461 584.717 325.129 586.584 325.129 588.981ZM323.22 589.045C323.22 587.022 322.711 585.498 321.692 584.473C320.681 583.447 319.174 582.934 317.173 582.934H314.553V595.325H316.749C318.899 595.325 320.515 594.798 321.597 593.745C322.679 592.684 323.22 591.117 323.22 589.045ZM337.722 587.995C337.722 594.063 335.374 597.097 330.678 597.097C329.857 597.097 329.207 597.026 328.726 596.885V595.368C329.291 595.552 329.935 595.644 330.656 595.644C332.354 595.644 333.634 595.12 334.497 594.073C335.367 593.02 335.84 591.407 335.918 589.236H335.791C335.402 589.823 334.886 590.272 334.242 590.583C333.599 590.887 332.874 591.039 332.067 591.039C330.695 591.039 329.606 590.629 328.8 589.809C327.994 588.988 327.591 587.843 327.591 586.372C327.591 584.759 328.04 583.486 328.938 582.553C329.843 581.619 331.031 581.152 332.502 581.152C333.556 581.152 334.475 581.425 335.261 581.969C336.053 582.507 336.661 583.295 337.085 584.335C337.51 585.367 337.722 586.587 337.722 587.995ZM332.502 582.659C331.491 582.659 330.709 582.984 330.158 583.635C329.606 584.285 329.33 585.191 329.33 586.35C329.33 587.369 329.585 588.172 330.094 588.759C330.603 589.339 331.378 589.628 332.417 589.628C333.061 589.628 333.652 589.498 334.189 589.236C334.734 588.974 335.162 588.617 335.473 588.165C335.784 587.712 335.939 587.238 335.939 586.743C335.939 586 335.794 585.314 335.505 584.685C335.215 584.055 334.808 583.56 334.285 583.2C333.768 582.839 333.174 582.659 332.502 582.659ZM353.412 588.981C353.412 591.542 352.715 593.501 351.322 594.859C349.936 596.209 347.938 596.885 345.328 596.885H341.032V581.375H345.784C348.196 581.375 350.07 582.043 351.407 583.38C352.743 584.717 353.412 586.584 353.412 588.981ZM351.502 589.045C351.502 587.022 350.993 585.498 349.975 584.473C348.963 583.447 347.457 582.934 345.455 582.934H342.835V595.325H345.031C347.181 595.325 348.797 594.798 349.879 593.745C350.961 592.684 351.502 591.117 351.502 589.045ZM366.004 587.995C366.004 594.063 363.656 597.097 358.96 597.097C358.14 597.097 357.489 597.026 357.008 596.885V595.368C357.574 595.552 358.217 595.644 358.939 595.644C360.636 595.644 361.916 595.12 362.779 594.073C363.649 593.02 364.123 591.407 364.201 589.236H364.073C363.684 589.823 363.168 590.272 362.525 590.583C361.881 590.887 361.156 591.039 360.35 591.039C358.978 591.039 357.889 590.629 357.082 589.809C356.276 588.988 355.873 587.843 355.873 586.372C355.873 584.759 356.322 583.486 357.22 582.553C358.126 581.619 359.314 581.152 360.785 581.152C361.839 581.152 362.758 581.425 363.543 581.969C364.335 582.507 364.943 583.295 365.368 584.335C365.792 585.367 366.004 586.587 366.004 587.995ZM360.785 582.659C359.773 582.659 358.992 582.984 358.44 583.635C357.889 584.285 357.613 585.191 357.613 586.35C357.613 587.369 357.867 588.172 358.377 588.759C358.886 589.339 359.66 589.628 360.7 589.628C361.343 589.628 361.934 589.498 362.472 589.236C363.016 588.974 363.444 588.617 363.755 588.165C364.066 587.712 364.222 587.238 364.222 586.743C364.222 586 364.077 585.314 363.787 584.685C363.497 584.055 363.09 583.56 362.567 583.2C362.051 582.839 361.457 582.659 360.785 582.659ZM381.694 588.981C381.694 591.542 380.998 593.501 379.604 594.859C378.218 596.209 376.22 596.885 373.611 596.885H369.314V581.375H374.067C376.478 581.375 378.353 582.043 379.689 583.38C381.026 584.717 381.694 586.584 381.694 588.981ZM379.785 589.045C379.785 587.022 379.276 585.498 378.257 584.473C377.246 583.447 375.739 582.934 373.738 582.934H371.118V595.325H373.314C375.464 595.325 377.08 594.798 378.162 593.745C379.244 592.684 379.785 591.117 379.785 589.045ZM394.287 587.995C394.287 594.063 391.939 597.097 387.243 597.097C386.422 597.097 385.772 597.026 385.291 596.885V595.368C385.856 595.552 386.5 595.644 387.221 595.644C388.919 595.644 390.199 595.12 391.062 594.073C391.932 593.02 392.405 591.407 392.483 589.236H392.356C391.967 589.823 391.451 590.272 390.807 590.583C390.163 590.887 389.439 591.039 388.632 591.039C387.26 591.039 386.171 590.629 385.365 589.809C384.559 588.988 384.155 587.843 384.155 586.372C384.155 584.759 384.605 583.486 385.503 582.553C386.408 581.619 387.596 581.152 389.067 581.152C390.121 581.152 391.04 581.425 391.825 581.969C392.618 582.507 393.226 583.295 393.65 584.335C394.074 585.367 394.287 586.587 394.287 587.995ZM389.067 582.659C388.056 582.659 387.274 582.984 386.723 583.635C386.171 584.285 385.895 585.191 385.895 586.35C385.895 587.369 386.15 588.172 386.659 588.759C387.168 589.339 387.943 589.628 388.982 589.628C389.626 589.628 390.217 589.498 390.754 589.236C391.299 588.974 391.726 588.617 392.038 588.165C392.349 587.712 392.504 587.238 392.504 586.743C392.504 586 392.359 585.314 392.069 584.685C391.78 584.055 391.373 583.56 390.849 583.2C390.333 582.839 389.739 582.659 389.067 582.659Z" fill="black"/>
<rect y="486.809" width="201.76" height="202.763" fill="#4F4F4F"/>
<path d="M69.787 587.348L69.0868 590.955H72.0891V592.323H68.8322L67.9411 596.885H66.4877L67.3788 592.323H64.1644L63.2945 596.885H61.8518L62.7005 592.323H59.921V590.955H62.9657L63.6871 587.348H60.7485V586H63.9204L64.7904 581.375H66.2649L65.395 586H68.6307L69.5218 581.375H70.9433L70.0522 586H72.8529V587.348H69.787ZM64.419 590.955H67.6334L68.3336 587.348H65.1192L64.419 590.955ZM85.4134 593.32H83.1114V596.885H81.4246V593.32H73.8819V591.782L81.2443 581.29H83.1114V591.718H85.4134V593.32ZM81.4246 591.718V586.563C81.4246 585.551 81.46 584.409 81.5307 583.136H81.4458C81.1063 583.815 80.7881 584.377 80.491 584.823L75.6429 591.718H81.4246ZM89.7948 596.885H87.9913V581.375H96.6373V582.977H89.7948V588.653H96.2236V590.254H89.7948V596.885ZM109.071 593.32H106.769V596.885H105.082V593.32H97.539V591.782L104.901 581.29H106.769V591.718H109.071V593.32ZM105.082 591.718V586.563C105.082 585.551 105.117 584.409 105.188 583.136H105.103C104.763 583.815 104.445 584.377 104.148 584.823L99.3001 591.718H105.082ZM113.452 596.885H111.648V581.375H120.294V582.977H113.452V588.653H119.881V590.254H113.452V596.885ZM132.728 593.32H130.426V596.885H128.739V593.32H121.196V591.782L128.559 581.29H130.426V591.718H132.728V593.32ZM128.739 591.718V586.563C128.739 585.551 128.774 584.409 128.845 583.136H128.76C128.421 583.815 128.102 584.377 127.805 584.823L122.957 591.718H128.739ZM137.109 596.885H135.306V581.375H143.952V582.977H137.109V588.653H143.538V590.254H137.109V596.885Z" fill="white"/>
<rect x="486.24" y="243.494" width="201.76" height="202.763" fill="#EE8A0A"/>
<path d="M553.238 344.035L552.537 347.642H555.54V349.011H552.283L551.392 353.572H549.938L550.829 349.011H547.615L546.745 353.572H545.302L546.151 349.011H543.372V347.642H546.416L547.138 344.035H544.199V342.688H547.371L548.241 338.063H549.715L548.846 342.688H552.081L552.972 338.063H554.394L553.503 342.688H556.303V344.035H553.238ZM547.87 347.642H551.084L551.784 344.035H548.57L547.87 347.642ZM567.655 353.572H559.009V338.063H567.655V339.664H560.812V344.661H567.241V346.252H560.812V351.96H567.655V353.572ZM579.748 353.572H571.102V338.063H579.748V339.664H572.906V344.661H579.335V346.252H572.906V351.96H579.748V353.572ZM587.259 337.84C588.674 337.84 589.795 338.169 590.622 338.826C591.45 339.484 591.863 340.393 591.863 341.553C591.863 342.317 591.626 343.013 591.153 343.643C590.679 344.272 589.922 344.845 588.882 345.361C590.141 345.962 591.036 346.595 591.566 347.26C592.097 347.918 592.362 348.682 592.362 349.552C592.362 350.839 591.913 351.868 591.015 352.639C590.116 353.403 588.886 353.784 587.323 353.784C585.668 353.784 584.395 353.424 583.504 352.702C582.613 351.974 582.167 350.945 582.167 349.615C582.167 347.84 583.249 346.457 585.413 345.467C584.437 344.916 583.737 344.322 583.313 343.685C582.889 343.041 582.676 342.324 582.676 341.532C582.676 340.407 583.09 339.512 583.918 338.848C584.752 338.176 585.866 337.84 587.259 337.84ZM583.907 349.658C583.907 350.506 584.2 351.168 584.787 351.642C585.382 352.115 586.213 352.352 587.28 352.352C588.334 352.352 589.155 352.105 589.742 351.61C590.329 351.115 590.622 350.436 590.622 349.573C590.622 348.887 590.346 348.279 589.795 347.748C589.243 347.211 588.281 346.691 586.909 346.189C585.855 346.641 585.092 347.143 584.618 347.695C584.144 348.24 583.907 348.894 583.907 349.658ZM587.238 339.272C586.354 339.272 585.661 339.484 585.159 339.908C584.657 340.333 584.406 340.899 584.406 341.606C584.406 342.256 584.614 342.815 585.031 343.282C585.449 343.749 586.22 344.215 587.344 344.682C588.355 344.258 589.07 343.802 589.487 343.314C589.911 342.826 590.124 342.256 590.124 341.606C590.124 340.891 589.865 340.326 589.349 339.908C588.84 339.484 588.136 339.272 587.238 339.272ZM605.379 353.572L603.448 348.639H597.231L595.322 353.572H593.497L599.629 337.999H601.146L607.246 353.572H605.379ZM602.886 347.016L601.082 342.21C600.849 341.602 600.608 340.856 600.361 339.972C600.205 340.651 599.982 341.397 599.693 342.21L597.868 347.016H602.886ZM618.586 345.796C618.586 348.477 618.162 350.478 617.313 351.801C616.472 353.123 615.181 353.784 613.441 353.784C611.772 353.784 610.503 353.109 609.633 351.758C608.763 350.4 608.328 348.413 608.328 345.796C608.328 343.095 608.749 341.09 609.59 339.781C610.432 338.473 611.716 337.819 613.441 337.819C615.124 337.819 616.401 338.501 617.271 339.866C618.148 341.231 618.586 343.208 618.586 345.796ZM610.11 345.796C610.11 348.052 610.375 349.697 610.906 350.729C611.436 351.755 612.281 352.267 613.441 352.267C614.615 352.267 615.464 351.748 615.987 350.708C616.518 349.661 616.783 348.024 616.783 345.796C616.783 343.568 616.518 341.938 615.987 340.906C615.464 339.866 614.615 339.346 613.441 339.346C612.281 339.346 611.436 339.859 610.906 340.884C610.375 341.903 610.11 343.54 610.11 345.796ZM631.561 353.572L629.63 348.639H623.413L621.504 353.572H619.679L625.811 337.999H627.328L633.428 353.572H631.561ZM629.068 347.016L627.264 342.21C627.031 341.602 626.79 340.856 626.543 339.972C626.387 340.651 626.164 341.397 625.874 342.21L624.05 347.016H629.068Z" fill="white"/>
<rect x="244.129" y="243.494" width="201.76" height="202.763" fill="#FFDB58"/>
<path d="M309.767 344.035L309.067 347.642H312.069V349.011H308.812L307.921 353.572H306.468L307.359 349.011H304.145L303.275 353.572H301.832L302.681 349.011H299.901V347.642H302.946L303.667 344.035H300.729V342.688H303.901L304.77 338.063H306.245L305.375 342.688H308.611L309.502 338.063H310.923L310.032 342.688H312.833V344.035H309.767ZM304.399 347.642H307.614L308.314 344.035H305.099L304.399 347.642ZM317.342 353.572H315.538V338.063H324.184V339.664H317.342V345.34H323.77V346.942H317.342V353.572ZM328.565 353.572H326.762V338.063H335.408V339.664H328.565V345.34H334.994V346.942H328.565V353.572ZM350.366 345.669C350.366 348.229 349.669 350.188 348.276 351.546C346.89 352.897 344.892 353.572 342.282 353.572H337.986V338.063H342.739C345.15 338.063 347.024 338.731 348.361 340.068C349.698 341.404 350.366 343.271 350.366 345.669ZM348.457 345.733C348.457 343.71 347.947 342.186 346.929 341.16C345.918 340.135 344.411 339.622 342.41 339.622H339.789V352.013H341.985C344.135 352.013 345.751 351.486 346.833 350.432C347.916 349.371 348.457 347.805 348.457 345.733ZM353.835 338.063H358.216C360.275 338.063 361.763 338.37 362.683 338.985C363.602 339.601 364.062 340.573 364.062 341.903C364.062 342.822 363.804 343.583 363.287 344.184C362.778 344.778 362.032 345.163 361.049 345.34V345.446C363.404 345.849 364.582 347.087 364.582 349.159C364.582 350.545 364.111 351.627 363.171 352.405C362.237 353.183 360.929 353.572 359.246 353.572H353.835V338.063ZM355.639 344.703H358.609C359.882 344.703 360.798 344.505 361.357 344.109C361.915 343.706 362.195 343.031 362.195 342.083C362.195 341.213 361.884 340.587 361.261 340.205C360.639 339.816 359.649 339.622 358.291 339.622H355.639V344.703ZM355.639 346.231V352.034H358.874C360.126 352.034 361.067 351.794 361.696 351.313C362.333 350.825 362.651 350.064 362.651 349.032C362.651 348.07 362.326 347.363 361.675 346.91C361.031 346.457 360.048 346.231 358.726 346.231H355.639ZM371.7 344.099C373.334 344.099 374.617 344.505 375.551 345.319C376.492 346.125 376.962 347.232 376.962 348.639C376.962 350.245 376.449 351.504 375.424 352.416C374.405 353.328 372.998 353.784 371.201 353.784C369.454 353.784 368.121 353.505 367.202 352.946V351.249C367.697 351.567 368.312 351.818 369.048 352.002C369.783 352.179 370.508 352.267 371.223 352.267C372.467 352.267 373.433 351.974 374.119 351.387C374.812 350.8 375.158 349.951 375.158 348.841C375.158 346.677 373.832 345.595 371.18 345.595C370.508 345.595 369.61 345.697 368.486 345.902L367.573 345.319L368.157 338.063H375.869V339.686H369.663L369.271 344.343C370.084 344.18 370.894 344.099 371.7 344.099ZM384.42 337.84C385.834 337.84 386.955 338.169 387.783 338.826C388.61 339.484 389.024 340.393 389.024 341.553C389.024 342.317 388.787 343.013 388.313 343.643C387.839 344.272 387.082 344.845 386.043 345.361C387.302 345.962 388.196 346.595 388.727 347.26C389.257 347.918 389.522 348.682 389.522 349.552C389.522 350.839 389.073 351.868 388.175 352.639C387.277 353.403 386.046 353.784 384.483 353.784C382.828 353.784 381.555 353.424 380.664 352.702C379.773 351.974 379.328 350.945 379.328 349.615C379.328 347.84 380.41 346.457 382.574 345.467C381.598 344.916 380.898 344.322 380.473 343.685C380.049 343.041 379.837 342.324 379.837 341.532C379.837 340.407 380.25 339.512 381.078 338.848C381.913 338.176 383.026 337.84 384.42 337.84ZM381.067 349.658C381.067 350.506 381.361 351.168 381.948 351.642C382.542 352.115 383.373 352.352 384.441 352.352C385.495 352.352 386.315 352.105 386.902 351.61C387.489 351.115 387.783 350.436 387.783 349.573C387.783 348.887 387.507 348.279 386.955 347.748C386.403 347.211 385.442 346.691 384.07 346.189C383.016 346.641 382.252 347.143 381.778 347.695C381.304 348.24 381.067 348.894 381.067 349.658ZM384.398 339.272C383.514 339.272 382.821 339.484 382.319 339.908C381.817 340.333 381.566 340.899 381.566 341.606C381.566 342.256 381.775 342.815 382.192 343.282C382.609 343.749 383.38 344.215 384.505 344.682C385.516 344.258 386.23 343.802 386.647 343.314C387.072 342.826 387.284 342.256 387.284 341.606C387.284 340.891 387.026 340.326 386.51 339.908C386 339.484 385.297 339.272 384.398 339.272Z" fill="black"/>
<rect y="243.494" width="201.76" height="202.764" fill="#56CCF2"/>
<path d="M67.3046 344.035L66.6044 347.642H69.6066V349.011H66.3498L65.4587 353.572H64.0053L64.8964 349.011H61.682L60.8121 353.572H59.3693L60.218 349.011H57.4386V347.642H60.4832L61.2046 344.035H58.2661V342.688H61.438L62.3079 338.063H63.7825L62.9126 342.688H66.1482L67.0393 338.063H68.4609L67.5698 342.688H70.3704V344.035H67.3046ZM61.9366 347.642H65.151L65.8512 344.035H62.6368L61.9366 347.642ZM76.8523 344.099C78.486 344.099 79.7696 344.505 80.7032 345.319C81.6438 346.125 82.1141 347.232 82.1141 348.639C82.1141 350.245 81.6014 351.504 80.5759 352.416C79.5575 353.328 78.1501 353.784 76.3537 353.784C74.6068 353.784 73.2737 353.505 72.3542 352.946V351.249C72.8493 351.567 73.4646 351.818 74.2001 352.002C74.9357 352.179 75.6606 352.267 76.3749 352.267C77.6196 352.267 78.585 351.974 79.271 351.387C79.9641 350.8 80.3107 349.951 80.3107 348.841C80.3107 346.677 78.9846 345.595 76.3325 345.595C75.6606 345.595 74.7624 345.697 73.6379 345.902L72.7255 345.319L73.309 338.063H81.0215V339.686H74.8154L74.4229 344.343C75.2362 344.18 76.046 344.099 76.8523 344.099ZM84.6178 346.942C84.6178 343.894 85.2083 341.616 86.3894 340.11C87.5776 338.596 89.3315 337.84 91.6513 337.84C92.4504 337.84 93.0799 337.907 93.5396 338.041V339.558C92.995 339.382 92.3726 339.293 91.6725 339.293C90.0105 339.293 88.741 339.813 87.864 340.853C86.987 341.885 86.5061 343.512 86.4212 345.733H86.5485C87.3265 344.516 88.5571 343.908 90.2403 343.908C91.6336 343.908 92.7298 344.329 93.529 345.17C94.3352 346.012 94.7383 347.154 94.7383 348.597C94.7383 350.209 94.2963 351.479 93.4123 352.405C92.5353 353.325 91.3471 353.784 89.8478 353.784C88.2424 353.784 86.9693 353.183 86.0287 351.981C85.0881 350.772 84.6178 349.092 84.6178 346.942ZM89.8266 352.289C90.8309 352.289 91.6088 351.974 92.1605 351.344C92.7192 350.708 92.9985 349.792 92.9985 348.597C92.9985 347.571 92.7404 346.765 92.2241 346.178C91.7078 345.591 90.9369 345.298 89.9114 345.298C89.2749 345.298 88.6915 345.428 88.161 345.69C87.6306 345.952 87.2063 346.312 86.888 346.772C86.5768 347.232 86.4212 347.709 86.4212 348.204C86.4212 348.933 86.5627 349.612 86.8456 350.241C87.1285 350.871 87.5281 351.369 88.0443 351.737C88.5677 352.105 89.1618 352.289 89.8266 352.289ZM104.583 339.452C102.879 339.452 101.531 340.022 100.541 341.16C99.5582 342.292 99.0667 343.844 99.0667 345.817C99.0667 347.847 99.5405 349.417 100.488 350.528C101.443 351.631 102.801 352.183 104.562 352.183C105.644 352.183 106.878 351.988 108.264 351.599V353.18C107.189 353.583 105.863 353.784 104.286 353.784C102.002 353.784 100.237 353.091 98.9924 351.705C97.7547 350.319 97.1359 348.349 97.1359 345.796C97.1359 344.198 97.4329 342.797 98.027 341.595C98.6282 340.393 99.491 339.466 100.616 338.816C101.747 338.165 103.077 337.84 104.604 337.84C106.231 337.84 107.653 338.137 108.869 338.731L108.105 340.28C106.931 339.728 105.757 339.452 104.583 339.452ZM118.289 339.452C116.585 339.452 115.238 340.022 114.248 341.16C113.264 342.292 112.773 343.844 112.773 345.817C112.773 347.847 113.247 349.417 114.194 350.528C115.149 351.631 116.507 352.183 118.268 352.183C119.35 352.183 120.584 351.988 121.971 351.599V353.18C120.896 353.583 119.569 353.784 117.992 353.784C115.708 353.784 113.943 353.091 112.699 351.705C111.461 350.319 110.842 348.349 110.842 345.796C110.842 344.198 111.139 342.797 111.733 341.595C112.334 340.393 113.197 339.466 114.322 338.816C115.453 338.165 116.783 337.84 118.311 337.84C119.937 337.84 121.359 338.137 122.575 338.731L121.811 340.28C120.637 339.728 119.463 339.452 118.289 339.452ZM127.158 353.572H125.355V338.063H134.001V339.664H127.158V345.34H133.587V346.942H127.158V353.572ZM145.702 353.572H135.507V352.055L139.591 347.95C140.836 346.691 141.657 345.793 142.053 345.255C142.449 344.718 142.746 344.194 142.944 343.685C143.142 343.176 143.241 342.628 143.241 342.041C143.241 341.213 142.99 340.559 142.488 340.078C141.985 339.59 141.289 339.346 140.398 339.346C139.754 339.346 139.142 339.452 138.562 339.664C137.99 339.877 137.349 340.262 136.642 340.821L135.709 339.622C137.137 338.434 138.693 337.84 140.376 337.84C141.833 337.84 142.976 338.215 143.803 338.964C144.631 339.707 145.044 340.708 145.044 341.966C145.044 342.95 144.768 343.922 144.217 344.884C143.665 345.846 142.633 347.062 141.119 348.533L137.724 351.854V351.939H145.702V353.572Z" fill="white"/>
<rect x="486.24" y="0.178711" width="201.76" height="202.762" fill="#DA5C26"/>
<path d="M550.203 100.719L549.502 104.326H552.505V105.694H549.248L548.357 110.256H546.903L547.794 105.694H544.58L543.71 110.256H542.267L543.116 105.694H540.337V104.326H543.381L544.103 100.719H541.164V99.3715H544.336L545.206 94.7461H546.68L545.811 99.3715H549.046L549.937 94.7461H551.359L550.468 99.3715H553.268V100.719H550.203ZM544.835 104.326H548.049L548.749 100.719H545.535L544.835 104.326ZM568.354 102.352C568.354 104.913 567.657 106.872 566.264 108.23C564.878 109.58 562.88 110.256 560.27 110.256H555.974V94.7461H560.726C563.138 94.7461 565.012 95.4145 566.349 96.7511C567.685 98.0878 568.354 99.9549 568.354 102.352ZM566.444 102.416C566.444 100.393 565.935 98.8693 564.917 97.8438C563.905 96.8183 562.399 96.3056 560.397 96.3056H557.777V108.696H559.973C562.123 108.696 563.739 108.17 564.821 107.116C565.903 106.055 566.444 104.488 566.444 102.416ZM581.572 110.256L579.641 105.323H573.425L571.515 110.256H569.69L575.822 94.6825H577.339L583.439 110.256H581.572ZM579.079 103.7L577.276 98.8941C577.042 98.2858 576.802 97.5397 576.554 96.6557C576.399 97.3346 576.176 98.0807 575.886 98.8941L574.061 103.7H579.079ZM589.348 100.782C590.982 100.782 592.266 101.189 593.199 102.002C594.14 102.809 594.61 103.915 594.61 105.323C594.61 106.928 594.097 108.187 593.072 109.1C592.053 110.012 590.646 110.468 588.85 110.468C587.103 110.468 585.77 110.189 584.85 109.63V107.933C585.345 108.251 585.961 108.502 586.696 108.686C587.432 108.863 588.156 108.951 588.871 108.951C590.116 108.951 591.081 108.657 591.767 108.07C592.46 107.483 592.807 106.635 592.807 105.524C592.807 103.36 591.481 102.278 588.828 102.278C588.156 102.278 587.258 102.381 586.134 102.586L585.221 102.002L585.805 94.7461H593.517V96.3692H587.311L586.919 101.026C587.732 100.864 588.542 100.782 589.348 100.782ZM604.646 96.1358C602.941 96.1358 601.594 96.7052 600.604 97.8438C599.621 98.9754 599.129 100.528 599.129 102.501C599.129 104.531 599.603 106.101 600.551 107.211C601.506 108.314 602.864 108.866 604.625 108.866C605.707 108.866 606.941 108.672 608.327 108.283V109.863C607.252 110.266 605.926 110.468 604.349 110.468C602.064 110.468 600.3 109.775 599.055 108.389C597.817 107.003 597.199 105.033 597.199 102.48C597.199 100.881 597.496 99.4811 598.09 98.2788C598.691 97.0765 599.554 96.15 600.678 95.4993C601.81 94.8487 603.139 94.5233 604.667 94.5233C606.294 94.5233 607.715 94.8204 608.932 95.4145L608.168 96.9633C606.994 96.4117 605.82 96.1358 604.646 96.1358ZM620.834 110.256H610.64V108.739L614.724 104.633C615.969 103.374 616.789 102.476 617.185 101.939C617.581 101.401 617.878 100.878 618.076 100.369C618.274 99.8595 618.373 99.3113 618.373 98.7243C618.373 97.8969 618.122 97.2427 617.62 96.7617C617.118 96.2738 616.421 96.0298 615.53 96.0298C614.887 96.0298 614.275 96.1358 613.695 96.348C613.122 96.5602 612.482 96.9456 611.775 97.5043L610.841 96.3056C612.27 95.1174 613.826 94.5233 615.509 94.5233C616.966 94.5233 618.108 94.8982 618.936 95.6478C619.763 96.3904 620.177 97.3912 620.177 98.6501C620.177 99.6331 619.901 100.606 619.349 101.567C618.798 102.529 617.765 103.746 616.252 105.217L612.857 108.537V108.622H620.834V110.256ZM623.253 103.625C623.253 100.577 623.844 98.3 625.025 96.7936C626.213 95.2801 627.967 94.5233 630.287 94.5233C631.086 94.5233 631.715 94.5905 632.175 94.7249V96.2419C631.63 96.0651 631.008 95.9767 630.308 95.9767C628.646 95.9767 627.376 96.4965 626.499 97.5362C625.622 98.5687 625.142 100.195 625.057 102.416H625.184C625.962 101.2 627.193 100.591 628.876 100.591C630.269 100.591 631.365 101.012 632.164 101.854C632.971 102.695 633.374 103.838 633.374 105.28C633.374 106.893 632.932 108.162 632.048 109.089C631.171 110.008 629.983 110.468 628.483 110.468C626.878 110.468 625.605 109.867 624.664 108.665C623.724 107.455 623.253 105.776 623.253 103.625ZM628.462 108.972C629.466 108.972 630.244 108.657 630.796 108.028C631.355 107.392 631.634 106.476 631.634 105.28C631.634 104.255 631.376 103.449 630.86 102.862C630.343 102.275 629.572 101.981 628.547 101.981C627.91 101.981 627.327 102.112 626.796 102.374C626.266 102.635 625.842 102.996 625.523 103.456C625.212 103.915 625.057 104.393 625.057 104.888C625.057 105.616 625.198 106.295 625.481 106.925C625.764 107.554 626.163 108.053 626.68 108.421C627.203 108.788 627.797 108.972 628.462 108.972Z" fill="white"/>
<rect x="244.129" y="0.178711" width="201.76" height="202.762" fill="#333333"/>
<path d="M311.093 100.719L310.393 104.326H313.395V105.694H310.138L309.247 110.256H307.794L308.685 105.694H305.471L304.601 110.256H303.158L304.007 105.694H301.227V104.326H304.272L304.993 100.719H302.055V99.3715H305.227L306.097 94.7461H307.571L306.701 99.3715H309.937L310.828 94.7461H312.25L311.358 99.3715H314.159V100.719H311.093ZM305.725 104.326H308.94L309.64 100.719H306.425L305.725 104.326ZM325.404 98.3955C325.404 99.3856 325.125 100.195 324.566 100.825C324.014 101.454 323.229 101.875 322.211 102.087V102.172C323.456 102.328 324.379 102.724 324.98 103.36C325.581 103.997 325.882 104.831 325.882 105.864C325.882 107.342 325.369 108.481 324.343 109.28C323.318 110.072 321.861 110.468 319.973 110.468C319.152 110.468 318.399 110.404 317.713 110.277C317.034 110.157 316.373 109.941 315.729 109.63V107.954C316.401 108.286 317.115 108.541 317.872 108.718C318.636 108.887 319.357 108.972 320.036 108.972C322.717 108.972 324.057 107.922 324.057 105.821C324.057 103.94 322.579 103 319.622 103H318.095V101.483H319.644C320.853 101.483 321.811 101.217 322.519 100.687C323.226 100.149 323.579 99.4068 323.579 98.4591C323.579 97.7024 323.318 97.1083 322.794 96.6769C322.278 96.2455 321.574 96.0298 320.683 96.0298C320.004 96.0298 319.364 96.1217 318.763 96.3056C318.162 96.4895 317.476 96.8289 316.705 97.324L315.814 96.1358C316.451 95.6337 317.183 95.2412 318.01 94.9583C318.845 94.6683 319.722 94.5233 320.641 94.5233C322.147 94.5233 323.318 94.8699 324.152 95.563C324.987 96.249 325.404 97.1932 325.404 98.3955ZM337.837 98.3955C337.837 99.3856 337.558 100.195 336.999 100.825C336.448 101.454 335.663 101.875 334.644 102.087V102.172C335.889 102.328 336.812 102.724 337.413 103.36C338.014 103.997 338.315 104.831 338.315 105.864C338.315 107.342 337.802 108.481 336.777 109.28C335.751 110.072 334.294 110.468 332.406 110.468C331.585 110.468 330.832 110.404 330.146 110.277C329.467 110.157 328.806 109.941 328.162 109.63V107.954C328.834 108.286 329.549 108.541 330.305 108.718C331.069 108.887 331.791 108.972 332.469 108.972C335.15 108.972 336.49 107.922 336.49 105.821C336.49 103.94 335.012 103 332.056 103H330.528V101.483H332.077C333.286 101.483 334.245 101.217 334.952 100.687C335.659 100.149 336.013 99.4068 336.013 98.4591C336.013 97.7024 335.751 97.1083 335.228 96.6769C334.711 96.2455 334.008 96.0298 333.117 96.0298C332.438 96.0298 331.798 96.1217 331.196 96.3056C330.595 96.4895 329.909 96.8289 329.138 97.324L328.247 96.1358C328.884 95.6337 329.616 95.2412 330.443 94.9583C331.278 94.6683 332.155 94.5233 333.074 94.5233C334.581 94.5233 335.751 94.8699 336.586 95.563C337.42 96.249 337.837 97.1932 337.837 98.3955ZM350.271 98.3955C350.271 99.3856 349.991 100.195 349.433 100.825C348.881 101.454 348.096 101.875 347.078 102.087V102.172C348.322 102.328 349.245 102.724 349.846 103.36C350.447 103.997 350.748 104.831 350.748 105.864C350.748 107.342 350.235 108.481 349.21 109.28C348.184 110.072 346.727 110.468 344.839 110.468C344.019 110.468 343.265 110.404 342.579 110.277C341.901 110.157 341.239 109.941 340.596 109.63V107.954C341.268 108.286 341.982 108.541 342.739 108.718C343.502 108.887 344.224 108.972 344.903 108.972C347.583 108.972 348.923 107.922 348.923 105.821C348.923 103.94 347.445 103 344.489 103H342.961V101.483H344.51C345.72 101.483 346.678 101.217 347.385 100.687C348.092 100.149 348.446 99.4068 348.446 98.4591C348.446 97.7024 348.184 97.1083 347.661 96.6769C347.145 96.2455 346.441 96.0298 345.55 96.0298C344.871 96.0298 344.231 96.1217 343.63 96.3056C343.029 96.4895 342.343 96.8289 341.572 97.324L340.681 96.1358C341.317 95.6337 342.049 95.2412 342.877 94.9583C343.711 94.6683 344.588 94.5233 345.507 94.5233C347.014 94.5233 348.184 94.8699 349.019 95.563C349.853 96.249 350.271 97.1932 350.271 98.3955ZM362.704 98.3955C362.704 99.3856 362.425 100.195 361.866 100.825C361.314 101.454 360.529 101.875 359.511 102.087V102.172C360.755 102.328 361.678 102.724 362.28 103.36C362.881 103.997 363.181 104.831 363.181 105.864C363.181 107.342 362.669 108.481 361.643 109.28C360.618 110.072 359.161 110.468 357.272 110.468C356.452 110.468 355.699 110.404 355.013 110.277C354.334 110.157 353.673 109.941 353.029 109.63V107.954C353.701 108.286 354.415 108.541 355.172 108.718C355.936 108.887 356.657 108.972 357.336 108.972C360.016 108.972 361.357 107.922 361.357 105.821C361.357 103.94 359.879 103 356.922 103H355.395V101.483H356.943C358.153 101.483 359.111 101.217 359.818 100.687C360.526 100.149 360.879 99.4068 360.879 98.4591C360.879 97.7024 360.618 97.1083 360.094 96.6769C359.578 96.2455 358.874 96.0298 357.983 96.0298C357.304 96.0298 356.664 96.1217 356.063 96.3056C355.462 96.4895 354.776 96.8289 354.005 97.324L353.114 96.1358C353.75 95.6337 354.482 95.2412 355.31 94.9583C356.144 94.6683 357.021 94.5233 357.941 94.5233C359.447 94.5233 360.618 94.8699 361.452 95.563C362.287 96.249 362.704 97.1932 362.704 98.3955ZM375.137 98.3955C375.137 99.3856 374.858 100.195 374.299 100.825C373.747 101.454 372.962 101.875 371.944 102.087V102.172C373.189 102.328 374.112 102.724 374.713 103.36C375.314 103.997 375.615 104.831 375.615 105.864C375.615 107.342 375.102 108.481 374.076 109.28C373.051 110.072 371.594 110.468 369.706 110.468C368.885 110.468 368.132 110.404 367.446 110.277C366.767 110.157 366.106 109.941 365.462 109.63V107.954C366.134 108.286 366.848 108.541 367.605 108.718C368.369 108.887 369.09 108.972 369.769 108.972C372.45 108.972 373.79 107.922 373.79 105.821C373.79 103.94 372.312 103 369.356 103H367.828V101.483H369.377C370.586 101.483 371.544 101.217 372.252 100.687C372.959 100.149 373.313 99.4068 373.313 98.4591C373.313 97.7024 373.051 97.1083 372.527 96.6769C372.011 96.2455 371.307 96.0298 370.416 96.0298C369.737 96.0298 369.097 96.1217 368.496 96.3056C367.895 96.4895 367.209 96.8289 366.438 97.324L365.547 96.1358C366.184 95.6337 366.916 95.2412 367.743 94.9583C368.578 94.6683 369.455 94.5233 370.374 94.5233C371.88 94.5233 373.051 94.8699 373.885 95.563C374.72 96.249 375.137 97.1932 375.137 98.3955ZM387.57 98.3955C387.57 99.3856 387.291 100.195 386.732 100.825C386.181 101.454 385.396 101.875 384.377 102.087V102.172C385.622 102.328 386.545 102.724 387.146 103.36C387.747 103.997 388.048 104.831 388.048 105.864C388.048 107.342 387.535 108.481 386.51 109.28C385.484 110.072 384.027 110.468 382.139 110.468C381.318 110.468 380.565 110.404 379.879 110.277C379.2 110.157 378.539 109.941 377.895 109.63V107.954C378.567 108.286 379.282 108.541 380.038 108.718C380.802 108.887 381.524 108.972 382.203 108.972C384.883 108.972 386.223 107.922 386.223 105.821C386.223 103.94 384.745 103 381.789 103H380.261V101.483H381.81C383.019 101.483 383.978 101.217 384.685 100.687C385.392 100.149 385.746 99.4068 385.746 98.4591C385.746 97.7024 385.484 97.1083 384.961 96.6769C384.444 96.2455 383.741 96.0298 382.85 96.0298C382.171 96.0298 381.531 96.1217 380.929 96.3056C380.328 96.4895 379.642 96.8289 378.871 97.324L377.98 96.1358C378.617 95.6337 379.349 95.2412 380.176 94.9583C381.011 94.6683 381.888 94.5233 382.807 94.5233C384.314 94.5233 385.484 94.8699 386.319 95.563C387.153 96.249 387.57 97.1932 387.57 98.3955Z" fill="white"/>
<rect y="0.178711" width="201.76" height="202.762" fill="#077294"/>
<path d="M66.9641 100.719L66.2639 104.326H69.2662V105.694H66.0093L65.1182 110.256H63.6648L64.556 105.694H61.3416L60.4717 110.256H59.0289L59.8776 105.694H57.0981V104.326H60.1428L60.8642 100.719H57.9256V99.3715H61.0976L61.9675 94.7461H63.4421L62.5722 99.3715H65.8078L66.6989 94.7461H68.1204L67.2293 99.3715H70.03V100.719H66.9641ZM61.5962 104.326H64.8106L65.5107 100.719H62.2963L61.5962 104.326ZM81.9434 102.48C81.9434 105.16 81.5191 107.162 80.6704 108.484C79.8288 109.807 78.5381 110.468 76.7983 110.468C75.1292 110.468 73.8597 109.793 72.9898 108.442C72.1199 107.084 71.6849 105.097 71.6849 102.48C71.6849 99.7781 72.1057 97.7731 72.9473 96.4647C73.789 95.1563 75.0726 94.5021 76.7983 94.5021C78.4815 94.5021 79.7581 95.1846 80.628 96.5496C81.5049 97.9145 81.9434 99.8913 81.9434 102.48ZM73.4672 102.48C73.4672 104.736 73.7324 106.38 74.2628 107.413C74.7932 108.438 75.6384 108.951 76.7983 108.951C77.9723 108.951 78.821 108.431 79.3443 107.392C79.8748 106.345 80.14 104.708 80.14 102.48C80.14 100.252 79.8748 98.6218 79.3443 97.5892C78.821 96.5496 77.9723 96.0298 76.7983 96.0298C75.6384 96.0298 74.7932 96.5425 74.2628 97.568C73.7324 98.5864 73.4672 100.224 73.4672 102.48ZM86.0596 110.256L92.4884 96.3692H84.0333V94.7461H94.3555V96.1571L88.0115 110.256H86.0596ZM98.4928 110.256L104.922 96.3692H96.4666V94.7461H106.789V96.1571L100.445 110.256H98.4928ZM119.158 110.256H108.963V108.739L113.048 104.633C114.293 103.374 115.113 102.476 115.509 101.939C115.905 101.401 116.202 100.878 116.4 100.369C116.598 99.8595 116.697 99.3113 116.697 98.7243C116.697 97.8969 116.446 97.2427 115.944 96.7617C115.442 96.2738 114.745 96.0298 113.854 96.0298C113.21 96.0298 112.599 96.1358 112.019 96.348C111.446 96.5602 110.806 96.9456 110.099 97.5043L109.165 96.3056C110.594 95.1174 112.15 94.5233 113.833 94.5233C115.29 94.5233 116.432 94.8982 117.259 95.6478C118.087 96.3904 118.501 97.3912 118.501 98.6501C118.501 99.6331 118.225 100.606 117.673 101.567C117.121 102.529 116.089 103.746 114.575 105.217L111.181 108.537V108.622H119.158V110.256ZM131.592 101.366C131.592 107.434 129.244 110.468 124.547 110.468C123.727 110.468 123.076 110.397 122.596 110.256V108.739C123.161 108.923 123.805 109.015 124.526 109.015C126.224 109.015 127.504 108.491 128.367 107.445C129.236 106.391 129.71 104.778 129.788 102.607H129.661C129.272 103.194 128.756 103.643 128.112 103.954C127.468 104.258 126.743 104.411 125.937 104.411C124.565 104.411 123.476 104 122.67 103.18C121.864 102.36 121.46 101.214 121.46 99.7428C121.46 98.1303 121.909 96.8572 122.808 95.9237C123.713 94.9901 124.901 94.5233 126.372 94.5233C127.426 94.5233 128.345 94.7956 129.13 95.3402C129.922 95.8777 130.531 96.6663 130.955 97.7059C131.379 98.7385 131.592 99.9585 131.592 101.366ZM126.372 96.0298C125.361 96.0298 124.579 96.3551 124.028 97.0057C123.476 97.6564 123.2 98.5617 123.2 99.7215C123.2 100.74 123.455 101.543 123.964 102.13C124.473 102.71 125.248 103 126.287 103C126.931 103 127.521 102.869 128.059 102.607C128.603 102.345 129.031 101.988 129.343 101.536C129.654 101.083 129.809 100.609 129.809 100.114C129.809 99.3715 129.664 98.6854 129.374 98.056C129.084 97.4266 128.678 96.9315 128.154 96.5708C127.638 96.2101 127.044 96.0298 126.372 96.0298ZM144.757 106.691H142.455V110.256H140.768V106.691H133.225V105.153L140.588 94.6612H142.455V105.089H144.757V106.691ZM140.768 105.089V99.9337C140.768 98.9224 140.803 97.7802 140.874 96.5071H140.789C140.45 97.1861 140.131 97.7483 139.834 98.1939L134.986 105.089H140.768Z" fill="white"/>
</svg>
