<svg width="50" height="51" viewBox="0 0 50 51" fill="none" xmlns="http://www.w3.org/2000/svg">
<path d="M-1.52588e-05 25.2476C-1.52588e-05 11.4404 11.1929 0.247559 25 0.247559C38.8071 0.247559 50 11.4404 50 25.2476C50 39.0547 38.8071 50.2476 25 50.2476C11.1929 50.2476 -1.52588e-05 39.0547 -1.52588e-05 25.2476Z" fill="#2E2882"/>
<path fill-rule="evenodd" clip-rule="evenodd" d="M40.8333 16.9316L34.5618 21.8932L25.4167 16.3142L31.7633 11.0808L40.8333 16.9316ZM19.07 11.0808L25.4164 16.3143L16.2715 21.8932L16.2715 21.8932L16.2715 21.8932L10 16.9316L19.07 11.0808ZM16.2715 21.8932L16.2715 21.8932L16.2715 21.8932L25.4165 27.4723L34.562 21.8934L40.8332 26.8553L31.7632 32.7061L25.4167 27.4724L19.07 32.7061L9.99998 26.8553L16.2715 21.8932ZM31.8005 33.8166L25.4353 28.5983L19.0701 33.8166L16.3462 32.0597V34.0293L25.4353 39.4141L34.5244 34.0293V32.0597L31.8005 33.8166Z" fill="#FEB0A5"/>
</svg>
