<svg width="51" height="51" viewBox="0 0 51 51" fill="none" xmlns="http://www.w3.org/2000/svg">
<path d="M0.911514 25.894C0.911514 12.0869 12.1044 0.894043 25.9115 0.894043C39.7186 0.894043 50.9115 12.0869 50.9115 25.894C50.9115 39.7012 39.7186 50.894 25.9115 50.894C12.1044 50.894 0.911514 39.7012 0.911514 25.894Z" fill="#1899E2"/>
<path d="M36.5772 24.9417C36.6228 24.6801 36.6515 24.4121 36.6515 24.1382C36.6515 21.5777 34.5756 19.5025 32.0159 19.5025C31.4583 19.5025 30.9241 19.6062 30.4272 19.7875C28.918 17.4475 26.2943 15.894 23.3028 15.894C18.6202 15.894 14.8246 19.6897 14.8246 24.3723C14.8246 24.5921 14.8409 24.808 14.8578 25.0238C12.5915 25.5925 10.9115 27.6371 10.9115 30.0788C10.9115 32.9601 13.2476 35.2962 16.1289 35.2962H35.6941C38.5754 35.2962 40.9115 32.9601 40.9115 30.0788C40.9115 27.4995 39.0372 25.3623 36.5772 24.9417Z" fill="white"/>
</svg>
