<svg width="192" height="190" viewBox="0 0 192 190" fill="none" xmlns="http://www.w3.org/2000/svg">
<path d="M191.984 95.0354C191.984 116.796 184.3 137.883 170.241 154.703C156.183 171.524 136.619 183.038 114.885 187.283C93.1497 191.528 70.5883 188.242 51.0444 177.985C31.5005 167.727 16.1834 151.132 7.7029 131.029C-0.777596 110.925 -1.89675 88.5558 4.53613 67.7327C10.969 46.9095 24.5559 28.9208 42.9818 16.8315C61.4076 4.7422 83.5324 -0.699617 105.586 1.43325C127.64 3.56611 148.259 13.1417 163.929 28.5284L96.1976 95.0354H191.984Z" fill="#109619"/>
<path d="M163.929 28.5284C179.402 43.7219 189.11 63.6594 191.439 85.0242C193.769 106.389 188.578 127.893 176.731 145.958C164.883 164.023 147.094 177.56 126.322 184.318C105.55 191.076 83.0482 190.646 62.5597 183.1C42.0712 175.554 24.8315 161.348 13.7087 142.844C2.58597 124.34 -1.74924 102.654 1.42435 81.3946C4.59794 60.135 15.089 40.5832 31.1521 25.9922C47.2152 11.4011 67.882 2.65048 89.714 1.19606L96.1976 95.0354L163.929 28.5284Z" fill="#990099"/>
<path d="M182.598 54.4308C191.433 72.5574 194.123 92.9862 190.275 112.723C186.426 132.461 176.24 150.468 161.211 164.108C146.181 177.748 127.098 186.302 106.757 188.517C86.4159 190.733 65.8872 186.492 48.179 176.418C30.4708 166.344 16.5142 150.965 8.3544 132.536C0.194608 114.107 -1.73933 93.5954 2.83598 74.0083C7.4113 54.4212 18.2553 36.7879 33.7789 23.6926C49.3025 10.5973 68.6894 2.72834 89.0987 1.239L96.1976 95.0354L182.598 54.4308Z" fill="#0099C5"/>
<path d="M190.967 81.3659C193.767 100.087 190.752 119.202 182.316 136.214C173.879 153.226 160.413 167.343 143.677 176.722C126.941 186.102 107.713 190.306 88.5058 188.787C69.2981 187.267 51.0037 180.095 36.0127 168.206C21.0217 156.316 10.0311 140.264 4.47682 122.145C-1.07746 104.027 -0.937149 84.6844 4.87941 66.6452C10.696 48.6061 21.9183 32.7091 37.0803 21.0309C52.2422 9.35281 70.6388 2.43665 89.8666 1.18601L96.1976 95.0354L190.967 81.3659Z" fill="#3266CC"/>
<path d="M88.6715 1.27113C72.0594 2.55677 56.0762 8.07559 42.3008 17.2825C28.5254 26.4893 17.4343 39.0657 10.1232 53.7692C2.81212 68.4728 -0.466068 84.7948 0.612462 101.123C1.69099 117.451 7.08893 133.221 16.2731 146.874C25.4572 160.527 38.1098 171.591 52.981 178.973C67.8521 186.356 84.4274 189.801 101.07 188.969C117.712 188.137 133.845 183.056 147.875 174.228C161.906 165.4 173.348 153.131 181.072 138.632L96.1976 95.0354L88.6715 1.27113Z" fill="#DC3812"/>
<path d="M89.427 1.21561C76.2071 2.13547 63.3255 5.73909 51.5969 11.7986C39.8682 17.858 29.5478 26.2415 21.2883 36.4187C13.0288 46.5959 7.00999 58.3453 3.61252 70.924C0.215055 83.5026 -0.487127 96.6367 1.55039 109.495C3.5879 122.354 8.32078 134.658 15.4497 145.628C22.5786 156.599 31.9483 165.997 42.9664 173.229C53.9844 180.461 66.4109 185.369 79.46 187.643C92.5091 189.917 105.897 189.508 118.776 186.44L96.1976 95.0354L89.427 1.21561Z" fill="#FE9900"/>
</svg>
