<svg width="326" height="244" viewBox="0 0 326 244" fill="none" xmlns="http://www.w3.org/2000/svg">
<rect x="0.53653" y="182.996" width="324.75" height="60.75" fill="#F2F2F2" stroke="#3E4146" stroke-width="0.25"/>
<path d="M72.6238 218.342H63.3238L61.3988 222.717H58.8238L66.7488 205.217H69.2238L77.1738 222.717H74.5488L72.6238 218.342ZM71.7488 216.342L67.9738 207.767L64.1988 216.342H71.7488ZM96.4844 222.717L92.7094 217.342C92.2427 217.375 91.8761 217.392 91.6094 217.392H87.2844V222.717H84.7844V205.217H91.6094C93.8761 205.217 95.6594 205.758 96.9594 206.842C98.2594 207.925 98.9094 209.417 98.9094 211.317C98.9094 212.667 98.5761 213.817 97.9094 214.767C97.2427 215.717 96.2927 216.408 95.0594 216.842L99.2094 222.717H96.4844ZM91.5344 215.267C93.1177 215.267 94.3261 214.925 95.1594 214.242C95.9927 213.558 96.4094 212.583 96.4094 211.317C96.4094 210.05 95.9927 209.083 95.1594 208.417C94.3261 207.733 93.1177 207.392 91.5344 207.392H87.2844V215.267H91.5344ZM115.773 222.917C114.023 222.917 112.44 222.533 111.023 221.767C109.623 220.983 108.523 219.917 107.723 218.567C106.923 217.2 106.523 215.667 106.523 213.967C106.523 212.267 106.923 210.742 107.723 209.392C108.523 208.025 109.632 206.958 111.048 206.192C112.465 205.408 114.048 205.017 115.798 205.017C117.165 205.017 118.415 205.25 119.548 205.717C120.682 206.167 121.648 206.842 122.448 207.742L120.823 209.317C119.507 207.933 117.865 207.242 115.898 207.242C114.598 207.242 113.423 207.533 112.373 208.117C111.323 208.7 110.498 209.508 109.898 210.542C109.315 211.558 109.023 212.7 109.023 213.967C109.023 215.233 109.315 216.383 109.898 217.417C110.498 218.433 111.323 219.233 112.373 219.817C113.423 220.4 114.598 220.692 115.898 220.692C117.848 220.692 119.49 219.992 120.823 218.592L122.448 220.167C121.648 221.067 120.673 221.75 119.523 222.217C118.39 222.683 117.14 222.917 115.773 222.917ZM146.065 205.217V222.717H143.565V214.917H133.515V222.717H131.015V205.217H133.515V212.742H143.565V205.217H146.065ZM169.003 220.542V222.717H156.303V205.217H168.653V207.392H158.803V212.767H167.578V214.892H158.803V220.542H169.003ZM181.526 207.392H175.526V205.217H190.001V207.392H184.001V222.717H181.526V207.392ZM204.229 216.667V222.717H201.754V216.617L194.804 205.217H197.479L203.079 214.442L208.704 205.217H211.179L204.229 216.667ZM225.247 205.217C227.514 205.217 229.297 205.758 230.597 206.842C231.897 207.925 232.547 209.417 232.547 211.317C232.547 213.217 231.897 214.708 230.597 215.792C229.297 216.875 227.514 217.417 225.247 217.417H220.922V222.717H218.422V205.217H225.247ZM225.172 215.242C226.755 215.242 227.964 214.908 228.797 214.242C229.63 213.558 230.047 212.583 230.047 211.317C230.047 210.05 229.63 209.083 228.797 208.417C227.964 207.733 226.755 207.392 225.172 207.392H220.922V215.242H225.172ZM253.92 220.542V222.717H241.22V205.217H253.57V207.392H243.72V212.767H252.495V214.892H243.72V220.542H253.92Z" fill="#333333"/>
<rect x="0.41153" y="91.8711" width="325" height="61" fill="#077294"/>
<g filter="url(#filter0_d)">
<path d="M72.6238 127.342H63.3238L61.3988 131.717H58.8238L66.7488 114.217H69.2238L77.1738 131.717H74.5488L72.6238 127.342ZM71.7488 125.342L67.9738 116.767L64.1988 125.342H71.7488ZM96.4844 131.717L92.7094 126.342C92.2427 126.375 91.8761 126.392 91.6094 126.392H87.2844V131.717H84.7844V114.217H91.6094C93.8761 114.217 95.6594 114.758 96.9594 115.842C98.2594 116.925 98.9094 118.417 98.9094 120.317C98.9094 121.667 98.5761 122.817 97.9094 123.767C97.2427 124.717 96.2927 125.408 95.0594 125.842L99.2094 131.717H96.4844ZM91.5344 124.267C93.1177 124.267 94.3261 123.925 95.1594 123.242C95.9927 122.558 96.4094 121.583 96.4094 120.317C96.4094 119.05 95.9927 118.083 95.1594 117.417C94.3261 116.733 93.1177 116.392 91.5344 116.392H87.2844V124.267H91.5344ZM115.773 131.917C114.023 131.917 112.44 131.533 111.023 130.767C109.623 129.983 108.523 128.917 107.723 127.567C106.923 126.2 106.523 124.667 106.523 122.967C106.523 121.267 106.923 119.742 107.723 118.392C108.523 117.025 109.632 115.958 111.048 115.192C112.465 114.408 114.048 114.017 115.798 114.017C117.165 114.017 118.415 114.25 119.548 114.717C120.682 115.167 121.648 115.842 122.448 116.742L120.823 118.317C119.507 116.933 117.865 116.242 115.898 116.242C114.598 116.242 113.423 116.533 112.373 117.117C111.323 117.7 110.498 118.508 109.898 119.542C109.315 120.558 109.023 121.7 109.023 122.967C109.023 124.233 109.315 125.383 109.898 126.417C110.498 127.433 111.323 128.233 112.373 128.817C113.423 129.4 114.598 129.692 115.898 129.692C117.848 129.692 119.49 128.992 120.823 127.592L122.448 129.167C121.648 130.067 120.673 130.75 119.523 131.217C118.39 131.683 117.14 131.917 115.773 131.917ZM146.065 114.217V131.717H143.565V123.917H133.515V131.717H131.015V114.217H133.515V121.742H143.565V114.217H146.065ZM169.003 129.542V131.717H156.303V114.217H168.653V116.392H158.803V121.767H167.578V123.892H158.803V129.542H169.003ZM181.526 116.392H175.526V114.217H190.001V116.392H184.001V131.717H181.526V116.392ZM204.229 125.667V131.717H201.754V125.617L194.804 114.217H197.479L203.079 123.442L208.704 114.217H211.179L204.229 125.667ZM225.247 114.217C227.514 114.217 229.297 114.758 230.597 115.842C231.897 116.925 232.547 118.417 232.547 120.317C232.547 122.217 231.897 123.708 230.597 124.792C229.297 125.875 227.514 126.417 225.247 126.417H220.922V131.717H218.422V114.217H225.247ZM225.172 124.242C226.755 124.242 227.964 123.908 228.797 123.242C229.63 122.558 230.047 121.583 230.047 120.317C230.047 119.05 229.63 118.083 228.797 117.417C227.964 116.733 226.755 116.392 225.172 116.392H220.922V124.242H225.172ZM253.92 129.542V131.717H241.22V114.217H253.57V116.392H243.72V121.767H252.495V123.892H243.72V129.542H253.92Z" fill="white"/>
</g>
<rect x="0.28653" y="0.745605" width="325.25" height="61.25" fill="#333333" stroke="#F8F8F5" stroke-width="0.25"/>
<g filter="url(#filter1_d)">
<path d="M72.6238 36.3413H63.3238L61.3988 40.7163H58.8238L66.7488 23.2163H69.2238L77.1738 40.7163H74.5488L72.6238 36.3413ZM71.7488 34.3413L67.9738 25.7663L64.1988 34.3413H71.7488ZM96.4844 40.7163L92.7094 35.3413C92.2427 35.3746 91.8761 35.3913 91.6094 35.3913H87.2844V40.7163H84.7844V23.2163H91.6094C93.8761 23.2163 95.6594 23.758 96.9594 24.8413C98.2594 25.9246 98.9094 27.4163 98.9094 29.3163C98.9094 30.6663 98.5761 31.8163 97.9094 32.7663C97.2427 33.7163 96.2927 34.408 95.0594 34.8413L99.2094 40.7163H96.4844ZM91.5344 33.2663C93.1177 33.2663 94.3261 32.9246 95.1594 32.2413C95.9927 31.558 96.4094 30.583 96.4094 29.3163C96.4094 28.0496 95.9927 27.083 95.1594 26.4163C94.3261 25.733 93.1177 25.3913 91.5344 25.3913H87.2844V33.2663H91.5344ZM115.773 40.9163C114.023 40.9163 112.44 40.533 111.023 39.7663C109.623 38.983 108.523 37.9163 107.723 36.5663C106.923 35.1996 106.523 33.6663 106.523 31.9663C106.523 30.2663 106.923 28.7413 107.723 27.3913C108.523 26.0246 109.632 24.958 111.048 24.1913C112.465 23.408 114.048 23.0163 115.798 23.0163C117.165 23.0163 118.415 23.2496 119.548 23.7163C120.682 24.1663 121.648 24.8413 122.448 25.7413L120.823 27.3163C119.507 25.933 117.865 25.2413 115.898 25.2413C114.598 25.2413 113.423 25.533 112.373 26.1163C111.323 26.6996 110.498 27.508 109.898 28.5413C109.315 29.558 109.023 30.6996 109.023 31.9663C109.023 33.233 109.315 34.383 109.898 35.4163C110.498 36.433 111.323 37.233 112.373 37.8163C113.423 38.3996 114.598 38.6913 115.898 38.6913C117.848 38.6913 119.49 37.9913 120.823 36.5913L122.448 38.1663C121.648 39.0663 120.673 39.7496 119.523 40.2163C118.39 40.683 117.14 40.9163 115.773 40.9163ZM146.065 23.2163V40.7163H143.565V32.9163H133.515V40.7163H131.015V23.2163H133.515V30.7413H143.565V23.2163H146.065ZM169.003 38.5413V40.7163H156.303V23.2163H168.653V25.3913H158.803V30.7663H167.578V32.8913H158.803V38.5413H169.003ZM181.526 25.3913H175.526V23.2163H190.001V25.3913H184.001V40.7163H181.526V25.3913ZM204.229 34.6663V40.7163H201.754V34.6163L194.804 23.2163H197.479L203.079 32.4413L208.704 23.2163H211.179L204.229 34.6663ZM225.247 23.2163C227.514 23.2163 229.297 23.758 230.597 24.8413C231.897 25.9246 232.547 27.4163 232.547 29.3163C232.547 31.2163 231.897 32.708 230.597 33.7913C229.297 34.8746 227.514 35.4163 225.247 35.4163H220.922V40.7163H218.422V23.2163H225.247ZM225.172 33.2413C226.755 33.2413 227.964 32.908 228.797 32.2413C229.63 31.558 230.047 30.583 230.047 29.3163C230.047 28.0496 229.63 27.083 228.797 26.4163C227.964 25.733 226.755 25.3913 225.172 25.3913H220.922V33.2413H225.172ZM253.92 38.5413V40.7163H241.22V23.2163H253.57V25.3913H243.72V30.7663H252.495V32.8913H243.72V38.5413H253.92Z" fill="white"/>
</g>
<defs>
<filter id="filter0_d" x="54.8238" y="114.017" width="203.096" height="25.9" filterUnits="userSpaceOnUse" color-interpolation-filters="sRGB">
<feFlood flood-opacity="0" result="BackgroundImageFix"/>
<feColorMatrix in="SourceAlpha" type="matrix" values="0 0 0 0 0 0 0 0 0 0 0 0 0 0 0 0 0 0 127 0"/>
<feOffset dy="4"/>
<feGaussianBlur stdDeviation="2"/>
<feColorMatrix type="matrix" values="0 0 0 0 0 0 0 0 0 0 0 0 0 0 0 0 0 0 0.25 0"/>
<feBlend mode="normal" in2="BackgroundImageFix" result="effect1_dropShadow"/>
<feBlend mode="normal" in="SourceGraphic" in2="effect1_dropShadow" result="shape"/>
</filter>
<filter id="filter1_d" x="54.8238" y="23.0161" width="203.096" height="25.9" filterUnits="userSpaceOnUse" color-interpolation-filters="sRGB">
<feFlood flood-opacity="0" result="BackgroundImageFix"/>
<feColorMatrix in="SourceAlpha" type="matrix" values="0 0 0 0 0 0 0 0 0 0 0 0 0 0 0 0 0 0 127 0"/>
<feOffset dy="4"/>
<feGaussianBlur stdDeviation="2"/>
<feColorMatrix type="matrix" values="0 0 0 0 0 0 0 0 0 0 0 0 0 0 0 0 0 0 0.25 0"/>
<feBlend mode="normal" in2="BackgroundImageFix" result="effect1_dropShadow"/>
<feBlend mode="normal" in="SourceGraphic" in2="effect1_dropShadow" result="shape"/>
</filter>
</defs>
</svg>
