<svg width="694" height="419" viewBox="0 0 694 419" fill="none" xmlns="http://www.w3.org/2000/svg">
<rect x="1.65398" y="306.037" width="690.692" height="111.807" fill="#F2F2F2" stroke="#333333" stroke-width="1.80337"/>
<path d="M190.157 371.625H173.386L169.914 379.515H165.27L179.562 347.956H184.025L198.362 379.515H193.628L190.157 371.625ZM188.579 368.018L181.771 352.554L174.964 368.018H188.579ZM233.186 379.515L226.379 369.822C225.537 369.882 224.876 369.912 224.395 369.912H216.595V379.515H212.087V347.956H224.395C228.483 347.956 231.699 348.932 234.043 350.886C236.387 352.84 237.56 355.53 237.56 358.956C237.56 361.391 236.959 363.465 235.756 365.178C234.554 366.891 232.841 368.138 230.617 368.92L238.101 379.515H233.186ZM224.26 366.08C227.115 366.08 229.294 365.463 230.797 364.231C232.3 362.999 233.051 361.24 233.051 358.956C233.051 356.672 232.3 354.929 230.797 353.726C229.294 352.494 227.115 351.878 224.26 351.878H216.595V366.08H224.26ZM267.972 379.875C264.816 379.875 261.961 379.184 259.406 377.801C256.881 376.389 254.897 374.465 253.455 372.031C252.012 369.566 251.291 366.801 251.291 363.735C251.291 360.669 252.012 357.919 253.455 355.485C254.897 353.02 256.896 351.096 259.451 349.714C262.006 348.301 264.861 347.595 268.017 347.595C270.482 347.595 272.736 348.016 274.78 348.857C276.823 349.669 278.567 350.886 280.009 352.509L277.079 355.349C274.704 352.855 271.744 351.607 268.197 351.607C265.853 351.607 263.734 352.133 261.84 353.185C259.947 354.237 258.459 355.695 257.377 357.559C256.325 359.392 255.799 361.451 255.799 363.735C255.799 366.019 256.325 368.093 257.377 369.957C258.459 371.79 259.947 373.233 261.84 374.285C263.734 375.337 265.853 375.863 268.197 375.863C271.714 375.863 274.674 374.6 277.079 372.076L280.009 374.916C278.567 376.539 276.808 377.771 274.734 378.613C272.691 379.455 270.436 379.875 267.972 379.875ZM322.599 347.956V379.515H318.09V365.448H299.966V379.515H295.458V347.956H299.966V361.526H318.09V347.956H322.599ZM363.964 375.592V379.515H341.062V347.956H363.333V351.878H345.57V361.571H361.395V365.403H345.57V375.592H363.964ZM386.548 351.878H375.728V347.956H401.832V351.878H391.012V379.515H386.548V351.878ZM427.489 368.604V379.515H423.026V368.514L410.493 347.956H415.317L425.415 364.592L435.559 347.956H440.023L427.489 368.604ZM465.394 347.956C469.481 347.956 472.697 348.932 475.042 350.886C477.386 352.84 478.558 355.53 478.558 358.956C478.558 362.383 477.386 365.073 475.042 367.026C472.697 368.98 469.481 369.957 465.394 369.957H457.594V379.515H453.086V347.956H465.394ZM465.258 366.034C468.114 366.034 470.293 365.433 471.796 364.231C473.298 362.999 474.05 361.24 474.05 358.956C474.05 356.672 473.298 354.929 471.796 353.726C470.293 352.494 468.114 351.878 465.258 351.878H457.594V366.034H465.258ZM517.102 375.592V379.515H494.199V347.956H516.47V351.878H498.707V361.571H514.532V365.403H498.707V375.592H517.102Z" fill="#333333"/>
<rect x="2.55566" y="153.652" width="688.889" height="110.006" fill="#077294"/>
<path d="M190.157 218.338H173.386L169.914 226.228H165.27L179.562 194.668H184.025L198.362 226.228H193.628L190.157 218.338ZM188.579 214.731L181.771 199.267L174.964 214.731H188.579ZM233.186 226.228L226.379 216.534C225.537 216.595 224.876 216.625 224.395 216.625H216.595V226.228H212.087V194.668H224.395C228.483 194.668 231.699 195.645 234.043 197.599C236.387 199.553 237.56 202.243 237.56 205.669C237.56 208.104 236.959 210.178 235.756 211.891C234.554 213.604 232.841 214.851 230.617 215.633L238.101 226.228H233.186ZM224.26 212.792C227.115 212.792 229.294 212.176 230.797 210.944C232.3 209.712 233.051 207.953 233.051 205.669C233.051 203.385 232.3 201.642 230.797 200.439C229.294 199.207 227.115 198.591 224.26 198.591H216.595V212.792H224.26ZM267.972 226.588C264.816 226.588 261.961 225.897 259.406 224.514C256.881 223.102 254.897 221.178 253.455 218.744C252.012 216.279 251.291 213.514 251.291 210.448C251.291 207.382 252.012 204.632 253.455 202.198C254.897 199.733 256.896 197.809 259.451 196.427C262.006 195.014 264.861 194.308 268.017 194.308C270.482 194.308 272.736 194.729 274.78 195.57C276.823 196.382 278.567 197.599 280.009 199.222L277.079 202.062C274.704 199.568 271.744 198.32 268.197 198.32C265.853 198.32 263.734 198.846 261.84 199.898C259.947 200.95 258.459 202.408 257.377 204.271C256.325 206.105 255.799 208.164 255.799 210.448C255.799 212.732 256.325 214.806 257.377 216.67C258.459 218.503 259.947 219.946 261.84 220.998C263.734 222.05 265.853 222.576 268.197 222.576C271.714 222.576 274.674 221.313 277.079 218.789L280.009 221.629C278.567 223.252 276.808 224.484 274.734 225.326C272.691 226.167 270.436 226.588 267.972 226.588ZM322.599 194.668V226.228H318.09V212.161H299.966V226.228H295.458V194.668H299.966V208.239H318.09V194.668H322.599ZM363.964 222.305V226.228H341.062V194.668H363.333V198.591H345.57V208.284H361.395V212.116H345.57V222.305H363.964ZM386.548 198.591H375.728V194.668H401.832V198.591H391.012V226.228H386.548V198.591ZM427.489 215.317V226.228H423.026V215.227L410.493 194.668H415.317L425.415 211.305L435.559 194.668H440.023L427.489 215.317ZM465.394 194.668C469.481 194.668 472.697 195.645 475.042 197.599C477.386 199.553 478.558 202.243 478.558 205.669C478.558 209.095 477.386 211.786 475.042 213.739C472.697 215.693 469.481 216.67 465.394 216.67H457.594V226.228H453.086V194.668H465.394ZM465.258 212.747C468.114 212.747 470.293 212.146 471.796 210.944C473.298 209.712 474.05 207.953 474.05 205.669C474.05 203.385 473.298 201.642 471.796 200.439C470.293 199.207 468.114 198.591 465.258 198.591H457.594V212.747H465.258ZM517.102 222.305V226.228H494.199V194.668H516.47V198.591H498.707V208.284H514.532V212.116H498.707V222.305H517.102Z" fill="white"/>
<rect x="2.55566" y="0.365234" width="688.889" height="110.006" fill="#333333"/>
<path d="M190.157 65.0507H173.386L169.914 72.9404H165.27L179.562 41.3814H184.025L198.362 72.9404H193.628L190.157 65.0507ZM188.579 61.4439L181.771 45.98L174.964 61.4439H188.579ZM233.186 72.9404L226.379 63.2473C225.537 63.3074 224.876 63.3375 224.395 63.3375H216.595V72.9404H212.087V41.3814H224.395C228.483 41.3814 231.699 42.3582 234.043 44.3119C236.387 46.2655 237.56 48.9556 237.56 52.382C237.56 54.8165 236.959 56.8904 235.756 58.6036C234.554 60.3168 232.841 61.5641 230.617 62.3456L238.101 72.9404H233.186ZM224.26 59.5053C227.115 59.5053 229.294 58.8891 230.797 57.6568C232.3 56.4245 233.051 54.6662 233.051 52.382C233.051 50.0977 232.3 48.3544 230.797 47.1522C229.294 45.9199 227.115 45.3037 224.26 45.3037H216.595V59.5053H224.26ZM267.972 73.3011C264.816 73.3011 261.961 72.6098 259.406 71.2272C256.881 69.8146 254.897 67.891 253.455 65.4564C252.012 62.9918 251.291 60.2266 251.291 57.1609C251.291 54.0952 252.012 51.345 253.455 48.9105C254.897 46.4459 256.896 44.5223 259.451 43.1397C262.006 41.727 264.861 41.0207 268.017 41.0207C270.482 41.0207 272.736 41.4415 274.78 42.2831C276.823 43.0946 278.567 44.3119 280.009 45.9349L277.079 48.7752C274.704 46.2806 271.744 45.0332 268.197 45.0332C265.853 45.0332 263.734 45.5592 261.84 46.6112C259.947 47.6631 258.459 49.1209 257.377 50.9844C256.325 52.8178 255.799 54.8766 255.799 57.1609C255.799 59.4452 256.325 61.5191 257.377 63.3825C258.459 65.216 259.947 66.6587 261.84 67.7106C263.734 68.7626 265.853 69.2886 268.197 69.2886C271.714 69.2886 274.674 68.0262 277.079 65.5015L280.009 68.3418C278.567 69.9649 276.808 71.1972 274.734 72.0387C272.691 72.8803 270.436 73.3011 267.972 73.3011ZM322.599 41.3814V72.9404H318.09V58.8741H299.966V72.9404H295.458V41.3814H299.966V54.9518H318.09V41.3814H322.599ZM363.964 69.0181V72.9404H341.062V41.3814H363.333V45.3037H345.57V54.9969H361.395V58.829H345.57V69.0181H363.964ZM386.548 45.3037H375.728V41.3814H401.832V45.3037H391.012V72.9404H386.548V45.3037ZM427.489 62.03V72.9404H423.026V61.9399L410.493 41.3814H415.317L425.415 58.0175L435.559 41.3814H440.023L427.489 62.03ZM465.394 41.3814C469.481 41.3814 472.697 42.3582 475.042 44.3119C477.386 46.2655 478.558 48.9556 478.558 52.382C478.558 55.8084 477.386 58.4984 475.042 60.4521C472.697 62.4057 469.481 63.3825 465.394 63.3825H457.594V72.9404H453.086V41.3814H465.394ZM465.258 59.4602C468.114 59.4602 470.293 58.8591 471.796 57.6568C473.298 56.4245 474.05 54.6662 474.05 52.382C474.05 50.0977 473.298 48.3544 471.796 47.1522C470.293 45.9199 468.114 45.3037 465.258 45.3037H457.594V59.4602H465.258ZM517.102 69.0181V72.9404H494.199V41.3814H516.47V45.3037H498.707V54.9969H514.532V58.829H498.707V69.0181H517.102Z" fill="white"/>
</svg>
