<svg width="396" height="135" viewBox="0 0 396 135" fill="none" xmlns="http://www.w3.org/2000/svg">
<rect x="118.108" y="116.711" width="277.459" height="17.689" fill="#109619"/>
<path d="M14.8555 131.193L13.5225 127.787H9.23047L7.91211 131.193H6.65234L10.8857 120.441H11.9331L16.1445 131.193H14.8555ZM13.1343 126.667L11.8892 123.349C11.728 122.929 11.562 122.414 11.3911 121.803C11.2837 122.272 11.1299 122.787 10.9297 123.349L9.66992 126.667H13.1343ZM18.9494 131.193H17.7336V119.797H18.9494V131.193ZM23.0434 131.193H21.8275V119.797H23.0434V131.193ZM31.5462 131.193H30.3011V120.485H36.2703V121.591H31.5462V125.509H35.9847V126.615H31.5462V131.193ZM41.5581 131.339C40.3716 131.339 39.4341 130.978 38.7456 130.255C38.062 129.533 37.7202 128.529 37.7202 127.245C37.7202 125.951 38.0376 124.923 38.6724 124.162C39.312 123.4 40.1689 123.019 41.2432 123.019C42.249 123.019 43.0449 123.351 43.6309 124.015C44.2168 124.674 44.5098 125.546 44.5098 126.63V127.399H38.98C39.0044 128.341 39.2412 129.057 39.6904 129.545C40.1445 130.033 40.7817 130.277 41.6021 130.277C42.4663 130.277 43.3208 130.097 44.1655 129.735V130.819C43.7358 131.005 43.3281 131.137 42.9424 131.215C42.5615 131.298 42.1001 131.339 41.5581 131.339ZM41.2285 124.037C40.584 124.037 40.0688 124.247 39.6831 124.667C39.3022 125.087 39.0776 125.668 39.0093 126.41H43.2061C43.2061 125.644 43.0352 125.058 42.6934 124.652C42.3516 124.242 41.8633 124.037 41.2285 124.037ZM51.8264 131.193L51.5847 130.05H51.5261C51.1257 130.553 50.7253 130.895 50.3249 131.076C49.9294 131.252 49.4338 131.339 48.8381 131.339C48.0422 131.339 47.4172 131.134 46.9631 130.724C46.5139 130.314 46.2893 129.731 46.2893 128.974C46.2893 127.353 47.5856 126.503 50.1784 126.425L51.5407 126.381V125.883C51.5407 125.253 51.404 124.789 51.1306 124.491C50.862 124.189 50.4299 124.037 49.8342 124.037C49.1652 124.037 48.4084 124.242 47.5637 124.652L47.1901 123.722C47.5856 123.507 48.0178 123.339 48.4865 123.217C48.9602 123.095 49.4338 123.034 49.9074 123.034C50.8645 123.034 51.5725 123.246 52.0314 123.671C52.4953 124.096 52.7272 124.777 52.7272 125.714V131.193H51.8264ZM49.0798 130.336C49.8366 130.336 50.4299 130.129 50.8596 129.714C51.2941 129.298 51.5114 128.717 51.5114 127.97V127.245L50.2956 127.297C49.3288 127.331 48.6306 127.482 48.2009 127.751C47.7761 128.014 47.5637 128.427 47.5637 128.988C47.5637 129.428 47.6955 129.762 47.9592 129.992C48.2277 130.221 48.6013 130.336 49.0798 130.336ZM58.1322 130.336C58.3471 130.336 58.5546 130.321 58.7548 130.292C58.955 130.258 59.1137 130.224 59.2309 130.19V131.12C59.099 131.183 58.9037 131.234 58.6449 131.274C58.391 131.318 58.1615 131.339 57.9564 131.339C56.4037 131.339 55.6273 130.522 55.6273 128.886V124.11H54.4774V123.525L55.6273 123.019L56.14 121.305H56.8432V123.166H59.1723V124.11H56.8432V128.835C56.8432 129.318 56.9579 129.689 57.1874 129.948C57.4169 130.207 57.7318 130.336 58.1322 130.336ZM62.2848 123.166V128.373C62.2848 129.027 62.4337 129.516 62.7315 129.838C63.0294 130.16 63.4957 130.321 64.1305 130.321C64.9703 130.321 65.5831 130.092 65.9688 129.633C66.3595 129.174 66.5548 128.424 66.5548 127.384V123.166H67.7706V131.193H66.7672L66.5914 130.116H66.5255C66.2765 130.512 65.9298 130.815 65.4855 131.025C65.046 131.234 64.5431 131.339 63.9767 131.339C63.0001 131.339 62.2677 131.108 61.7794 130.644C61.296 130.18 61.0543 129.438 61.0543 128.417V123.166H62.2848ZM74.3182 123.019C74.6746 123.019 74.9944 123.048 75.2776 123.107L75.1092 124.235C74.7771 124.162 74.4842 124.125 74.2303 124.125C73.5809 124.125 73.0242 124.389 72.5604 124.916C72.1014 125.443 71.8719 126.1 71.8719 126.886V131.193H70.6561V123.166H71.6595L71.7986 124.652H71.8572C72.1551 124.13 72.514 123.727 72.9339 123.444C73.3538 123.161 73.8152 123.019 74.3182 123.019ZM80.4702 131.339C79.2837 131.339 78.3462 130.978 77.6577 130.255C76.9741 129.533 76.6323 128.529 76.6323 127.245C76.6323 125.951 76.9497 124.923 77.5845 124.162C78.2241 123.4 79.0811 123.019 80.1553 123.019C81.1611 123.019 81.957 123.351 82.543 124.015C83.1289 124.674 83.4219 125.546 83.4219 126.63V127.399H77.8921C77.9165 128.341 78.1533 129.057 78.6025 129.545C79.0566 130.033 79.6938 130.277 80.5142 130.277C81.3784 130.277 82.2329 130.097 83.0776 129.735V130.819C82.6479 131.005 82.2402 131.137 81.8545 131.215C81.4736 131.298 81.0122 131.339 80.4702 131.339ZM80.1406 124.037C79.4961 124.037 78.981 124.247 78.5952 124.667C78.2144 125.087 77.9897 125.668 77.9214 126.41H82.1182C82.1182 125.644 81.9473 125.058 81.6055 124.652C81.2637 124.242 80.7754 124.037 80.1406 124.037ZM90.9802 129.003C90.9802 129.75 90.7019 130.326 90.1452 130.732C89.5886 131.137 88.8073 131.339 87.8015 131.339C86.737 131.339 85.9069 131.171 85.3112 130.834V129.706C85.697 129.901 86.1096 130.055 86.549 130.168C86.9934 130.28 87.4206 130.336 87.8308 130.336C88.4655 130.336 88.9538 130.236 89.2956 130.036C89.6374 129.831 89.8083 129.521 89.8083 129.106C89.8083 128.793 89.6716 128.527 89.3981 128.307C89.1296 128.083 88.6022 127.819 87.8161 127.516C87.069 127.238 86.5368 126.996 86.2194 126.791C85.9069 126.581 85.6726 126.344 85.5163 126.081C85.3649 125.817 85.2893 125.502 85.2893 125.136C85.2893 124.482 85.5554 123.966 86.0876 123.59C86.6198 123.21 87.3498 123.019 88.2775 123.019C89.1418 123.019 89.9865 123.195 90.8117 123.547L90.3796 124.535C89.5739 124.203 88.8439 124.037 88.1897 124.037C87.6135 124.037 87.1789 124.128 86.8859 124.308C86.593 124.489 86.4465 124.738 86.4465 125.055C86.4465 125.27 86.5002 125.453 86.6076 125.605C86.7199 125.756 86.8981 125.9 87.1423 126.037C87.3864 126.173 87.8552 126.371 88.5485 126.63C89.5007 126.977 90.1428 127.326 90.4748 127.677C90.8117 128.029 90.9802 128.471 90.9802 129.003Z" fill="white"/>
<rect x="118.108" y="87.7627" width="200.134" height="17.689" fill="#990099"/>
<path d="M22.9697 91.0547V97.9834C22.9697 99.2041 22.6011 100.164 21.8638 100.862C21.1265 101.56 20.1133 101.909 18.8242 101.909C17.5352 101.909 16.5366 101.558 15.8286 100.854C15.1255 100.151 14.7739 99.1846 14.7739 97.9541V91.0547H16.019V98.042C16.019 98.9355 16.2632 99.6216 16.7515 100.1C17.2397 100.579 17.9575 100.818 18.9048 100.818C19.8081 100.818 20.5039 100.579 20.9922 100.1C21.4805 99.6167 21.7246 98.9258 21.7246 98.0273V91.0547H22.9697ZM29.6638 101.909C29.1413 101.909 28.6628 101.814 28.2282 101.624C27.7985 101.428 27.4372 101.13 27.1442 100.73H27.0563C27.1149 101.199 27.1442 101.643 27.1442 102.063V105.366H25.9284V93.7354H26.9172L27.0856 94.834H27.1442C27.4567 94.3945 27.8205 94.0771 28.2355 93.8818C28.6506 93.6865 29.1267 93.5889 29.6638 93.5889C30.7282 93.5889 31.5485 93.9526 32.1247 94.6802C32.7058 95.4077 32.9963 96.4282 32.9963 97.7417C32.9963 99.0601 32.7009 100.085 32.1101 100.818C31.5241 101.545 30.7087 101.909 29.6638 101.909ZM29.488 94.6216C28.6677 94.6216 28.0744 94.8486 27.7082 95.3027C27.342 95.7568 27.154 96.4795 27.1442 97.4707V97.7417C27.1442 98.8696 27.3322 99.6777 27.7082 100.166C28.0842 100.649 28.6872 100.891 29.5173 100.891C30.2106 100.891 30.7526 100.61 31.1433 100.049C31.5388 99.4873 31.7365 98.7134 31.7365 97.7271C31.7365 96.7261 31.5388 95.9595 31.1433 95.4272C30.7526 94.8901 30.2009 94.6216 29.488 94.6216ZM36.6435 101.763H35.4276V90.3662H36.6435V101.763ZM46.4503 97.7417C46.4503 99.0503 46.1207 100.073 45.4615 100.811C44.8023 101.543 43.8917 101.909 42.7296 101.909C42.0118 101.909 41.3746 101.741 40.818 101.404C40.2613 101.067 39.8316 100.583 39.5289 99.9536C39.2262 99.3237 39.0748 98.5864 39.0748 97.7417C39.0748 96.4331 39.402 95.415 40.0563 94.6875C40.7105 93.9551 41.6188 93.5889 42.7809 93.5889C43.9039 93.5889 44.795 93.9624 45.4542 94.7095C46.1183 95.4565 46.4503 96.4673 46.4503 97.7417ZM40.3346 97.7417C40.3346 98.7671 40.5396 99.5483 40.9498 100.085C41.36 100.623 41.963 100.891 42.7589 100.891C43.5548 100.891 44.1578 100.625 44.568 100.093C44.983 99.5557 45.1905 98.772 45.1905 97.7417C45.1905 96.7212 44.983 95.9473 44.568 95.4199C44.1578 94.8877 43.5499 94.6216 42.7442 94.6216C41.9483 94.6216 41.3478 94.8828 40.9425 95.4053C40.5372 95.9277 40.3346 96.7065 40.3346 97.7417ZM53.8255 101.763L53.5838 100.62H53.5252C53.1248 101.123 52.7244 101.465 52.324 101.646C51.9285 101.821 51.4329 101.909 50.8372 101.909C50.0413 101.909 49.4163 101.704 48.9622 101.294C48.513 100.884 48.2884 100.3 48.2884 99.5435C48.2884 97.9224 49.5848 97.0728 52.1775 96.9946L53.5398 96.9507V96.4526C53.5398 95.8228 53.4031 95.3589 53.1297 95.061C52.8611 94.7583 52.429 94.6069 51.8333 94.6069C51.1644 94.6069 50.4075 94.812 49.5628 95.2222L49.1893 94.292C49.5848 94.0771 50.0169 93.9087 50.4856 93.7866C50.9593 93.6646 51.4329 93.6035 51.9065 93.6035C52.8636 93.6035 53.5716 93.8159 54.0306 94.2407C54.4944 94.6655 54.7264 95.3467 54.7264 96.2842V101.763H53.8255ZM51.0789 100.906C51.8357 100.906 52.429 100.698 52.8587 100.283C53.2933 99.8682 53.5105 99.2871 53.5105 98.54V97.8149L52.2947 97.8662C51.3279 97.9004 50.6297 98.0518 50.2 98.3203C49.7752 98.584 49.5628 98.9966 49.5628 99.5581C49.5628 99.9976 49.6946 100.332 49.9583 100.562C50.2269 100.791 50.6004 100.906 51.0789 100.906ZM63.0024 100.686H62.9365C62.375 101.501 61.5352 101.909 60.417 101.909C59.3672 101.909 58.5493 101.55 57.9634 100.833C57.3823 100.115 57.0918 99.0942 57.0918 97.771C57.0918 96.4478 57.3848 95.4199 57.9707 94.6875C58.5566 93.9551 59.3721 93.5889 60.417 93.5889C61.5059 93.5889 62.3408 93.9844 62.9219 94.7754H63.0171L62.9658 94.1968L62.9365 93.6328V90.3662H64.1523V101.763H63.1636L63.0024 100.686ZM60.5708 100.891C61.4009 100.891 62.0015 100.667 62.3726 100.217C62.7485 99.7632 62.9365 99.0332 62.9365 98.0273V97.771C62.9365 96.6333 62.7461 95.8228 62.3652 95.3394C61.9893 94.8511 61.3862 94.6069 60.5562 94.6069C59.8433 94.6069 59.2964 94.8853 58.9155 95.4419C58.5396 95.9937 58.3516 96.7749 58.3516 97.7856C58.3516 98.811 58.5396 99.585 58.9155 100.107C59.2915 100.63 59.8433 100.891 60.5708 100.891ZM68.2536 101.763H67.0378V93.7354H68.2536V101.763ZM66.9353 91.5601C66.9353 91.2817 67.0036 91.0791 67.1403 90.9521C67.2771 90.8203 67.448 90.7544 67.653 90.7544C67.8483 90.7544 68.0168 90.8203 68.1584 90.9521C68.3 91.084 68.3708 91.2866 68.3708 91.5601C68.3708 91.8335 68.3 92.0386 68.1584 92.1753C68.0168 92.3071 67.8483 92.373 67.653 92.373C67.448 92.373 67.2771 92.3071 67.1403 92.1753C67.0036 92.0386 66.9353 91.8335 66.9353 91.5601ZM76.6249 101.763V96.5698C76.6249 95.9155 76.476 95.4272 76.1781 95.105C75.8803 94.7827 75.414 94.6216 74.7792 94.6216C73.9394 94.6216 73.3241 94.8486 72.9335 95.3027C72.5429 95.7568 72.3476 96.5063 72.3476 97.5513V101.763H71.1317V93.7354H72.1205L72.3183 94.834H72.3769C72.6259 94.4385 72.975 94.1333 73.4242 93.9185C73.8734 93.6987 74.3739 93.5889 74.9257 93.5889C75.8925 93.5889 76.62 93.8232 77.1083 94.292C77.5966 94.7559 77.8407 95.5005 77.8407 96.5259V101.763H76.6249ZM87.2154 93.7354V94.5044L85.7286 94.6802C85.8653 94.8511 85.9874 95.0757 86.0948 95.354C86.2022 95.6274 86.256 95.9375 86.256 96.2842C86.256 97.0703 85.9874 97.6978 85.4503 98.1665C84.9132 98.6353 84.1759 98.8696 83.2384 98.8696C82.9991 98.8696 82.7745 98.8501 82.5646 98.811C82.047 99.0845 81.7882 99.4287 81.7882 99.8438C81.7882 100.063 81.8785 100.227 82.0592 100.334C82.2398 100.437 82.5499 100.488 82.9894 100.488H84.4103C85.2794 100.488 85.9459 100.671 86.4098 101.038C86.8785 101.404 87.1129 101.936 87.1129 102.634C87.1129 103.523 86.7564 104.199 86.0436 104.663C85.3307 105.132 84.2906 105.366 82.9234 105.366C81.8736 105.366 81.0631 105.171 80.4918 104.78C79.9254 104.39 79.6422 103.838 79.6422 103.125C79.6422 102.637 79.7984 102.214 80.1109 101.858C80.4234 101.501 80.8629 101.26 81.4293 101.133C81.2242 101.04 81.0509 100.896 80.9093 100.701C80.7726 100.505 80.7042 100.278 80.7042 100.02C80.7042 99.7266 80.7823 99.4702 80.9386 99.2505C81.0948 99.0308 81.3414 98.8184 81.6783 98.6133C81.2633 98.4424 80.9239 98.1519 80.6603 97.7417C80.4015 97.3315 80.2721 96.8628 80.2721 96.3354C80.2721 95.4565 80.5357 94.7803 81.0631 94.3066C81.5904 93.8281 82.3375 93.5889 83.3043 93.5889C83.7242 93.5889 84.1026 93.6377 84.4396 93.7354H87.2154ZM80.8141 103.11C80.8141 103.545 80.9972 103.875 81.3634 104.099C81.7296 104.324 82.2545 104.436 82.9381 104.436C83.9586 104.436 84.713 104.282 85.2013 103.975C85.6944 103.672 85.941 103.259 85.941 102.737C85.941 102.302 85.8067 102 85.5382 101.829C85.2696 101.663 84.7643 101.58 84.0221 101.58H82.5646C82.0128 101.58 81.5831 101.711 81.2755 101.975C80.9679 102.239 80.8141 102.617 80.8141 103.11ZM81.4732 96.3062C81.4732 96.8677 81.6319 97.2925 81.9493 97.5806C82.2667 97.8687 82.7086 98.0127 83.275 98.0127C84.4615 98.0127 85.0548 97.4365 85.0548 96.2842C85.0548 95.0781 84.4542 94.4751 83.253 94.4751C82.6817 94.4751 82.2423 94.6289 81.9347 94.9365C81.6271 95.2441 81.4732 95.7007 81.4732 96.3062Z" fill="white"/>
<rect x="118.108" y="58.8152" width="140.611" height="17.689" fill="#3266CC"/>
<path d="M28.7148 63.0665C27.538 63.0665 26.6078 63.4596 25.9243 64.2457C25.2455 65.027 24.9062 66.0988 24.9062 67.4611C24.9062 68.8624 25.2333 69.9464 25.8876 70.713C26.5468 71.4747 27.4843 71.8556 28.7001 71.8556C29.4472 71.8556 30.2993 71.7213 31.2563 71.4528V72.5441C30.5141 72.8224 29.5986 72.9615 28.5097 72.9615C26.9326 72.9615 25.7143 72.483 24.8549 71.526C24.0004 70.569 23.5732 69.2091 23.5732 67.4464C23.5732 66.3429 23.7783 65.3761 24.1884 64.546C24.6035 63.7159 25.1992 63.0763 25.9755 62.6271C26.7568 62.1779 27.6747 61.9532 28.7294 61.9532C29.8525 61.9532 30.8339 62.1583 31.6738 62.5685L31.1464 63.6378C30.3359 63.257 29.5253 63.0665 28.7148 63.0665ZM37.3717 64.6412C37.7282 64.6412 38.048 64.6705 38.3312 64.7291L38.1627 65.8571C37.8307 65.7838 37.5377 65.7472 37.2838 65.7472C36.6344 65.7472 36.0778 66.0109 35.6139 66.5382C35.1549 67.0656 34.9254 67.7223 34.9254 68.5084V72.8151H33.7096V64.7877H34.713L34.8522 66.2745H34.9108C35.2086 65.7521 35.5675 65.3492 35.9874 65.066C36.4074 64.7828 36.8688 64.6412 37.3717 64.6412ZM43.5238 72.9615C42.3372 72.9615 41.3997 72.6002 40.7113 71.8776C40.0277 71.1549 39.6859 70.1515 39.6859 68.8673C39.6859 67.5734 40.0033 66.5455 40.638 65.7838C41.2777 65.0221 42.1346 64.6412 43.2088 64.6412C44.2147 64.6412 45.0106 64.9733 45.5965 65.6373C46.1825 66.2965 46.4754 67.1681 46.4754 68.2521V69.0211H40.9456C40.9701 69.9635 41.2069 70.6788 41.6561 71.1671C42.1102 71.6554 42.7474 71.8995 43.5677 71.8995C44.432 71.8995 45.2865 71.7189 46.1312 71.3575V72.4415C45.7015 72.6271 45.2938 72.7589 44.908 72.837C44.5272 72.92 44.0658 72.9615 43.5238 72.9615ZM43.1942 65.6593C42.5496 65.6593 42.0345 65.8693 41.6488 66.2892C41.2679 66.7091 41.0433 67.2902 40.9749 68.0323H45.1717C45.1717 67.2657 45.0008 66.6798 44.659 66.2745C44.3172 65.8644 43.8289 65.6593 43.1942 65.6593ZM53.792 72.8151L53.5503 71.6725H53.4917C53.0913 72.1754 52.691 72.5172 52.2906 72.6979C51.8951 72.8737 51.3995 72.9615 50.8037 72.9615C50.0079 72.9615 49.3829 72.7565 48.9287 72.3463C48.4795 71.9362 48.2549 71.3527 48.2549 70.5958C48.2549 68.9747 49.5513 68.1251 52.1441 68.047L53.5064 68.0031V67.505C53.5064 66.8751 53.3697 66.4113 53.0962 66.1134C52.8277 65.8107 52.3955 65.6593 51.7998 65.6593C51.1309 65.6593 50.3741 65.8644 49.5293 66.2745L49.1558 65.3444C49.5513 65.1295 49.9834 64.9611 50.4522 64.839C50.9258 64.7169 51.3995 64.6559 51.8731 64.6559C52.8301 64.6559 53.5381 64.8683 53.9971 65.2931C54.461 65.7179 54.6929 66.399 54.6929 67.3365V72.8151H53.792ZM51.0454 71.9581C51.8023 71.9581 52.3955 71.7506 52.8252 71.3356C53.2598 70.9205 53.4771 70.3395 53.4771 69.5924V68.8673L52.2613 68.9186C51.2945 68.9528 50.5962 69.1041 50.1665 69.3727C49.7417 69.6364 49.5293 70.049 49.5293 70.6105C49.5293 71.0499 49.6612 71.3844 49.9248 71.6139C50.1934 71.8434 50.5669 71.9581 51.0454 71.9581ZM60.0979 71.9581C60.3127 71.9581 60.5203 71.9435 60.7204 71.9142C60.9206 71.88 61.0793 71.8458 61.1965 71.8116V72.7418C61.0647 72.8053 60.8694 72.8566 60.6106 72.8956C60.3567 72.9396 60.1272 72.9615 59.9221 72.9615C58.3694 72.9615 57.593 72.1437 57.593 70.5079V65.7325H56.4431V65.1466L57.593 64.6412L58.1057 62.9274H58.8088V64.7877H61.1379V65.7325H58.8088V70.4567C58.8088 70.9401 58.9236 71.3112 59.1531 71.5699C59.3826 71.8287 59.6975 71.9581 60.0979 71.9581ZM64.3237 72.8151H63.1078V64.7877H64.3237V72.8151ZM63.0053 62.6124C63.0053 62.3341 63.0737 62.1315 63.2104 62.0045C63.3471 61.8727 63.518 61.8068 63.7231 61.8068C63.9184 61.8068 64.0869 61.8727 64.2285 62.0045C64.3701 62.1364 64.4409 62.339 64.4409 62.6124C64.4409 62.8859 64.3701 63.0909 64.2285 63.2277C64.0869 63.3595 63.9184 63.4254 63.7231 63.4254C63.518 63.4254 63.3471 63.3595 63.2104 63.2277C63.0737 63.0909 63.0053 62.8859 63.0053 62.6124ZM74.1305 68.7941C74.1305 70.1027 73.8009 71.1256 73.1417 71.8629C72.4826 72.5953 71.5719 72.9615 70.4098 72.9615C69.692 72.9615 69.0548 72.7931 68.4982 72.4562C67.9415 72.1193 67.5119 71.6359 67.2091 71.006C66.9064 70.3761 66.755 69.6388 66.755 68.7941C66.755 67.4855 67.0822 66.4674 67.7365 65.7399C68.3908 65.0074 69.299 64.6412 70.4611 64.6412C71.5841 64.6412 72.4752 65.0148 73.1344 65.7618C73.7985 66.5089 74.1305 67.5197 74.1305 68.7941ZM68.0148 68.7941C68.0148 69.8195 68.2199 70.6007 68.63 71.1378C69.0402 71.6749 69.6432 71.9435 70.4391 71.9435C71.235 71.9435 71.838 71.6774 72.2482 71.1451C72.6632 70.608 72.8707 69.8243 72.8707 68.7941C72.8707 67.7736 72.6632 66.9996 72.2482 66.4723C71.838 65.9401 71.2301 65.674 70.4245 65.674C69.6286 65.674 69.028 65.9352 68.6227 66.4576C68.2174 66.9801 68.0148 67.7589 68.0148 68.7941ZM82.0623 72.8151V67.6222C82.0623 66.9679 81.9134 66.4796 81.6156 66.1573C81.3177 65.8351 80.8514 65.674 80.2166 65.674C79.3768 65.674 78.7616 65.901 78.3709 66.3551C77.9803 66.8092 77.785 67.5587 77.785 68.6036V72.8151H76.5692V64.7877H77.5579L77.7557 65.8864H77.8143C78.0633 65.4908 78.4124 65.1857 78.8617 64.9708C79.3109 64.7511 79.8114 64.6412 80.3631 64.6412C81.3299 64.6412 82.0575 64.8756 82.5457 65.3444C83.034 65.8082 83.2782 66.5529 83.2782 67.5782V72.8151H82.0623Z" fill="white"/>
<rect x="118.108" y="29.8672" width="167.158" height="17.689" fill="#DC3812"/>
<path d="M10.812 38.4987C10.812 40.2125 10.3774 41.5602 9.50824 42.5416C8.64398 43.5231 7.44037 44.0138 5.8974 44.0138C4.32025 44.0138 3.10199 43.5328 2.24261 42.5709C1.38812 41.6041 0.960876 40.2418 0.960876 38.484C0.960876 36.7408 1.39056 35.3907 2.24994 34.4337C3.10931 33.4718 4.33002 32.9908 5.91205 32.9908C7.45013 32.9908 8.65131 33.4791 9.51556 34.4557C10.3798 35.4323 10.812 36.7799 10.812 38.4987ZM2.27924 38.4987C2.27924 39.9489 2.58685 41.0499 3.20209 41.8019C3.8222 42.549 4.72064 42.9225 5.8974 42.9225C7.08392 42.9225 7.97992 42.549 8.58539 41.8019C9.19086 41.0548 9.49359 39.9537 9.49359 38.4987C9.49359 37.0582 9.19086 35.9669 8.58539 35.2247C7.9848 34.4777 7.09369 34.1041 5.91205 34.1041C4.72552 34.1041 3.8222 34.4801 3.20209 35.2321C2.58685 35.9791 2.27924 37.068 2.27924 38.4987ZM16.986 35.6935C17.3424 35.6935 17.6622 35.7228 17.9454 35.7814L17.777 36.9093C17.445 36.8361 17.152 36.7994 16.8981 36.7994C16.2487 36.7994 15.692 37.0631 15.2282 37.5905C14.7692 38.1178 14.5397 38.7745 14.5397 39.5607V43.8673H13.3239V35.84H14.3273L14.4664 37.3268H14.525C14.8229 36.8043 15.1818 36.4015 15.6017 36.1183C16.0216 35.8351 16.483 35.6935 16.986 35.6935ZM26.3167 35.84V36.609L24.8299 36.7848C24.9666 36.9557 25.0887 37.1803 25.1961 37.4586C25.3036 37.7321 25.3573 38.0421 25.3573 38.3888C25.3573 39.1749 25.0887 39.8024 24.5516 40.2711C24.0145 40.7399 23.2772 40.9742 22.3397 40.9742C22.1004 40.9742 21.8758 40.9547 21.6659 40.9156C21.1483 41.1891 20.8895 41.5333 20.8895 41.9484C20.8895 42.1681 20.9798 42.3317 21.1605 42.4391C21.3412 42.5416 21.6512 42.5929 22.0907 42.5929H23.5116C24.3807 42.5929 25.0472 42.776 25.5111 43.1422C25.9798 43.5084 26.2142 44.0406 26.2142 44.7389C26.2142 45.6276 25.8578 46.3038 25.1449 46.7677C24.432 47.2365 23.3919 47.4708 22.0247 47.4708C20.9749 47.4708 20.1644 47.2755 19.5931 46.8849C19.0267 46.4943 18.7435 45.9425 18.7435 45.2296C18.7435 44.7413 18.8997 44.319 19.2122 43.9625C19.5247 43.6061 19.9642 43.3644 20.5306 43.2374C20.3255 43.1447 20.1522 43.0006 20.0106 42.8053C19.8739 42.61 19.8055 42.3829 19.8055 42.1241C19.8055 41.8312 19.8836 41.5748 20.0399 41.3551C20.1961 41.1354 20.4427 40.923 20.7796 40.7179C20.3646 40.547 20.0252 40.2565 19.7616 39.8463C19.5028 39.4362 19.3734 38.9674 19.3734 38.4401C19.3734 37.5612 19.637 36.8849 20.1644 36.4113C20.6917 35.9327 21.4388 35.6935 22.4056 35.6935C22.8255 35.6935 23.2039 35.7423 23.5409 35.84H26.3167ZM19.9154 45.215C19.9154 45.6495 20.0985 45.9791 20.4647 46.2037C20.8309 46.4283 21.3558 46.5406 22.0394 46.5406C23.0599 46.5406 23.8143 46.3868 24.3026 46.0792C24.7957 45.7765 25.0423 45.3639 25.0423 44.8414C25.0423 44.4069 24.908 44.1041 24.6395 43.9332C24.3709 43.7672 23.8656 43.6842 23.1234 43.6842H21.6659C21.1141 43.6842 20.6844 43.816 20.3768 44.0797C20.0692 44.3434 19.9154 44.7218 19.9154 45.215ZM20.5745 38.4108C20.5745 38.9723 20.7332 39.3971 21.0506 39.6852C21.368 39.9733 21.8099 40.1173 22.3763 40.1173C23.5628 40.1173 24.1561 39.5411 24.1561 38.3888C24.1561 37.1827 23.5555 36.5797 22.3543 36.5797C21.783 36.5797 21.3436 36.7335 21.036 37.0411C20.7284 37.3488 20.5745 37.8053 20.5745 38.4108ZM33.2012 43.8673L32.9595 42.7247H32.9009C32.5005 43.2277 32.1001 43.5695 31.6997 43.7501C31.3042 43.9259 30.8086 44.0138 30.2129 44.0138C29.417 44.0138 28.792 43.8087 28.3379 43.3986C27.8887 42.9884 27.6641 42.4049 27.6641 41.6481C27.6641 40.027 28.9605 39.1774 31.5533 39.0992L32.9156 39.0553V38.5573C32.9156 37.9274 32.7788 37.4635 32.5054 37.1656C32.2369 36.8629 31.8047 36.7115 31.209 36.7115C30.5401 36.7115 29.7832 36.9166 28.9385 37.3268L28.565 36.3966C28.9605 36.1818 29.3926 36.0133 29.8614 35.8912C30.335 35.7692 30.8086 35.7081 31.2823 35.7081C32.2393 35.7081 32.9473 35.9205 33.4063 36.3453C33.8702 36.7701 34.1021 37.4513 34.1021 38.3888V43.8673H33.2012ZM30.4546 43.0104C31.2115 43.0104 31.8047 42.8029 32.2344 42.3878C32.669 41.9728 32.8863 41.3917 32.8863 40.6447V39.9196L31.6704 39.9708C30.7037 40.005 30.0054 40.1564 29.5757 40.4249C29.1509 40.6886 28.9385 41.1012 28.9385 41.6627C28.9385 42.1022 29.0704 42.4366 29.334 42.6661C29.6026 42.8956 29.9761 43.0104 30.4546 43.0104ZM42.4075 43.8673V38.6744C42.4075 38.0201 42.2585 37.5319 41.9607 37.2096C41.6628 36.8873 41.1965 36.7262 40.5618 36.7262C39.7219 36.7262 39.1067 36.9532 38.7161 37.4073C38.3254 37.8615 38.1301 38.611 38.1301 39.6559V43.8673H36.9143V35.84H37.9031L38.1008 36.9386H38.1594C38.4084 36.5431 38.7576 36.2379 39.2068 36.0231C39.656 35.8033 40.1565 35.6935 40.7082 35.6935C41.675 35.6935 42.4026 35.9279 42.8909 36.3966C43.3791 36.8605 43.6233 37.6051 43.6233 38.6305V43.8673H42.4075ZM47.644 43.8673H46.4282V35.84H47.644V43.8673ZM46.3256 33.6647C46.3256 33.3864 46.394 33.1837 46.5307 33.0568C46.6674 32.9249 46.8383 32.859 47.0434 32.859C47.2387 32.859 47.4072 32.9249 47.5488 33.0568C47.6904 33.1886 47.7612 33.3912 47.7612 33.6647C47.7612 33.9381 47.6904 34.1432 47.5488 34.2799C47.4072 34.4117 47.2387 34.4777 47.0434 34.4777C46.8383 34.4777 46.6674 34.4117 46.5307 34.2799C46.394 34.1432 46.3256 33.9381 46.3256 33.6647ZM55.6564 43.8673H49.8336V43.0397L54.2135 36.7848H50.1046V35.84H55.5465V36.7848L51.2252 42.9225H55.6564V43.8673ZM62.7752 43.8673L62.5335 42.7247H62.4749C62.0746 43.2277 61.6742 43.5695 61.2738 43.7501C60.8783 43.9259 60.3827 44.0138 59.787 44.0138C58.9911 44.0138 58.3661 43.8087 57.912 43.3986C57.4627 42.9884 57.2381 42.4049 57.2381 41.6481C57.2381 40.027 58.5345 39.1774 61.1273 39.0992L62.4896 39.0553V38.5573C62.4896 37.9274 62.3529 37.4635 62.0794 37.1656C61.8109 36.8629 61.3787 36.7115 60.783 36.7115C60.1141 36.7115 59.3573 36.9166 58.5125 37.3268L58.139 36.3966C58.5345 36.1818 58.9666 36.0133 59.4354 35.8912C59.909 35.7692 60.3827 35.7081 60.8563 35.7081C61.8133 35.7081 62.5213 35.9205 62.9803 36.3453C63.4442 36.7701 63.6761 37.4513 63.6761 38.3888V43.8673H62.7752ZM60.0287 43.0104C60.7855 43.0104 61.3787 42.8029 61.8084 42.3878C62.243 41.9728 62.4603 41.3917 62.4603 40.6447V39.9196L61.2445 39.9708C60.2777 40.005 59.5794 40.1564 59.1497 40.4249C58.7249 40.6886 58.5125 41.1012 58.5125 41.6627C58.5125 42.1022 58.6444 42.4366 58.908 42.6661C59.1766 42.8956 59.5501 43.0104 60.0287 43.0104ZM69.0811 43.0104C69.2959 43.0104 69.5035 42.9957 69.7037 42.9664C69.9038 42.9323 70.0625 42.8981 70.1797 42.8639V43.7941C70.0479 43.8575 69.8526 43.9088 69.5938 43.9479C69.3399 43.9918 69.1104 44.0138 68.9053 44.0138C67.3526 44.0138 66.5762 43.1959 66.5762 41.5602V36.7848H65.4263V36.1989L66.5762 35.6935L67.0889 33.9796H67.792V35.84H70.1211V36.7848H67.792V41.5089C67.792 41.9923 67.9068 42.3634 68.1363 42.6222C68.3658 42.881 68.6807 43.0104 69.0811 43.0104ZM73.3069 43.8673H72.0911V35.84H73.3069V43.8673ZM71.9885 33.6647C71.9885 33.3864 72.0569 33.1837 72.1936 33.0568C72.3303 32.9249 72.5012 32.859 72.7063 32.859C72.9016 32.859 73.0701 32.9249 73.2117 33.0568C73.3533 33.1886 73.4241 33.3912 73.4241 33.6647C73.4241 33.9381 73.3533 34.1432 73.2117 34.2799C73.0701 34.4117 72.9016 34.4777 72.7063 34.4777C72.5012 34.4777 72.3303 34.4117 72.1936 34.2799C72.0569 34.1432 71.9885 33.9381 71.9885 33.6647ZM83.1137 39.8463C83.1137 41.1549 82.7841 42.1779 82.1249 42.9152C81.4658 43.6476 80.5551 44.0138 79.393 44.0138C78.6752 44.0138 78.038 43.8453 77.4814 43.5084C76.9247 43.1715 76.4951 42.6881 76.1923 42.0582C75.8896 41.4283 75.7382 40.691 75.7382 39.8463C75.7382 38.5377 76.0654 37.5197 76.7197 36.7921C77.374 36.0597 78.2822 35.6935 79.4443 35.6935C80.5673 35.6935 81.4584 36.067 82.1176 36.8141C82.7817 37.5612 83.1137 38.5719 83.1137 39.8463ZM76.998 39.8463C76.998 40.8717 77.2031 41.653 77.6132 42.1901C78.0234 42.7272 78.6264 42.9957 79.4223 42.9957C80.2182 42.9957 80.8212 42.7296 81.2314 42.1974C81.6464 41.6603 81.8539 40.8766 81.8539 39.8463C81.8539 38.8258 81.6464 38.0519 81.2314 37.5245C80.8212 36.9923 80.2133 36.7262 79.4077 36.7262C78.6118 36.7262 78.0112 36.9874 77.6059 37.5099C77.2006 38.0323 76.998 38.8112 76.998 39.8463ZM91.0455 43.8673V38.6744C91.0455 38.0201 90.8966 37.5319 90.5988 37.2096C90.3009 36.8873 89.8346 36.7262 89.1998 36.7262C88.36 36.7262 87.7448 36.9532 87.3541 37.4073C86.9635 37.8615 86.7682 38.611 86.7682 39.6559V43.8673H85.5524V35.84H86.5412L86.7389 36.9386H86.7975C87.0465 36.5431 87.3956 36.2379 87.8449 36.0231C88.2941 35.8033 88.7946 35.6935 89.3463 35.6935C90.3131 35.6935 91.0407 35.9279 91.5289 36.3966C92.0172 36.8605 92.2614 37.6051 92.2614 38.6305V43.8673H91.0455Z" fill="white"/>
<rect x="118.108" y="0.919678" width="140.611" height="17.689" fill="#FE9900"/>
<path d="M28.7505 15.8846H27.5201L25.3594 8.71423C25.2569 8.39685 25.1422 7.99646 25.0152 7.51306C24.8882 7.02966 24.8223 6.73914 24.8174 6.64148C24.71 7.28601 24.5391 7.99158 24.3047 8.75818L22.21 15.8846H20.9796L18.1304 5.17664H19.4488L21.1407 11.7904C21.3751 12.7181 21.546 13.558 21.6534 14.3099C21.7852 13.4164 21.9805 12.5424 22.2393 11.6879L24.1583 5.17664H25.4766L27.4908 11.7465C27.7252 12.5033 27.9229 13.3578 28.084 14.3099C28.1768 13.6166 28.3526 12.7719 28.6114 11.7758L30.296 5.17664H31.6143L28.7505 15.8846ZM36.7996 16.0311C35.613 16.0311 34.6755 15.6698 33.9871 14.9471C33.3035 14.2245 32.9617 13.2211 32.9617 11.9369C32.9617 10.6429 33.2791 9.61511 33.9138 8.85339C34.5535 8.09167 35.4104 7.71082 36.4846 7.71082C37.4905 7.71082 38.2864 8.04285 38.8723 8.70691C39.4583 9.36609 39.7512 10.2377 39.7512 11.3217V12.0907H34.2214C34.2459 13.0331 34.4827 13.7484 34.9319 14.2367C35.386 14.725 36.0232 14.9691 36.8435 14.9691C37.7078 14.9691 38.5623 14.7885 39.407 14.4271V15.5111C38.9773 15.6967 38.5696 15.8285 38.1839 15.9066C37.803 15.9896 37.3416 16.0311 36.7996 16.0311ZM36.47 8.72888C35.8255 8.72888 35.3103 8.93884 34.9246 9.35876C34.5437 9.77869 34.3191 10.3597 34.2507 11.1019H38.4475C38.4475 10.3353 38.2766 9.74939 37.9348 9.34412C37.593 8.93396 37.1047 8.72888 36.47 8.72888ZM45.8667 7.72546C46.9214 7.72546 47.7392 8.08679 48.3203 8.80945C48.9062 9.52722 49.1992 10.5453 49.1992 11.8636C49.1992 13.182 48.9038 14.2074 48.313 14.9398C47.727 15.6674 46.9116 16.0311 45.8667 16.0311C45.3442 16.0311 44.8657 15.9359 44.4311 15.7455C44.0014 15.5502 43.6401 15.2523 43.3471 14.8519H43.2592L43.0029 15.8846H42.1313V4.48816H43.3471V7.25671C43.3471 7.87683 43.3276 8.43347 43.2885 8.92664H43.3471C43.9135 8.12585 44.7534 7.72546 45.8667 7.72546ZM45.6909 8.74353C44.8608 8.74353 44.2627 8.98279 43.8964 9.4613C43.5302 9.93494 43.3471 10.7357 43.3471 11.8636C43.3471 12.9916 43.5351 13.7997 43.9111 14.288C44.2871 14.7714 44.8901 15.0131 45.7202 15.0131C46.4672 15.0131 47.0239 14.7421 47.3901 14.2001C47.7563 13.6532 47.9394 12.8695 47.9394 11.849C47.9394 10.8041 47.7563 10.0253 47.3901 9.51257C47.0239 8.99988 46.4575 8.74353 45.6909 8.74353ZM62.0526 13.0355C62.0526 13.9779 61.7108 14.7128 61.0272 15.2401C60.3436 15.7675 59.4159 16.0311 58.244 16.0311C56.9745 16.0311 55.9979 15.8676 55.3143 15.5404V14.3392C55.7538 14.5248 56.2323 14.6713 56.7499 14.7787C57.2674 14.8861 57.7801 14.9398 58.288 14.9398C59.118 14.9398 59.743 14.7836 60.163 14.4711C60.5829 14.1537 60.7928 13.7142 60.7928 13.1527C60.7928 12.7816 60.7172 12.4789 60.5658 12.2445C60.4193 12.0052 60.1703 11.7855 59.8187 11.5853C59.472 11.3851 58.9422 11.1581 58.2294 10.9042C57.2333 10.5477 56.5204 10.1254 56.0907 9.63708C55.6659 9.1488 55.4535 8.5116 55.4535 7.72546C55.4535 6.90027 55.7635 6.24353 56.3837 5.75525C57.0038 5.26697 57.8241 5.02283 58.8446 5.02283C59.909 5.02283 60.8881 5.21814 61.7816 5.60876L61.3934 6.69275C60.5096 6.32166 59.6503 6.13611 58.8153 6.13611C58.1561 6.13611 57.641 6.27771 57.2699 6.56091C56.8988 6.84412 56.7132 7.23718 56.7132 7.74011C56.7132 8.11121 56.7816 8.41638 56.9183 8.65564C57.055 8.89001 57.2845 9.1073 57.6068 9.3075C57.9339 9.50281 58.432 9.72009 59.1009 9.95935C60.224 10.3597 60.9955 10.7894 61.4154 11.2484C61.8402 11.7074 62.0526 12.3031 62.0526 13.0355ZM69.296 15.8846L69.0543 14.7421H68.9957C68.5953 15.245 68.1949 15.5868 67.7945 15.7675C67.399 15.9432 66.9034 16.0311 66.3077 16.0311C65.5118 16.0311 64.8868 15.826 64.4327 15.4159C63.9835 15.0057 63.7589 14.4222 63.7589 13.6654C63.7589 12.0443 65.0552 11.1947 67.648 11.1166L69.0103 11.0726V10.5746C69.0103 9.9447 68.8736 9.48083 68.6002 9.18298C68.3316 8.88025 67.8995 8.72888 67.3038 8.72888C66.6348 8.72888 65.878 8.93396 65.0333 9.34412L64.6597 8.41394C65.0552 8.1991 65.4874 8.03064 65.9561 7.90857C66.4297 7.7865 66.9034 7.72546 67.377 7.72546C68.334 7.72546 69.0421 7.93787 69.501 8.36267C69.9649 8.78748 70.1968 9.46863 70.1968 10.4061V15.8846H69.296ZM66.5494 15.0277C67.3062 15.0277 67.8995 14.8202 68.3292 14.4052C68.7637 13.9901 68.981 13.4091 68.981 12.662V11.9369L67.7652 11.9882C66.7984 12.0223 66.1002 12.1737 65.6705 12.4423C65.2457 12.7059 65.0333 13.1185 65.0333 13.6801C65.0333 14.1195 65.1651 14.454 65.4288 14.6835C65.6973 14.913 66.0709 15.0277 66.5494 15.0277ZM74.7669 15.8846L71.72 7.8573H73.0237L74.7522 12.618C75.1428 13.7313 75.3723 14.454 75.4407 14.786H75.4993C75.553 14.5272 75.7215 13.9926 76.0047 13.182C76.2927 12.3666 76.9348 10.5917 77.9309 7.8573H79.2346L76.1878 15.8846H74.7669ZM82.0395 15.8846H80.8237V7.8573H82.0395V15.8846ZM80.7212 5.68201C80.7212 5.40369 80.7895 5.20105 80.9262 5.0741C81.063 4.94226 81.2339 4.87634 81.4389 4.87634C81.6342 4.87634 81.8027 4.94226 81.9443 5.0741C82.0859 5.20593 82.1567 5.40857 82.1567 5.68201C82.1567 5.95544 82.0859 6.16052 81.9443 6.29724C81.8027 6.42908 81.6342 6.495 81.4389 6.495C81.2339 6.495 81.063 6.42908 80.9262 6.29724C80.7895 6.16052 80.7212 5.95544 80.7212 5.68201ZM90.4108 15.8846V10.6918C90.4108 10.0375 90.2619 9.54919 89.964 9.22693C89.6662 8.90466 89.1999 8.74353 88.5651 8.74353C87.7253 8.74353 87.11 8.97058 86.7194 9.42468C86.3288 9.87878 86.1335 10.6283 86.1335 11.6732V15.8846H84.9176V7.8573H85.9064L86.1042 8.95593H86.1628C86.4118 8.56042 86.7609 8.25525 87.2101 8.04041C87.6593 7.82068 88.1598 7.71082 88.7116 7.71082C89.6784 7.71082 90.4059 7.94519 90.8942 8.41394C91.3825 8.87781 91.6266 9.62244 91.6266 10.6478V15.8846H90.4108ZM101.001 7.8573V8.62634L99.5145 8.80212C99.6512 8.97302 99.7733 9.19763 99.8807 9.47595C99.9882 9.74939 100.042 10.0594 100.042 10.4061C100.042 11.1923 99.7733 11.8197 99.2362 12.2885C98.6991 12.7572 97.9618 12.9916 97.0243 12.9916C96.785 12.9916 96.5604 12.972 96.3505 12.933C95.8329 13.2064 95.5741 13.5507 95.5741 13.9657C95.5741 14.1854 95.6644 14.349 95.8451 14.4564C96.0257 14.559 96.3358 14.6102 96.7753 14.6102H98.1962C99.0653 14.6102 99.7318 14.7933 100.196 15.1595C100.664 15.5258 100.899 16.058 100.899 16.7562C100.899 17.6449 100.542 18.3212 99.8295 18.785C99.1166 19.2538 98.0765 19.4882 96.7093 19.4882C95.6595 19.4882 94.849 19.2928 94.2777 18.9022C93.7113 18.5116 93.4281 17.9598 93.4281 17.2469C93.4281 16.7587 93.5843 16.3363 93.8968 15.9799C94.2093 15.6234 94.6488 15.3817 95.2152 15.2548C95.0101 15.162 94.8368 15.0179 94.6952 14.8226C94.5585 14.6273 94.4901 14.4003 94.4901 14.1415C94.4901 13.8485 94.5682 13.5922 94.7245 13.3724C94.8807 13.1527 95.1273 12.9403 95.4642 12.7352C95.0492 12.5643 94.7098 12.2738 94.4462 11.8636C94.1874 11.4535 94.058 10.9847 94.058 10.4574C94.058 9.57849 94.3216 8.90222 94.849 8.42859C95.3763 7.95007 96.1234 7.71082 97.0902 7.71082C97.5101 7.71082 97.8885 7.75964 98.2255 7.8573H101.001ZM94.6 17.2323C94.6 17.6669 94.7831 17.9965 95.1493 18.2211C95.5155 18.4457 96.0404 18.558 96.724 18.558C97.7445 18.558 98.4989 18.4042 98.9872 18.0966C99.4803 17.7938 99.7269 17.3812 99.7269 16.8588C99.7269 16.4242 99.5926 16.1215 99.3241 15.9506C99.0555 15.7845 98.5502 15.7015 97.808 15.7015H96.3505C95.7987 15.7015 95.369 15.8334 95.0614 16.097C94.7538 16.3607 94.6 16.7391 94.6 17.2323ZM95.2591 10.4281C95.2591 10.9896 95.4178 11.4144 95.7352 11.7025C96.0526 11.9906 96.4945 12.1346 97.0609 12.1346C98.2474 12.1346 98.8407 11.5585 98.8407 10.4061C98.8407 9.20007 98.2401 8.59705 97.0389 8.59705C96.4676 8.59705 96.0282 8.75085 95.7206 9.05847C95.413 9.36609 95.2591 9.82263 95.2591 10.4281Z" fill="white"/>
</svg>
