<svg width="162" height="134" viewBox="0 0 162 134" fill="none" xmlns="http://www.w3.org/2000/svg">
<ellipse cx="6.86219" cy="126.936" rx="6.70502" ry="6.58386" fill="#109619"/>
<path d="M25.0204 131.798L23.954 129.074H20.5204L19.4657 131.798H18.4579L21.8446 123.197H22.6825L26.0517 131.798H25.0204ZM23.6435 128.177L22.6474 125.523C22.5185 125.187 22.3857 124.775 22.2489 124.287C22.163 124.662 22.0399 125.074 21.8798 125.523L20.872 128.177H23.6435ZM28.2956 131.798H27.3229V122.681H28.2956V131.798ZM31.5707 131.798H30.5981V122.681H31.5707V131.798ZM42.7734 128.582C42.7734 129.628 42.5097 130.447 41.9824 131.037C41.455 131.623 40.7265 131.916 39.7968 131.916C39.2226 131.916 38.7128 131.781 38.2675 131.511C37.8222 131.242 37.4785 130.855 37.2363 130.351C36.9941 129.847 36.873 129.257 36.873 128.582C36.873 127.535 37.1347 126.72 37.6581 126.138C38.1816 125.552 38.9081 125.259 39.8378 125.259C40.7363 125.259 41.4492 125.558 41.9765 126.156C42.5078 126.753 42.7734 127.562 42.7734 128.582ZM37.8808 128.582C37.8808 129.402 38.0449 130.027 38.373 130.457C38.7011 130.886 39.1835 131.101 39.8203 131.101C40.457 131.101 40.9394 130.888 41.2675 130.462C41.5996 130.033 41.7656 129.406 41.7656 128.582C41.7656 127.765 41.5996 127.146 41.2675 126.724C40.9394 126.298 40.4531 126.085 39.8085 126.085C39.1718 126.085 38.6914 126.294 38.3671 126.712C38.0429 127.13 37.8808 127.753 37.8808 128.582ZM47.6189 126.132H45.9841V131.798H45.0114V126.132H43.863V125.693L45.0114 125.341V124.984C45.0114 123.406 45.7009 122.617 47.0798 122.617C47.4196 122.617 47.8181 122.685 48.2751 122.822L48.0231 123.601C47.6481 123.48 47.3278 123.419 47.0622 123.419C46.695 123.419 46.4235 123.542 46.2478 123.789C46.072 124.031 45.9841 124.421 45.9841 124.96V125.376H47.6189V126.132ZM54.4621 131.113C54.634 131.113 54.8 131.101 54.9602 131.078C55.1203 131.05 55.2473 131.023 55.341 130.996V131.74C55.2356 131.791 55.0793 131.832 54.8723 131.863C54.6692 131.898 54.4856 131.916 54.3215 131.916C53.0793 131.916 52.4582 131.261 52.4582 129.953V126.132H51.5383V125.664L52.4582 125.259L52.8684 123.888H53.4309V125.376H55.2942V126.132H53.4309V129.912C53.4309 130.298 53.5227 130.595 53.7063 130.802C53.8899 131.009 54.1418 131.113 54.4621 131.113ZM61.2646 131.798V127.644C61.2646 127.121 61.1455 126.73 60.9072 126.472C60.6689 126.214 60.2959 126.085 59.7881 126.085C59.1123 126.085 58.6181 126.269 58.3056 126.636C57.9971 127.003 57.8428 127.605 57.8428 128.441V131.798H56.8701V122.681H57.8428V125.441C57.8428 125.773 57.8271 126.048 57.7959 126.267H57.8545C58.0459 125.958 58.3174 125.716 58.6689 125.541C59.0244 125.361 59.4287 125.271 59.8818 125.271C60.667 125.271 61.2549 125.458 61.6455 125.833C62.04 126.205 62.2373 126.796 62.2373 127.609V131.798H61.2646ZM67.1941 131.916C66.2449 131.916 65.4949 131.626 64.9441 131.048C64.3972 130.47 64.1238 129.667 64.1238 128.64C64.1238 127.605 64.3777 126.783 64.8855 126.173C65.3972 125.564 66.0828 125.259 66.9421 125.259C67.7468 125.259 68.3835 125.525 68.8523 126.056C69.321 126.583 69.5554 127.281 69.5554 128.148V128.763H65.1316C65.1511 129.517 65.3406 130.089 65.6999 130.48C66.0632 130.871 66.573 131.066 67.2292 131.066C67.9207 131.066 68.6042 130.921 69.28 130.632V131.5C68.9363 131.648 68.6101 131.753 68.3015 131.816C67.9968 131.882 67.6277 131.916 67.1941 131.916ZM66.9304 126.074C66.4148 126.074 66.0027 126.242 65.6941 126.578C65.3894 126.914 65.2097 127.378 65.155 127.972H68.5124C68.5124 127.359 68.3757 126.89 68.1023 126.566C67.8289 126.238 67.4382 126.074 66.9304 126.074ZM80.3479 131.798L79.2815 129.074H75.8479L74.7932 131.798H73.7854L77.1721 123.197H78.01L81.3792 131.798H80.3479ZM78.971 128.177L77.9749 125.523C77.846 125.187 77.7132 124.775 77.5764 124.287C77.4905 124.662 77.3674 125.074 77.2073 125.523L76.1995 128.177H78.971ZM85.6387 125.271C86.4824 125.271 87.1367 125.56 87.6016 126.138C88.0703 126.712 88.3047 127.527 88.3047 128.582C88.3047 129.636 88.0684 130.457 87.5957 131.042C87.127 131.625 86.4746 131.916 85.6387 131.916C85.2207 131.916 84.8379 131.839 84.4903 131.687C84.1465 131.531 83.8574 131.292 83.6231 130.972H83.5528L83.3477 131.798H82.6504V122.681H83.6231V124.896C83.6231 125.392 83.6074 125.837 83.5762 126.232H83.6231C84.0762 125.591 84.7481 125.271 85.6387 125.271ZM85.4981 126.085C84.834 126.085 84.3555 126.277 84.0625 126.66C83.7696 127.039 83.6231 127.679 83.6231 128.582C83.6231 129.484 83.7735 130.13 84.0742 130.521C84.375 130.908 84.8574 131.101 85.5215 131.101C86.1192 131.101 86.5645 130.884 86.8574 130.451C87.1504 130.013 87.2969 129.386 87.2969 128.57C87.2969 127.734 87.1504 127.111 86.8574 126.701C86.5645 126.291 86.1114 126.085 85.4981 126.085ZM95.7928 128.582C95.7928 129.628 95.5291 130.447 95.0017 131.037C94.4744 131.623 93.7459 131.916 92.8162 131.916C92.242 131.916 91.7322 131.781 91.2869 131.511C90.8416 131.242 90.4978 130.855 90.2556 130.351C90.0135 129.847 89.8924 129.257 89.8924 128.582C89.8924 127.535 90.1541 126.72 90.6775 126.138C91.201 125.552 91.9275 125.259 92.8572 125.259C93.7556 125.259 94.4685 125.558 94.9959 126.156C95.5271 126.753 95.7928 127.562 95.7928 128.582ZM90.9002 128.582C90.9002 129.402 91.0642 130.027 91.3924 130.457C91.7205 130.886 92.2029 131.101 92.8396 131.101C93.4763 131.101 93.9588 130.888 94.2869 130.462C94.6189 130.033 94.7849 129.406 94.7849 128.582C94.7849 127.765 94.6189 127.146 94.2869 126.724C93.9588 126.298 93.4724 126.085 92.8279 126.085C92.1912 126.085 91.7107 126.294 91.3865 126.712C91.0623 127.13 90.9002 127.753 90.9002 128.582ZM99.1499 131.798L96.7124 125.376H97.7554L99.1382 129.185C99.4507 130.076 99.6343 130.654 99.689 130.919H99.7359C99.7789 130.712 99.9136 130.285 100.14 129.636C100.371 128.984 100.884 127.564 101.681 125.376H102.724L100.287 131.798H99.1499ZM106.708 131.916C105.759 131.916 105.009 131.626 104.458 131.048C103.911 130.47 103.638 129.667 103.638 128.64C103.638 127.605 103.892 126.783 104.4 126.173C104.911 125.564 105.597 125.259 106.456 125.259C107.261 125.259 107.898 125.525 108.367 126.056C108.835 126.583 109.07 127.281 109.07 128.148V128.763H104.646C104.665 129.517 104.855 130.089 105.214 130.48C105.577 130.871 106.087 131.066 106.743 131.066C107.435 131.066 108.118 130.921 108.794 130.632V131.5C108.45 131.648 108.124 131.753 107.816 131.816C107.511 131.882 107.142 131.916 106.708 131.916ZM106.445 126.074C105.929 126.074 105.517 126.242 105.208 126.578C104.904 126.914 104.724 127.378 104.669 127.972H108.027C108.027 127.359 107.89 126.89 107.617 126.566C107.343 126.238 106.952 126.074 106.445 126.074Z" fill="white"/>
<ellipse cx="6.86219" cy="102.685" rx="6.70502" ry="6.58386" fill="#990099"/>
<path d="M23.4032 103.058H26.3153V107.224C25.8622 107.369 25.4013 107.478 24.9325 107.552C24.4638 107.627 23.9208 107.664 23.3036 107.664C22.0067 107.664 20.997 107.279 20.2743 106.51C19.5517 105.736 19.1903 104.654 19.1903 103.263C19.1903 102.373 19.3681 101.594 19.7235 100.926C20.0829 100.254 20.5985 99.7419 21.2704 99.3904C21.9423 99.0349 22.7294 98.8572 23.6317 98.8572C24.5458 98.8572 25.3974 99.0251 26.1864 99.3611L25.7997 100.24C25.0263 99.9119 24.2821 99.7478 23.5673 99.7478C22.5243 99.7478 21.7099 100.058 21.1239 100.679C20.538 101.301 20.245 102.162 20.245 103.263C20.245 104.42 20.5263 105.297 21.0888 105.894C21.6552 106.492 22.4853 106.791 23.579 106.791C24.1728 106.791 24.7528 106.722 25.3192 106.586V103.949H23.4032V103.058ZM34.0143 104.33C34.0143 105.377 33.7507 106.195 33.2233 106.785C32.696 107.371 31.9674 107.664 31.0378 107.664C30.4635 107.664 29.9538 107.529 29.5085 107.26C29.0632 106.99 28.7194 106.603 28.4772 106.099C28.235 105.595 28.1139 105.006 28.1139 104.33C28.1139 103.283 28.3757 102.469 28.8991 101.886C29.4225 101.301 30.1491 101.008 31.0788 101.008C31.9772 101.008 32.6901 101.306 33.2174 101.904C33.7487 102.502 34.0143 103.31 34.0143 104.33ZM29.1217 104.33C29.1217 105.15 29.2858 105.775 29.6139 106.205C29.9421 106.635 30.4245 106.849 31.0612 106.849C31.6979 106.849 32.1803 106.636 32.5085 106.211C32.8405 105.781 33.0065 105.154 33.0065 104.33C33.0065 103.513 32.8405 102.894 32.5085 102.472C32.1803 102.047 31.694 101.834 31.0495 101.834C30.4128 101.834 29.9323 102.043 29.6081 102.461C29.2839 102.879 29.1217 103.502 29.1217 104.33ZM41.5082 104.33C41.5082 105.377 41.2446 106.195 40.7172 106.785C40.1899 107.371 39.4614 107.664 38.5317 107.664C37.9574 107.664 37.4477 107.529 37.0024 107.26C36.5571 106.99 36.2133 106.603 35.9711 106.099C35.7289 105.595 35.6078 105.006 35.6078 104.33C35.6078 103.283 35.8696 102.469 36.393 101.886C36.9164 101.301 37.643 101.008 38.5727 101.008C39.4711 101.008 40.184 101.306 40.7114 101.904C41.2426 102.502 41.5082 103.31 41.5082 104.33ZM36.6157 104.33C36.6157 105.15 36.7797 105.775 37.1078 106.205C37.436 106.635 37.9184 106.849 38.5551 106.849C39.1918 106.849 39.6742 106.636 40.0024 106.211C40.3344 105.781 40.5004 105.154 40.5004 104.33C40.5004 103.513 40.3344 102.894 40.0024 102.472C39.6742 102.047 39.1879 101.834 38.5434 101.834C37.9067 101.834 37.4262 102.043 37.102 102.461C36.7778 102.879 36.6157 103.502 36.6157 104.33ZM48.715 101.125V101.74L47.5256 101.881C47.6349 102.017 47.7326 102.197 47.8185 102.42C47.9045 102.638 47.9474 102.886 47.9474 103.164C47.9474 103.793 47.7326 104.295 47.3029 104.67C46.8732 105.045 46.2834 105.232 45.5334 105.232C45.342 105.232 45.1623 105.217 44.9943 105.185C44.5803 105.404 44.3732 105.679 44.3732 106.011C44.3732 106.187 44.4455 106.318 44.59 106.404C44.7346 106.486 44.9826 106.527 45.3342 106.527H46.4709C47.1662 106.527 47.6994 106.674 48.0705 106.967C48.4455 107.26 48.633 107.685 48.633 108.244C48.633 108.955 48.3478 109.496 47.7775 109.867C47.2072 110.242 46.3752 110.429 45.2814 110.429C44.4416 110.429 43.7931 110.273 43.3361 109.961C42.883 109.648 42.6564 109.207 42.6564 108.636C42.6564 108.246 42.7814 107.908 43.0314 107.623C43.2814 107.338 43.633 107.144 44.0861 107.043C43.9221 106.969 43.7834 106.853 43.6701 106.697C43.5607 106.541 43.506 106.359 43.506 106.152C43.506 105.918 43.5685 105.713 43.6935 105.537C43.8185 105.361 44.0158 105.191 44.2853 105.027C43.9533 104.89 43.6818 104.658 43.4709 104.33C43.2639 104.002 43.1603 103.627 43.1603 103.205C43.1603 102.502 43.3713 101.961 43.7931 101.582C44.215 101.199 44.8127 101.008 45.5861 101.008C45.9221 101.008 46.2248 101.047 46.4943 101.125H48.715ZM43.5939 108.625C43.5939 108.972 43.7404 109.236 44.0334 109.416C44.3264 109.595 44.7463 109.685 45.2931 109.685C46.1096 109.685 46.7131 109.562 47.1037 109.316C47.4982 109.074 47.6955 108.744 47.6955 108.326C47.6955 107.978 47.5881 107.736 47.3732 107.599C47.1584 107.467 46.7541 107.4 46.1603 107.4H44.9943C44.5529 107.4 44.2092 107.506 43.9631 107.717C43.717 107.927 43.5939 108.23 43.5939 108.625ZM44.1213 103.181C44.1213 103.631 44.2482 103.97 44.5021 104.201C44.756 104.431 45.1096 104.547 45.5627 104.547C46.5119 104.547 46.9865 104.086 46.9865 103.164C46.9865 102.199 46.506 101.717 45.5451 101.717C45.0881 101.717 44.7365 101.84 44.4904 102.086C44.2443 102.332 44.1213 102.697 44.1213 103.181ZM51.246 107.547H50.2734V98.4294H51.246V107.547ZM56.2614 107.664C55.3122 107.664 54.5622 107.375 54.0114 106.797C53.4646 106.219 53.1911 105.416 53.1911 104.388C53.1911 103.353 53.445 102.531 53.9528 101.922C54.4646 101.312 55.1501 101.008 56.0095 101.008C56.8142 101.008 57.4509 101.273 57.9196 101.804C58.3884 102.332 58.6228 103.029 58.6228 103.896V104.511H54.1989C54.2185 105.265 54.4079 105.838 54.7673 106.228C55.1306 106.619 55.6403 106.814 56.2966 106.814C56.988 106.814 57.6716 106.67 58.3474 106.381V107.248C58.0036 107.396 57.6774 107.502 57.3689 107.564C57.0642 107.631 56.695 107.664 56.2614 107.664ZM55.9978 101.822C55.4821 101.822 55.07 101.99 54.7614 102.326C54.4567 102.662 54.2771 103.127 54.2224 103.72H57.5798C57.5798 103.107 57.4431 102.638 57.1696 102.314C56.8962 101.986 56.5056 101.822 55.9978 101.822ZM70.8684 103.181C70.8684 104.595 70.4836 105.677 69.7141 106.427C68.9485 107.174 67.8449 107.547 66.4035 107.547H64.0305V98.9802H66.6555C67.9875 98.9802 69.0227 99.3494 69.761 100.088C70.4992 100.826 70.8684 101.857 70.8684 103.181ZM69.8137 103.217C69.8137 102.099 69.5324 101.258 68.9699 100.691C68.4114 100.125 67.5793 99.8416 66.4739 99.8416H65.0266V106.685H66.2395C67.427 106.685 68.3196 106.394 68.9172 105.812C69.5149 105.226 69.8137 104.361 69.8137 103.217ZM75.8076 101.008C76.0928 101.008 76.3486 101.031 76.5752 101.078L76.4404 101.98C76.1748 101.922 75.9404 101.892 75.7373 101.892C75.2178 101.892 74.7724 102.103 74.4014 102.525C74.0342 102.947 73.8506 103.472 73.8506 104.101V107.547H72.8779V101.125H73.6806L73.792 102.314H73.8389C74.0771 101.896 74.3642 101.574 74.7002 101.347C75.0361 101.121 75.4053 101.008 75.8076 101.008ZM78.989 107.547H78.0164V101.125H78.989V107.547ZM77.9343 99.3845C77.9343 99.1619 77.989 98.9998 78.0984 98.8982C78.2078 98.7927 78.3445 98.74 78.5085 98.74C78.6648 98.74 78.7996 98.7927 78.9128 98.8982C79.0261 99.0037 79.0828 99.1658 79.0828 99.3845C79.0828 99.6033 79.0261 99.7673 78.9128 99.8767C78.7996 99.9822 78.6648 100.035 78.5085 100.035C78.3445 100.035 78.2078 99.9822 78.0984 99.8767C77.989 99.7673 77.9343 99.6033 77.9343 99.3845ZM82.6978 107.547L80.2603 101.125H81.3032L82.686 104.933C82.9985 105.824 83.1821 106.402 83.2368 106.668H83.2837C83.3267 106.461 83.4614 106.033 83.688 105.385C83.9185 104.732 84.4321 103.312 85.229 101.125H86.272L83.8345 107.547H82.6978ZM90.2561 107.664C89.3069 107.664 88.5569 107.375 88.0061 106.797C87.4592 106.219 87.1858 105.416 87.1858 104.388C87.1858 103.353 87.4397 102.531 87.9475 101.922C88.4592 101.312 89.1448 101.008 90.0042 101.008C90.8089 101.008 91.4456 101.273 91.9143 101.804C92.3831 102.332 92.6174 103.029 92.6174 103.896V104.511H88.1936C88.2132 105.265 88.4026 105.838 88.762 106.228C89.1253 106.619 89.635 106.814 90.2913 106.814C90.9827 106.814 91.6663 106.67 92.3421 106.381V107.248C91.9983 107.396 91.6721 107.502 91.3635 107.564C91.0589 107.631 90.6897 107.664 90.2561 107.664ZM89.9924 101.822C89.4768 101.822 89.0647 101.99 88.7561 102.326C88.4514 102.662 88.2717 103.127 88.2171 103.72H91.5745C91.5745 103.107 91.4378 102.638 91.1643 102.314C90.8909 101.986 90.5003 101.822 89.9924 101.822ZM99.2732 100.685C99.2732 100.955 99.3435 101.213 99.4842 101.459C99.6248 101.701 99.865 101.994 100.205 102.338C100.709 102.045 101.058 101.775 101.254 101.529C101.453 101.279 101.553 100.992 101.553 100.668C101.553 100.367 101.451 100.123 101.248 99.9353C101.049 99.7439 100.781 99.6482 100.445 99.6482C100.097 99.6482 99.8142 99.7419 99.5955 99.9294C99.3806 100.117 99.2732 100.369 99.2732 100.685ZM100.181 106.791C101.123 106.791 101.904 106.49 102.525 105.888L99.9646 103.404C99.531 103.67 99.2244 103.89 99.0447 104.066C98.865 104.238 98.7322 104.424 98.6463 104.623C98.5603 104.822 98.5174 105.049 98.5174 105.302C98.5174 105.76 98.6678 106.123 98.9685 106.392C99.2732 106.658 99.6775 106.791 100.181 106.791ZM97.5096 105.326C97.5096 104.818 97.6443 104.369 97.9138 103.978C98.1873 103.588 98.6756 103.193 99.3787 102.795C99.0467 102.424 98.8201 102.142 98.699 101.951C98.5818 101.76 98.4881 101.56 98.4178 101.353C98.3474 101.146 98.3123 100.931 98.3123 100.709C98.3123 100.123 98.5037 99.6658 98.8865 99.3376C99.2693 99.0095 99.8025 98.8455 100.486 98.8455C101.119 98.8455 101.617 99.0095 101.98 99.3376C102.344 99.6619 102.525 100.115 102.525 100.697C102.525 101.115 102.392 101.502 102.127 101.857C101.861 102.209 101.422 102.566 100.808 102.929L103.193 105.22C103.412 104.978 103.586 104.695 103.715 104.371C103.847 104.043 103.959 103.685 104.049 103.299H105.033C104.767 104.416 104.367 105.263 103.832 105.842L105.584 107.547H104.242L103.158 106.504C102.697 106.918 102.228 107.215 101.752 107.394C101.275 107.574 100.744 107.664 100.158 107.664C99.3181 107.664 98.6658 107.457 98.201 107.043C97.74 106.629 97.5096 106.056 97.5096 105.326ZM117.226 103.181C117.226 104.595 116.841 105.677 116.072 106.427C115.306 107.174 114.202 107.547 112.761 107.547H110.388V98.9802H113.013C114.345 98.9802 115.38 99.3494 116.118 100.088C116.857 100.826 117.226 101.857 117.226 103.181ZM116.171 103.217C116.171 102.099 115.89 101.258 115.327 100.691C114.769 100.125 113.937 99.8416 112.831 99.8416H111.384V106.685H112.597C113.784 106.685 114.677 106.394 115.275 105.812C115.872 105.226 116.171 104.361 116.171 103.217ZM122.165 101.008C122.45 101.008 122.706 101.031 122.933 101.078L122.798 101.98C122.532 101.922 122.298 101.892 122.095 101.892C121.575 101.892 121.13 102.103 120.759 102.525C120.392 102.947 120.208 103.472 120.208 104.101V107.547H119.235V101.125H120.038L120.149 102.314H120.196C120.435 101.896 120.722 101.574 121.058 101.347C121.394 101.121 121.763 101.008 122.165 101.008ZM129.917 104.33C129.917 105.377 129.653 106.195 129.126 106.785C128.598 107.371 127.87 107.664 126.94 107.664C126.366 107.664 125.856 107.529 125.411 107.26C124.966 106.99 124.622 106.603 124.38 106.099C124.138 105.595 124.016 105.006 124.016 104.33C124.016 103.283 124.278 102.469 124.802 101.886C125.325 101.301 126.052 101.008 126.981 101.008C127.88 101.008 128.593 101.306 129.12 101.904C129.651 102.502 129.917 103.31 129.917 104.33ZM125.024 104.33C125.024 105.15 125.188 105.775 125.516 106.205C125.845 106.635 126.327 106.849 126.964 106.849C127.6 106.849 128.083 106.636 128.411 106.211C128.743 105.781 128.909 105.154 128.909 104.33C128.909 103.513 128.743 102.894 128.411 102.472C128.083 102.047 127.597 101.834 126.952 101.834C126.315 101.834 125.835 102.043 125.511 102.461C125.186 102.879 125.024 103.502 125.024 104.33ZM134.856 107.664C134.438 107.664 134.055 107.588 133.708 107.435C133.364 107.279 133.075 107.041 132.84 106.72H132.77C132.817 107.095 132.84 107.451 132.84 107.787V110.429H131.868V101.125H132.659L132.794 102.004H132.84C133.09 101.652 133.381 101.398 133.713 101.242C134.045 101.086 134.426 101.008 134.856 101.008C135.708 101.008 136.364 101.299 136.825 101.881C137.29 102.463 137.522 103.279 137.522 104.33C137.522 105.385 137.286 106.205 136.813 106.791C136.344 107.373 135.692 107.664 134.856 107.664ZM134.715 101.834C134.059 101.834 133.585 102.015 133.292 102.379C132.999 102.742 132.848 103.32 132.84 104.113V104.33C132.84 105.232 132.991 105.879 133.292 106.269C133.592 106.656 134.075 106.849 134.739 106.849C135.294 106.849 135.727 106.625 136.04 106.176C136.356 105.726 136.514 105.107 136.514 104.318C136.514 103.517 136.356 102.904 136.04 102.478C135.727 102.049 135.286 101.834 134.715 101.834ZM142.455 101.019C143.299 101.019 143.953 101.308 144.418 101.886C144.887 102.461 145.121 103.275 145.121 104.33C145.121 105.385 144.885 106.205 144.412 106.791C143.944 107.373 143.291 107.664 142.455 107.664C142.037 107.664 141.655 107.588 141.307 107.435C140.963 107.279 140.674 107.041 140.44 106.72H140.369L140.164 107.547H139.467V98.4294H140.44V100.644C140.44 101.14 140.424 101.586 140.393 101.98H140.44C140.893 101.34 141.565 101.019 142.455 101.019ZM142.315 101.834C141.651 101.834 141.172 102.025 140.879 102.408C140.586 102.787 140.44 103.427 140.44 104.33C140.44 105.232 140.59 105.879 140.891 106.269C141.192 106.656 141.674 106.849 142.338 106.849C142.936 106.849 143.381 106.633 143.674 106.199C143.967 105.761 144.114 105.135 144.114 104.318C144.114 103.482 143.967 102.859 143.674 102.449C143.381 102.039 142.928 101.834 142.315 101.834ZM152.609 104.33C152.609 105.377 152.346 106.195 151.818 106.785C151.291 107.371 150.563 107.664 149.633 107.664C149.059 107.664 148.549 107.529 148.104 107.26C147.658 106.99 147.315 106.603 147.072 106.099C146.83 105.595 146.709 105.006 146.709 104.33C146.709 103.283 146.971 102.469 147.494 101.886C148.018 101.301 148.744 101.008 149.674 101.008C150.572 101.008 151.285 101.306 151.813 101.904C152.344 102.502 152.609 103.31 152.609 104.33ZM147.717 104.33C147.717 105.15 147.881 105.775 148.209 106.205C148.537 106.635 149.02 106.849 149.656 106.849C150.293 106.849 150.775 106.636 151.104 106.211C151.436 105.781 151.602 105.154 151.602 104.33C151.602 103.513 151.436 102.894 151.104 102.472C150.775 102.047 150.289 101.834 149.645 101.834C149.008 101.834 148.527 102.043 148.203 102.461C147.879 102.879 147.717 103.502 147.717 104.33ZM156.107 104.26L153.875 101.125H154.982L156.676 103.586L158.363 101.125H159.459L157.226 104.26L159.576 107.547H158.474L156.676 104.945L154.859 107.547H153.758L156.107 104.26Z" fill="white"/>
<ellipse cx="6.86219" cy="78.7025" rx="6.70502" ry="6.58386" fill="#0099C5"/>
<path d="M20.4618 83.5643H19.4892V77.1425H20.4618V83.5643ZM19.4071 75.4022C19.4071 75.1796 19.4618 75.0175 19.5712 74.9159C19.6806 74.8104 19.8173 74.7577 19.9814 74.7577C20.1376 74.7577 20.2724 74.8104 20.3857 74.9159C20.4989 75.0214 20.5556 75.1835 20.5556 75.4022C20.5556 75.621 20.4989 75.785 20.3857 75.8944C20.2724 75.9999 20.1376 76.0526 19.9814 76.0526C19.8173 76.0526 19.6806 75.9999 19.5712 75.8944C19.4618 75.785 19.4071 75.621 19.4071 75.4022ZM26.5788 75.7655C25.6374 75.7655 24.8932 76.08 24.3464 76.7089C23.8034 77.3339 23.5319 78.1913 23.5319 79.2811C23.5319 80.4022 23.7936 81.2694 24.3171 81.8827C24.8444 82.4921 25.5944 82.7968 26.5671 82.7968C27.1647 82.7968 27.8464 82.6893 28.612 82.4745V83.3475C28.0182 83.5702 27.2858 83.6815 26.4147 83.6815C25.153 83.6815 24.1784 83.2987 23.4909 82.5331C22.8073 81.7675 22.4655 80.6796 22.4655 79.2694C22.4655 78.3866 22.6296 77.6132 22.9577 76.9491C23.2897 76.285 23.7663 75.7733 24.3874 75.4139C25.0124 75.0546 25.7467 74.8749 26.5905 74.8749C27.4889 74.8749 28.2741 75.0389 28.946 75.3671L28.5241 76.2225C27.8757 75.9178 27.2272 75.7655 26.5788 75.7655ZM31.5473 83.5643H30.5746V74.4471H31.5473V83.5643ZM39.3928 80.3475C39.3928 81.3944 39.1291 82.2128 38.6017 82.8026C38.0744 83.3885 37.3459 83.6815 36.4162 83.6815C35.842 83.6815 35.3322 83.5468 34.8869 83.2772C34.4416 83.0077 34.0978 82.621 33.8556 82.1171C33.6135 81.6132 33.4924 81.0233 33.4924 80.3475C33.4924 79.3007 33.7541 78.4862 34.2775 77.9042C34.801 77.3182 35.5275 77.0253 36.4572 77.0253C37.3556 77.0253 38.0685 77.3241 38.5959 77.9218C39.1271 78.5194 39.3928 79.328 39.3928 80.3475ZM34.5002 80.3475C34.5002 81.1678 34.6642 81.7928 34.9924 82.2225C35.3205 82.6522 35.8029 82.8671 36.4396 82.8671C37.0764 82.8671 37.5588 82.6542 37.8869 82.2284C38.2189 81.7987 38.3849 81.1718 38.3849 80.3475C38.3849 79.5311 38.2189 78.912 37.8869 78.4901C37.5588 78.0643 37.0724 77.8514 36.4279 77.8514C35.7912 77.8514 35.3107 78.0604 34.9865 78.4784C34.6623 78.8964 34.5002 79.5194 34.5002 80.3475ZM42.2578 77.1425V81.3085C42.2578 81.8319 42.3769 82.2225 42.6152 82.4803C42.8535 82.7382 43.2265 82.8671 43.7343 82.8671C44.4062 82.8671 44.8964 82.6835 45.205 82.3163C45.5175 81.9491 45.6738 81.3495 45.6738 80.5175V77.1425H46.6464V83.5643H45.8437L45.7031 82.703H45.6503C45.4511 83.0194 45.1738 83.2616 44.8183 83.4296C44.4667 83.5975 44.0644 83.6815 43.6113 83.6815C42.83 83.6815 42.2441 83.496 41.8535 83.1249C41.4667 82.7538 41.2734 82.16 41.2734 81.3436V77.1425H42.2578ZM53.3259 82.703H53.2731C52.8239 83.3553 52.1521 83.6815 51.2575 83.6815C50.4177 83.6815 49.7634 83.3944 49.2946 82.8202C48.8298 82.246 48.5974 81.4296 48.5974 80.371C48.5974 79.3124 48.8317 78.4901 49.3005 77.9042C49.7692 77.3182 50.4216 77.0253 51.2575 77.0253C52.1286 77.0253 52.7966 77.3417 53.2614 77.9745H53.3376L53.2966 77.5116L53.2731 77.0604V74.4471H54.2458V83.5643H53.4548L53.3259 82.703ZM51.3806 82.8671C52.0446 82.8671 52.5251 82.6874 52.822 82.328C53.1228 81.9647 53.2731 81.3807 53.2731 80.576V80.371C53.2731 79.4608 53.1208 78.8124 52.8161 78.4257C52.5153 78.035 52.0329 77.8397 51.3689 77.8397C50.7985 77.8397 50.361 78.0624 50.0564 78.5077C49.7556 78.9491 49.6052 79.5741 49.6052 80.3827C49.6052 81.203 49.7556 81.8221 50.0564 82.2401C50.3571 82.6581 50.7985 82.8671 51.3806 82.8671Z" fill="white"/>
<ellipse cx="6.86219" cy="54.4517" rx="6.70502" ry="6.58386" fill="#3266CC"/>
<path d="M26.4735 54.9482C26.4735 56.3623 26.0888 57.4443 25.3192 58.1943C24.5536 58.9404 23.4501 59.3135 22.0087 59.3135H19.6357V50.7471H22.2607C23.5927 50.7471 24.6278 51.1162 25.3661 51.8545C26.1044 52.5928 26.4735 53.624 26.4735 54.9482ZM25.4189 54.9834C25.4189 53.8662 25.1376 53.0244 24.5751 52.458C24.0165 51.8916 23.1845 51.6084 22.079 51.6084H20.6317V58.4521H21.8446C23.0321 58.4521 23.9247 58.1611 24.5224 57.5791C25.12 56.9932 25.4189 56.1279 25.4189 54.9834ZM31.4128 52.7744C31.6979 52.7744 31.9538 52.7979 32.1803 52.8447L32.0456 53.7471C31.7799 53.6885 31.5456 53.6592 31.3424 53.6592C30.8229 53.6592 30.3776 53.8701 30.0065 54.292C29.6393 54.7139 29.4557 55.2393 29.4557 55.8682V59.3135H28.4831V52.8916H29.2858L29.3971 54.0811H29.444C29.6823 53.6631 29.9694 53.3408 30.3053 53.1143C30.6413 52.8877 31.0104 52.7744 31.4128 52.7744ZM39.1645 56.0967C39.1645 57.1436 38.9008 57.9619 38.3735 58.5518C37.8461 59.1377 37.1176 59.4307 36.1879 59.4307C35.6137 59.4307 35.1039 59.2959 34.6586 59.0264C34.2133 58.7568 33.8696 58.3701 33.6274 57.8662C33.3852 57.3623 33.2641 56.7725 33.2641 56.0967C33.2641 55.0498 33.5258 54.2354 34.0492 53.6533C34.5727 53.0674 35.2992 52.7744 36.2289 52.7744C37.1274 52.7744 37.8403 53.0732 38.3676 53.6709C38.8989 54.2686 39.1645 55.0771 39.1645 56.0967ZM34.2719 56.0967C34.2719 56.917 34.436 57.542 34.7641 57.9717C35.0922 58.4014 35.5746 58.6162 36.2114 58.6162C36.8481 58.6162 37.3305 58.4033 37.6586 57.9775C37.9907 57.5479 38.1567 56.9209 38.1567 56.0967C38.1567 55.2803 37.9907 54.6611 37.6586 54.2393C37.3305 53.8135 36.8442 53.6006 36.1996 53.6006C35.5629 53.6006 35.0824 53.8096 34.7582 54.2275C34.434 54.6455 34.2719 55.2686 34.2719 56.0967ZM44.1037 59.4307C43.6857 59.4307 43.3029 59.3545 42.9553 59.2021C42.6115 59.0459 42.3224 58.8076 42.0881 58.4873H42.0178C42.0646 58.8623 42.0881 59.2178 42.0881 59.5537V62.1963H41.1154V52.8916H41.9064L42.0412 53.7705H42.0881C42.3381 53.4189 42.6291 53.165 42.9611 53.0088C43.2931 52.8525 43.674 52.7744 44.1037 52.7744C44.9553 52.7744 45.6115 53.0654 46.0724 53.6475C46.5373 54.2295 46.7697 55.0459 46.7697 56.0967C46.7697 57.1514 46.5334 57.9717 46.0607 58.5576C45.592 59.1396 44.9396 59.4307 44.1037 59.4307ZM43.9631 53.6006C43.3068 53.6006 42.8322 53.7822 42.5392 54.1455C42.2463 54.5088 42.0959 55.0869 42.0881 55.8799V56.0967C42.0881 56.999 42.2385 57.6455 42.5392 58.0361C42.84 58.4229 43.3224 58.6162 43.9865 58.6162C44.5412 58.6162 44.9748 58.3916 45.2873 57.9424C45.6037 57.4932 45.7619 56.874 45.7619 56.085C45.7619 55.2842 45.6037 54.6709 45.2873 54.2451C44.9748 53.8154 44.5334 53.6006 43.9631 53.6006ZM51.7031 52.7861C52.5468 52.7861 53.2011 53.0752 53.666 53.6533C54.1347 54.2275 54.3691 55.042 54.3691 56.0967C54.3691 57.1514 54.1328 57.9717 53.6601 58.5576C53.1914 59.1396 52.539 59.4307 51.7031 59.4307C51.2851 59.4307 50.9023 59.3545 50.5546 59.2021C50.2109 59.0459 49.9218 58.8076 49.6874 58.4873H49.6171L49.4121 59.3135H48.7148V50.1963H49.6874V52.4111C49.6874 52.9072 49.6718 53.3525 49.6406 53.7471H49.6874C50.1406 53.1064 50.8124 52.7861 51.7031 52.7861ZM51.5624 53.6006C50.8984 53.6006 50.4199 53.792 50.1269 54.1748C49.8339 54.5537 49.6874 55.1943 49.6874 56.0967C49.6874 56.999 49.8378 57.6455 50.1386 58.0361C50.4394 58.4229 50.9218 58.6162 51.5859 58.6162C52.1835 58.6162 52.6289 58.3994 52.9218 57.9658C53.2148 57.5283 53.3613 56.9014 53.3613 56.085C53.3613 55.249 53.2148 54.626 52.9218 54.2158C52.6289 53.8057 52.1757 53.6006 51.5624 53.6006ZM61.8571 56.0967C61.8571 57.1436 61.5935 57.9619 61.0661 58.5518C60.5388 59.1377 59.8103 59.4307 58.8806 59.4307C58.3064 59.4307 57.7966 59.2959 57.3513 59.0264C56.906 58.7568 56.5622 58.3701 56.32 57.8662C56.0778 57.3623 55.9567 56.7725 55.9567 56.0967C55.9567 55.0498 56.2185 54.2354 56.7419 53.6533C57.2653 53.0674 57.9919 52.7744 58.9216 52.7744C59.82 52.7744 60.5329 53.0732 61.0603 53.6709C61.5915 54.2686 61.8571 55.0771 61.8571 56.0967ZM56.9646 56.0967C56.9646 56.917 57.1286 57.542 57.4567 57.9717C57.7849 58.4014 58.2673 58.6162 58.904 58.6162C59.5407 58.6162 60.0231 58.4033 60.3513 57.9775C60.6833 57.5479 60.8493 56.9209 60.8493 56.0967C60.8493 55.2803 60.6833 54.6611 60.3513 54.2393C60.0231 53.8135 59.5368 53.6006 58.8923 53.6006C58.2556 53.6006 57.7751 53.8096 57.4509 54.2275C57.1267 54.6455 56.9646 55.2686 56.9646 56.0967ZM65.3549 56.0264L63.1225 52.8916H64.2299L65.9233 55.3525L67.6108 52.8916H68.7065L66.4741 56.0264L68.8237 59.3135H67.7221L65.9233 56.7119L64.1069 59.3135H63.0053L65.3549 56.0264Z" fill="white"/>
<ellipse cx="6.86219" cy="30.6228" rx="6.70502" ry="6.58386" fill="#DC3812"/>
<path d="M23.4267 35.4847L20.5204 27.891H20.4735C20.5282 28.4926 20.5556 29.2074 20.5556 30.0355V35.4847H19.6357V26.9183H21.1357L23.8485 33.9847H23.8954L26.6317 26.9183H28.12V35.4847H27.1239V29.9652C27.1239 29.3324 27.1513 28.6449 27.206 27.9027H27.1591L24.2294 35.4847H23.4267ZM35.5495 33.2054C35.5495 33.9594 35.276 34.5472 34.7292 34.9691C34.1823 35.391 33.4401 35.6019 32.5026 35.6019C31.487 35.6019 30.7057 35.4711 30.1589 35.2094V34.2484C30.5104 34.3969 30.8932 34.514 31.3073 34.6C31.7214 34.6859 32.1315 34.7289 32.5378 34.7289C33.2018 34.7289 33.7018 34.6039 34.0378 34.3539C34.3737 34.1 34.5417 33.7484 34.5417 33.2992C34.5417 33.0023 34.4811 32.7601 34.36 32.5726C34.2428 32.3812 34.0436 32.2054 33.7624 32.0453C33.485 31.8851 33.0612 31.7035 32.4909 31.5004C31.694 31.2152 31.1237 30.8773 30.7799 30.4867C30.4401 30.0961 30.2702 29.5863 30.2702 28.9574C30.2702 28.2972 30.5182 27.7719 31.0143 27.3812C31.5104 26.9906 32.1667 26.7953 32.9831 26.7953C33.8346 26.7953 34.6178 26.9515 35.3327 27.264L35.0221 28.1312C34.3151 27.8344 33.6276 27.6859 32.9596 27.6859C32.4323 27.6859 32.0202 27.7992 31.7233 28.0258C31.4264 28.2523 31.278 28.5668 31.278 28.9691C31.278 29.266 31.3327 29.5101 31.4421 29.7015C31.5514 29.889 31.735 30.0629 31.9928 30.223C32.2546 30.3793 32.653 30.5531 33.1882 30.7445C34.0866 31.0648 34.7038 31.4086 35.0397 31.7758C35.3796 32.1429 35.5495 32.6195 35.5495 33.2054ZM48.3342 31.1898C48.3342 32.5609 47.9865 33.639 47.2912 34.4242C46.5998 35.2094 45.6369 35.6019 44.4025 35.6019C43.1408 35.6019 42.1662 35.2172 41.4787 34.4476C40.7951 33.6742 40.4533 32.5844 40.4533 31.1781C40.4533 29.7836 40.7971 28.7035 41.4846 27.9379C42.1721 27.1683 43.1486 26.7836 44.4142 26.7836C45.6447 26.7836 46.6056 27.1742 47.2971 27.9554C47.9885 28.7367 48.3342 29.8148 48.3342 31.1898ZM41.508 31.1898C41.508 32.35 41.7541 33.2308 42.2463 33.8324C42.7424 34.4301 43.4611 34.7289 44.4025 34.7289C45.3517 34.7289 46.0685 34.4301 46.5529 33.8324C47.0373 33.2347 47.2795 32.3539 47.2795 31.1898C47.2795 30.0375 47.0373 29.1644 46.5529 28.5707C46.0724 27.973 45.3596 27.6742 44.4142 27.6742C43.465 27.6742 42.7424 27.975 42.2463 28.5765C41.7541 29.1742 41.508 30.0453 41.508 31.1898ZM54.7382 35.4847V31.3304C54.7382 30.807 54.6191 30.4164 54.3808 30.1586C54.1425 29.9008 53.7695 29.7719 53.2617 29.7719C52.5898 29.7719 52.0976 29.9535 51.7851 30.3168C51.4726 30.6801 51.3164 31.2797 51.3164 32.1156V35.4847H50.3437V29.0629H51.1347L51.2929 29.9418H51.3398C51.539 29.6254 51.8183 29.3812 52.1777 29.2094C52.5371 29.0336 52.9374 28.9457 53.3789 28.9457C54.1523 28.9457 54.7343 29.1332 55.1249 29.5082C55.5156 29.8793 55.7109 30.475 55.7109 31.2953V35.4847H54.7382ZM60.6677 35.6019C59.7185 35.6019 58.9685 35.3129 58.4177 34.7347C57.8708 34.1566 57.5974 33.3539 57.5974 32.3265C57.5974 31.2914 57.8513 30.4691 58.3591 29.8597C58.8708 29.2504 59.5564 28.9457 60.4157 28.9457C61.2204 28.9457 61.8571 29.2113 62.3259 29.7426C62.7946 30.2699 63.029 30.9672 63.029 31.8344V32.4496H58.6052C58.6247 33.2035 58.8142 33.7758 59.1735 34.1664C59.5368 34.557 60.0466 34.7523 60.7028 34.7523C61.3942 34.7523 62.0778 34.6078 62.7536 34.3187V35.1859C62.4099 35.3344 62.0837 35.4398 61.7751 35.5023C61.4704 35.5687 61.1013 35.6019 60.6677 35.6019ZM60.404 29.7601C59.8884 29.7601 59.4763 29.9281 59.1677 30.264C58.863 30.6 58.6833 31.0648 58.6286 31.6586H61.986C61.986 31.0453 61.8493 30.5765 61.5759 30.2523C61.3024 29.9242 60.9118 29.7601 60.404 29.7601ZM75.2746 31.1195C75.2746 32.5336 74.8899 33.6156 74.1203 34.3656C73.3547 35.1117 72.2512 35.4847 70.8098 35.4847H68.4367V26.9183H71.0617C72.3938 26.9183 73.4289 27.2875 74.1672 28.0258C74.9055 28.764 75.2746 29.7953 75.2746 31.1195ZM74.2199 31.1547C74.2199 30.0375 73.9387 29.1957 73.3762 28.6293C72.8176 28.0629 71.9856 27.7797 70.8801 27.7797H69.4328V34.6234H70.6457C71.8332 34.6234 72.7258 34.3324 73.3235 33.7504C73.9211 33.1644 74.2199 32.2992 74.2199 31.1547ZM80.2139 28.9457C80.499 28.9457 80.7549 28.9691 80.9814 29.016L80.8467 29.9183C80.581 29.8597 80.3467 29.8304 80.1435 29.8304C79.624 29.8304 79.1787 30.0414 78.8076 30.4633C78.4404 30.8851 78.2568 31.4105 78.2568 32.0394V35.4847H77.2842V29.0629H78.0869L78.1982 30.2523H78.2451C78.4834 29.8344 78.7705 29.5121 79.1064 29.2855C79.4424 29.059 79.8115 28.9457 80.2139 28.9457ZM83.3953 35.4847H82.4226V29.0629H83.3953V35.4847ZM82.3406 27.3226C82.3406 27.1 82.3953 26.9379 82.5046 26.8363C82.614 26.7308 82.7507 26.6781 82.9148 26.6781C83.071 26.6781 83.2058 26.7308 83.3191 26.8363C83.4324 26.9418 83.489 27.1039 83.489 27.3226C83.489 27.5414 83.4324 27.7054 83.3191 27.8148C83.2058 27.9203 83.071 27.973 82.9148 27.973C82.7507 27.973 82.614 27.9203 82.5046 27.8148C82.3953 27.7054 82.3406 27.5414 82.3406 27.3226ZM87.104 35.4847L84.6665 29.0629H85.7095L87.0923 32.8715C87.4048 33.7621 87.5884 34.3402 87.6431 34.6058H87.6899C87.7329 34.3988 87.8677 33.9711 88.0942 33.3226C88.3247 32.6703 88.8384 31.2504 89.6353 29.0629H90.6782L88.2407 35.4847H87.104ZM94.6624 35.6019C93.7132 35.6019 92.9632 35.3129 92.4124 34.7347C91.8655 34.1566 91.5921 33.3539 91.5921 32.3265C91.5921 31.2914 91.846 30.4691 92.3538 29.8597C92.8655 29.2504 93.551 28.9457 94.4104 28.9457C95.2151 28.9457 95.8518 29.2113 96.3206 29.7426C96.7893 30.2699 97.0237 30.9672 97.0237 31.8344V32.4496H92.5999C92.6194 33.2035 92.8089 33.7758 93.1682 34.1664C93.5315 34.557 94.0413 34.7523 94.6975 34.7523C95.3889 34.7523 96.0725 34.6078 96.7483 34.3187V35.1859C96.4046 35.3344 96.0784 35.4398 95.7698 35.5023C95.4651 35.5687 95.096 35.6019 94.6624 35.6019ZM94.3987 29.7601C93.8831 29.7601 93.471 29.9281 93.1624 30.264C92.8577 30.6 92.678 31.0648 92.6233 31.6586H95.9807C95.9807 31.0453 95.844 30.5765 95.5706 30.2523C95.2971 29.9242 94.9065 29.7601 94.3987 29.7601Z" fill="white"/>
<ellipse cx="6.86219" cy="6.6228" rx="6.70502" ry="6.58386" fill="#FE9900"/>
<path d="M23.4032 6.99646H26.3153V11.1625C25.8622 11.307 25.4013 11.4164 24.9325 11.4906C24.4638 11.5648 23.9208 11.6019 23.3036 11.6019C22.0067 11.6019 20.997 11.2172 20.2743 10.4476C19.5517 9.67419 19.1903 8.59216 19.1903 7.20154C19.1903 6.31091 19.3681 5.53162 19.7235 4.86365C20.0829 4.19177 20.5985 3.68005 21.2704 3.32849C21.9423 2.97302 22.7294 2.79529 23.6317 2.79529C24.5458 2.79529 25.3974 2.96326 26.1864 3.29919L25.7997 4.1781C25.0263 3.84998 24.2821 3.68591 23.5673 3.68591C22.5243 3.68591 21.7099 3.99646 21.1239 4.61755C20.538 5.23865 20.245 6.09998 20.245 7.20154C20.245 8.35779 20.5263 9.23474 21.0888 9.8324C21.6552 10.4301 22.4853 10.7289 23.579 10.7289C24.1728 10.7289 24.7528 10.6605 25.3192 10.5238V7.88708H23.4032V6.99646ZM34.0143 8.26794C34.0143 9.31482 33.7507 10.1332 33.2233 10.723C32.696 11.309 31.9674 11.6019 31.0378 11.6019C30.4635 11.6019 29.9538 11.4672 29.5085 11.1976C29.0632 10.9281 28.7194 10.5414 28.4772 10.0375C28.235 9.53357 28.1139 8.94373 28.1139 8.26794C28.1139 7.22107 28.3757 6.40662 28.8991 5.82458C29.4225 5.23865 30.1491 4.94568 31.0788 4.94568C31.9772 4.94568 32.6901 5.24451 33.2174 5.84216C33.7487 6.43982 34.0143 7.24841 34.0143 8.26794ZM29.1217 8.26794C29.1217 9.08826 29.2858 9.71326 29.6139 10.1429C29.9421 10.5726 30.4245 10.7875 31.0612 10.7875C31.6979 10.7875 32.1803 10.5746 32.5085 10.1488C32.8405 9.71912 33.0065 9.09216 33.0065 8.26794C33.0065 7.45154 32.8405 6.8324 32.5085 6.41052C32.1803 5.98474 31.694 5.77185 31.0495 5.77185C30.4128 5.77185 29.9323 5.98083 29.6081 6.3988C29.2839 6.81677 29.1217 7.43982 29.1217 8.26794ZM41.5082 8.26794C41.5082 9.31482 41.2446 10.1332 40.7172 10.723C40.1899 11.309 39.4614 11.6019 38.5317 11.6019C37.9574 11.6019 37.4477 11.4672 37.0024 11.1976C36.5571 10.9281 36.2133 10.5414 35.9711 10.0375C35.7289 9.53357 35.6078 8.94373 35.6078 8.26794C35.6078 7.22107 35.8696 6.40662 36.393 5.82458C36.9164 5.23865 37.643 4.94568 38.5727 4.94568C39.4711 4.94568 40.184 5.24451 40.7114 5.84216C41.2426 6.43982 41.5082 7.24841 41.5082 8.26794ZM36.6157 8.26794C36.6157 9.08826 36.7797 9.71326 37.1078 10.1429C37.436 10.5726 37.9184 10.7875 38.5551 10.7875C39.1918 10.7875 39.6742 10.5746 40.0024 10.1488C40.3344 9.71912 40.5004 9.09216 40.5004 8.26794C40.5004 7.45154 40.3344 6.8324 40.0024 6.41052C39.6742 5.98474 39.1879 5.77185 38.5434 5.77185C37.9067 5.77185 37.4262 5.98083 37.102 6.3988C36.7778 6.81677 36.6157 7.43982 36.6157 8.26794ZM48.715 5.06287V5.6781L47.5256 5.81873C47.6349 5.95544 47.7326 6.13513 47.8185 6.35779C47.9045 6.57654 47.9474 6.82458 47.9474 7.10193C47.9474 7.73083 47.7326 8.23279 47.3029 8.60779C46.8732 8.98279 46.2834 9.17029 45.5334 9.17029C45.342 9.17029 45.1623 9.15466 44.9943 9.12341C44.5803 9.34216 44.3732 9.61755 44.3732 9.94958C44.3732 10.1254 44.4455 10.2562 44.59 10.3422C44.7346 10.4242 44.9826 10.4652 45.3342 10.4652H46.4709C47.1662 10.4652 47.6994 10.6117 48.0705 10.9047C48.4455 11.1976 48.633 11.6234 48.633 12.182C48.633 12.8929 48.3478 13.434 47.7775 13.8051C47.2072 14.1801 46.3752 14.3676 45.2814 14.3676C44.4416 14.3676 43.7931 14.2113 43.3361 13.8988C42.883 13.5863 42.6564 13.1449 42.6564 12.5746C42.6564 12.184 42.7814 11.8461 43.0314 11.5609C43.2814 11.2758 43.633 11.0824 44.0861 10.9808C43.9221 10.9066 43.7834 10.7914 43.6701 10.6351C43.5607 10.4789 43.506 10.2972 43.506 10.0902C43.506 9.85583 43.5685 9.65076 43.6935 9.47498C43.8185 9.29919 44.0158 9.12927 44.2853 8.96521C43.9533 8.82849 43.6818 8.59607 43.4709 8.26794C43.2639 7.93982 43.1603 7.56482 43.1603 7.14294C43.1603 6.43982 43.3713 5.8988 43.7931 5.5199C44.215 5.13708 44.8127 4.94568 45.5861 4.94568C45.9221 4.94568 46.2248 4.98474 46.4943 5.06287H48.715ZM43.5939 12.5629C43.5939 12.9105 43.7404 13.1742 44.0334 13.3539C44.3264 13.5336 44.7463 13.6234 45.2931 13.6234C46.1096 13.6234 46.7131 13.5004 47.1037 13.2543C47.4982 13.0121 47.6955 12.682 47.6955 12.264C47.6955 11.9164 47.5881 11.6742 47.3732 11.5375C47.1584 11.4047 46.7541 11.3383 46.1603 11.3383H44.9943C44.5529 11.3383 44.2092 11.4437 43.9631 11.6547C43.717 11.8656 43.5939 12.1683 43.5939 12.5629ZM44.1213 7.11951C44.1213 7.56873 44.2482 7.90857 44.5021 8.13904C44.756 8.36951 45.1096 8.48474 45.5627 8.48474C46.5119 8.48474 46.9865 8.0238 46.9865 7.10193C46.9865 6.13708 46.506 5.65466 45.5451 5.65466C45.0881 5.65466 44.7365 5.77771 44.4904 6.0238C44.2443 6.2699 44.1213 6.63513 44.1213 7.11951ZM51.246 11.4847H50.2734V2.36755H51.246V11.4847ZM56.2614 11.6019C55.3122 11.6019 54.5622 11.3129 54.0114 10.7347C53.4646 10.1566 53.1911 9.35388 53.1911 8.32654C53.1911 7.29138 53.445 6.46912 53.9528 5.85974C54.4646 5.25037 55.1501 4.94568 56.0095 4.94568C56.8142 4.94568 57.4509 5.2113 57.9196 5.74255C58.3884 6.2699 58.6228 6.96716 58.6228 7.83435V8.44958H54.1989C54.2185 9.20349 54.4079 9.77576 54.7673 10.1664C55.1306 10.557 55.6403 10.7523 56.2966 10.7523C56.988 10.7523 57.6716 10.6078 58.3474 10.3187V11.1859C58.0036 11.3344 57.6774 11.4398 57.3689 11.5023C57.0642 11.5687 56.695 11.6019 56.2614 11.6019ZM55.9978 5.76013C55.4821 5.76013 55.07 5.9281 54.7614 6.26404C54.4567 6.59998 54.2771 7.06482 54.2224 7.65857H57.5798C57.5798 7.04529 57.4431 6.57654 57.1696 6.25232C56.8962 5.92419 56.5056 5.76013 55.9978 5.76013ZM70.8684 7.11951C70.8684 8.53357 70.4836 9.6156 69.7141 10.3656C68.9485 11.1117 67.8449 11.4847 66.4035 11.4847H64.0305V2.91833H66.6555C67.9875 2.91833 69.0227 3.28748 69.761 4.02576C70.4992 4.76404 70.8684 5.79529 70.8684 7.11951ZM69.8137 7.15466C69.8137 6.03748 69.5324 5.19568 68.9699 4.62927C68.4114 4.06287 67.5793 3.77966 66.4739 3.77966H65.0266V10.6234H66.2395C67.427 10.6234 68.3196 10.3324 68.9172 9.75037C69.5149 9.16443 69.8137 8.29919 69.8137 7.15466ZM75.8076 4.94568C76.0928 4.94568 76.3486 4.96912 76.5752 5.01599L76.4404 5.91833C76.1748 5.85974 75.9404 5.83044 75.7373 5.83044C75.2178 5.83044 74.7724 6.04138 74.4014 6.46326C74.0342 6.88513 73.8506 7.41052 73.8506 8.03943V11.4847H72.8779V5.06287H73.6806L73.792 6.25232H73.8389C74.0771 5.83435 74.3642 5.51208 74.7002 5.28552C75.0361 5.05896 75.4053 4.94568 75.8076 4.94568ZM78.989 11.4847H78.0164V5.06287H78.989V11.4847ZM77.9343 3.32263C77.9343 3.09998 77.989 2.93787 78.0984 2.8363C78.2078 2.73083 78.3445 2.6781 78.5085 2.6781C78.6648 2.6781 78.7996 2.73083 78.9128 2.8363C79.0261 2.94177 79.0828 3.10388 79.0828 3.32263C79.0828 3.54138 79.0261 3.70544 78.9128 3.81482C78.7996 3.92029 78.6648 3.97302 78.5085 3.97302C78.3445 3.97302 78.2078 3.92029 78.0984 3.81482C77.989 3.70544 77.9343 3.54138 77.9343 3.32263ZM82.6978 11.4847L80.2603 5.06287H81.3032L82.686 8.87146C82.9985 9.76208 83.1821 10.3402 83.2368 10.6058H83.2837C83.3267 10.3988 83.4614 9.97107 83.688 9.32263C83.9185 8.67029 84.4321 7.25037 85.229 5.06287H86.272L83.8345 11.4847H82.6978ZM90.2561 11.6019C89.3069 11.6019 88.5569 11.3129 88.0061 10.7347C87.4592 10.1566 87.1858 9.35388 87.1858 8.32654C87.1858 7.29138 87.4397 6.46912 87.9475 5.85974C88.4592 5.25037 89.1448 4.94568 90.0042 4.94568C90.8089 4.94568 91.4456 5.2113 91.9143 5.74255C92.3831 6.2699 92.6174 6.96716 92.6174 7.83435V8.44958H88.1936C88.2132 9.20349 88.4026 9.77576 88.762 10.1664C89.1253 10.557 89.635 10.7523 90.2913 10.7523C90.9827 10.7523 91.6663 10.6078 92.3421 10.3187V11.1859C91.9983 11.3344 91.6721 11.4398 91.3635 11.5023C91.0589 11.5687 90.6897 11.6019 90.2561 11.6019ZM89.9924 5.76013C89.4768 5.76013 89.0647 5.9281 88.7561 6.26404C88.4514 6.59998 88.2717 7.06482 88.2171 7.65857H91.5745C91.5745 7.04529 91.4378 6.57654 91.1643 6.25232C90.8909 5.92419 90.5003 5.76013 89.9924 5.76013Z" fill="white"/>
</svg>
