<svg width="284" height="285" viewBox="0 0 284 285" fill="none" xmlns="http://www.w3.org/2000/svg">
<ellipse cx="142.282" cy="142.5" rx="141.62" ry="142.5" fill="#0E1111"/>
<circle cx="220.48" cy="165.658" r="34" fill="#01B5CC" stroke="white" stroke-width="3"/>
<path d="M120.785 243.011L120.623 244.658H122.277H169.163H170.556L170.659 243.268L178.773 133.268L178.892 131.658H177.277H133.097H131.737L131.604 133.011L120.785 243.011Z" fill="#01B5CC" stroke="white" stroke-width="3"/>
<path d="M132.231 119.03L132.091 120.658H133.725H157.907H159.313L159.404 119.254L163.589 54.2543L163.692 52.6579H162.092H139.306H137.929L137.811 54.0296L132.231 119.03Z" fill="#01B5CC" stroke="white" stroke-width="3"/>
<path d="M66.7846 164.011L66.6226 165.658H68.2774H115.163H116.556L116.659 164.268L124.773 54.2683L124.892 52.6579H123.277H79.0971H77.7374L77.6043 54.0111L66.7846 164.011Z" fill="#01B5CC" stroke="white" stroke-width="3"/>
</svg>
