<svg width="342" height="108" viewBox="0 0 342 108" fill="none" xmlns="http://www.w3.org/2000/svg">
<rect x="181.738" y="0.660156" width="159.75" height="106.75" fill="white" stroke="#3E4146" stroke-width="0.25"/>
<path d="M206.217 93.5684L204.297 90.8684C204.081 90.8924 203.857 90.9044 203.625 90.9044H201.369V93.5684H200.481V85.1684H203.625C204.697 85.1684 205.537 85.4244 206.145 85.9364C206.753 86.4484 207.057 87.1524 207.057 88.0484C207.057 88.7044 206.889 89.2604 206.553 89.7164C206.225 90.1644 205.753 90.4884 205.137 90.6884L207.189 93.5684H206.217ZM203.601 90.1484C204.433 90.1484 205.069 89.9644 205.509 89.5964C205.949 89.2284 206.169 88.7124 206.169 88.0484C206.169 87.3684 205.949 86.8484 205.509 86.4884C205.069 86.1204 204.433 85.9364 203.601 85.9364H201.369V90.1484H203.601ZM214.469 90.6764H209.189C209.237 91.3324 209.489 91.8644 209.945 92.2724C210.401 92.6724 210.977 92.8724 211.673 92.8724C212.065 92.8724 212.425 92.8044 212.753 92.6684C213.081 92.5244 213.365 92.3164 213.605 92.0444L214.085 92.5964C213.805 92.9324 213.453 93.1884 213.029 93.3644C212.613 93.5404 212.153 93.6284 211.649 93.6284C211.001 93.6284 210.425 93.4924 209.921 93.2204C209.425 92.9404 209.037 92.5564 208.757 92.0684C208.477 91.5804 208.337 91.0284 208.337 90.4124C208.337 89.7964 208.469 89.2444 208.733 88.7564C209.005 88.2684 209.373 87.8884 209.837 87.6164C210.309 87.3444 210.837 87.2084 211.421 87.2084C212.005 87.2084 212.529 87.3444 212.993 87.6164C213.457 87.8884 213.821 88.2684 214.085 88.7564C214.349 89.2364 214.481 89.7884 214.481 90.4124L214.469 90.6764ZM211.421 87.9404C210.813 87.9404 210.301 88.1364 209.885 88.5284C209.477 88.9124 209.245 89.4164 209.189 90.0404H213.665C213.609 89.4164 213.373 88.9124 212.957 88.5284C212.549 88.1364 212.037 87.9404 211.421 87.9404ZM222.059 87.2564V92.8004C222.059 93.8724 221.795 94.6644 221.267 95.1764C220.747 95.6964 219.959 95.9564 218.903 95.9564C218.319 95.9564 217.763 95.8684 217.235 95.6924C216.715 95.5244 216.291 95.2884 215.963 94.9844L216.395 94.3364C216.699 94.6084 217.067 94.8204 217.499 94.9724C217.939 95.1244 218.399 95.2004 218.879 95.2004C219.679 95.2004 220.267 95.0124 220.643 94.6364C221.019 94.2684 221.207 93.6924 221.207 92.9084V92.1044C220.943 92.5044 220.595 92.8084 220.163 93.0164C219.739 93.2244 219.267 93.3284 218.747 93.3284C218.155 93.3284 217.615 93.2004 217.127 92.9444C216.647 92.6804 216.267 92.3164 215.987 91.8524C215.715 91.3804 215.579 90.8484 215.579 90.2564C215.579 89.6644 215.715 89.1364 215.987 88.6724C216.267 88.2084 216.647 87.8484 217.127 87.5924C217.607 87.3364 218.147 87.2084 218.747 87.2084C219.283 87.2084 219.767 87.3164 220.199 87.5324C220.631 87.7484 220.979 88.0604 221.243 88.4684V87.2564H222.059ZM218.831 92.5724C219.287 92.5724 219.699 92.4764 220.067 92.2844C220.435 92.0844 220.719 91.8084 220.919 91.4564C221.127 91.1044 221.231 90.7044 221.231 90.2564C221.231 89.8084 221.127 89.4124 220.919 89.0684C220.719 88.7164 220.435 88.4444 220.067 88.2524C219.707 88.0524 219.295 87.9524 218.831 87.9524C218.375 87.9524 217.963 88.0484 217.595 88.2404C217.235 88.4324 216.951 88.7044 216.743 89.0564C216.543 89.4084 216.443 89.8084 216.443 90.2564C216.443 90.7044 216.543 91.1044 216.743 91.4564C216.951 91.8084 217.235 92.0844 217.595 92.2844C217.963 92.4764 218.375 92.5724 218.831 92.5724ZM230.13 87.2564V93.5684H229.314V92.4164C229.09 92.8004 228.782 93.1004 228.39 93.3164C227.998 93.5244 227.55 93.6284 227.046 93.6284C226.222 93.6284 225.57 93.4004 225.09 92.9444C224.618 92.4804 224.382 91.8044 224.382 90.9164V87.2564H225.234V90.8324C225.234 91.4964 225.398 92.0004 225.726 92.3444C226.054 92.6884 226.522 92.8604 227.13 92.8604C227.794 92.8604 228.318 92.6604 228.702 92.2604C229.086 91.8524 229.278 91.2884 229.278 90.5684V87.2564H230.13ZM232.516 84.6644H233.368V93.5684H232.516V84.6644ZM237.947 87.2084C238.771 87.2084 239.403 87.4164 239.843 87.8324C240.283 88.2404 240.503 88.8484 240.503 89.6564V93.5684H239.687V92.5844C239.495 92.9124 239.211 93.1684 238.835 93.3524C238.467 93.5364 238.027 93.6284 237.515 93.6284C236.811 93.6284 236.251 93.4604 235.835 93.1244C235.419 92.7884 235.211 92.3444 235.211 91.7924C235.211 91.2564 235.403 90.8244 235.787 90.4964C236.179 90.1684 236.799 90.0044 237.647 90.0044H239.651V89.6204C239.651 89.0764 239.499 88.6644 239.195 88.3844C238.891 88.0964 238.447 87.9524 237.863 87.9524C237.463 87.9524 237.079 88.0204 236.711 88.1564C236.343 88.2844 236.027 88.4644 235.763 88.6964L235.379 88.0604C235.699 87.7884 236.083 87.5804 236.531 87.4364C236.979 87.2844 237.451 87.2084 237.947 87.2084ZM237.647 92.9564C238.127 92.9564 238.539 92.8484 238.883 92.6324C239.227 92.4084 239.483 92.0884 239.651 91.6724V90.6404H237.671C236.591 90.6404 236.051 91.0164 236.051 91.7684C236.051 92.1364 236.191 92.4284 236.471 92.6444C236.751 92.8524 237.143 92.9564 237.647 92.9564ZM243.633 88.4924C243.833 88.0684 244.129 87.7484 244.521 87.5324C244.921 87.3164 245.413 87.2084 245.997 87.2084V88.0364L245.793 88.0244C245.129 88.0244 244.609 88.2284 244.233 88.6364C243.857 89.0444 243.669 89.6164 243.669 90.3524V93.5684H242.817V87.2564H243.633V88.4924Z" fill="#333333"/>
<path d="M212.938 56.5779H203.188L201.088 61.2529H199.163L207.163 43.7529H208.988L216.988 61.2529H215.038L212.938 56.5779ZM212.263 55.0779L208.063 45.6779L203.863 55.0779H212.263ZM230.651 48.0029C232.368 48.0029 233.684 48.4363 234.601 49.3029C235.518 50.1529 235.976 51.4196 235.976 53.1029V61.2529H234.276V59.2029C233.876 59.8863 233.284 60.4196 232.501 60.8029C231.734 61.1863 230.818 61.3779 229.751 61.3779C228.284 61.3779 227.118 61.0279 226.251 60.3279C225.384 59.6279 224.951 58.7029 224.951 57.5529C224.951 56.4363 225.351 55.5363 226.151 54.8529C226.968 54.1696 228.259 53.8279 230.026 53.8279H234.201V53.0279C234.201 51.8946 233.884 51.0363 233.251 50.4529C232.618 49.8529 231.693 49.5529 230.476 49.5529C229.643 49.5529 228.843 49.6946 228.076 49.9779C227.309 50.2446 226.651 50.6196 226.101 51.1029L225.301 49.7779C225.968 49.2113 226.768 48.7779 227.701 48.4779C228.634 48.1613 229.618 48.0029 230.651 48.0029ZM230.026 59.9779C231.026 59.9779 231.884 59.7529 232.601 59.3029C233.318 58.8363 233.851 58.1696 234.201 57.3029V55.1529H230.076C227.826 55.1529 226.701 55.9363 226.701 57.5029C226.701 58.2696 226.993 58.8779 227.576 59.3279C228.159 59.7613 228.976 59.9779 230.026 59.9779Z" fill="black"/>
<path d="M256.705 11.7318V20.1318H255.853V13.4118L252.553 19.0638H252.133L248.833 13.4478V20.1318H247.981V11.7318H248.713L252.361 17.9598L255.973 11.7318H256.705ZM261.842 20.1918C261.234 20.1918 260.686 20.0558 260.198 19.7838C259.71 19.5038 259.326 19.1198 259.046 18.6318C258.766 18.1438 258.626 17.5918 258.626 16.9758C258.626 16.3598 258.766 15.8078 259.046 15.3198C259.326 14.8318 259.71 14.4518 260.198 14.1798C260.686 13.9078 261.234 13.7718 261.842 13.7718C262.45 13.7718 262.998 13.9078 263.486 14.1798C263.974 14.4518 264.354 14.8318 264.626 15.3198C264.906 15.8078 265.046 16.3598 265.046 16.9758C265.046 17.5918 264.906 18.1438 264.626 18.6318C264.354 19.1198 263.974 19.5038 263.486 19.7838C262.998 20.0558 262.45 20.1918 261.842 20.1918ZM261.842 19.4358C262.29 19.4358 262.69 19.3358 263.042 19.1358C263.402 18.9278 263.682 18.6358 263.882 18.2598C264.082 17.8838 264.182 17.4558 264.182 16.9758C264.182 16.4958 264.082 16.0678 263.882 15.6918C263.682 15.3158 263.402 15.0278 263.042 14.8278C262.69 14.6198 262.29 14.5158 261.842 14.5158C261.394 14.5158 260.99 14.6198 260.63 14.8278C260.278 15.0278 259.998 15.3158 259.79 15.6918C259.59 16.0678 259.49 16.4958 259.49 16.9758C259.49 17.4558 259.59 17.8838 259.79 18.2598C259.998 18.6358 260.278 18.9278 260.63 19.1358C260.99 19.3358 261.394 19.4358 261.842 19.4358ZM270.001 13.7718C270.793 13.7718 271.421 14.0038 271.885 14.4678C272.357 14.9238 272.593 15.5918 272.593 16.4718V20.1318H271.741V16.5558C271.741 15.8998 271.577 15.3998 271.249 15.0558C270.921 14.7118 270.453 14.5398 269.845 14.5398C269.165 14.5398 268.625 14.7438 268.225 15.1518C267.833 15.5518 267.637 16.1078 267.637 16.8198V20.1318H266.785V13.8198H267.601V14.9838C267.833 14.5998 268.153 14.3038 268.561 14.0958C268.977 13.8798 269.457 13.7718 270.001 13.7718ZM278.231 19.7478C278.071 19.8918 277.871 20.0038 277.631 20.0838C277.399 20.1558 277.155 20.1918 276.899 20.1918C276.307 20.1918 275.851 20.0318 275.531 19.7118C275.211 19.3918 275.051 18.9398 275.051 18.3558V14.5398H273.923V13.8198H275.051V12.4398H275.903V13.8198H277.823V14.5398H275.903V18.3078C275.903 18.6838 275.995 18.9718 276.179 19.1718C276.371 19.3638 276.643 19.4598 276.995 19.4598C277.171 19.4598 277.339 19.4318 277.499 19.3758C277.667 19.3198 277.811 19.2398 277.931 19.1358L278.231 19.7478ZM281.474 20.1918C280.962 20.1918 280.47 20.1198 279.998 19.9758C279.534 19.8238 279.17 19.6358 278.906 19.4118L279.29 18.7398C279.554 18.9478 279.886 19.1198 280.286 19.2558C280.686 19.3838 281.102 19.4478 281.534 19.4478C282.11 19.4478 282.534 19.3598 282.806 19.1838C283.086 18.9998 283.226 18.7438 283.226 18.4158C283.226 18.1838 283.15 18.0038 282.998 17.8758C282.846 17.7398 282.654 17.6398 282.422 17.5758C282.19 17.5038 281.882 17.4358 281.498 17.3718C280.986 17.2758 280.574 17.1798 280.262 17.0838C279.95 16.9798 279.682 16.8078 279.458 16.5678C279.242 16.3278 279.134 15.9958 279.134 15.5718C279.134 15.0438 279.354 14.6118 279.794 14.2758C280.234 13.9398 280.846 13.7718 281.63 13.7718C282.038 13.7718 282.446 13.8278 282.854 13.9398C283.262 14.0438 283.598 14.1838 283.862 14.3598L283.49 15.0438C282.97 14.6838 282.35 14.5038 281.63 14.5038C281.086 14.5038 280.674 14.5998 280.394 14.7918C280.122 14.9838 279.986 15.2358 279.986 15.5478C279.986 15.7878 280.062 15.9798 280.214 16.1238C280.374 16.2678 280.57 16.3758 280.802 16.4478C281.034 16.5118 281.354 16.5798 281.762 16.6518C282.266 16.7478 282.67 16.8438 282.974 16.9398C283.278 17.0358 283.538 17.1998 283.754 17.4318C283.97 17.6638 284.078 17.9838 284.078 18.3918C284.078 18.9438 283.846 19.3838 283.382 19.7118C282.926 20.0318 282.29 20.1918 281.474 20.1918ZM291.149 17.2398H285.869C285.917 17.8958 286.169 18.4278 286.625 18.8358C287.081 19.2358 287.657 19.4358 288.353 19.4358C288.745 19.4358 289.105 19.3678 289.433 19.2318C289.761 19.0878 290.045 18.8798 290.285 18.6078L290.765 19.1598C290.485 19.4958 290.133 19.7518 289.709 19.9278C289.293 20.1038 288.833 20.1918 288.329 20.1918C287.681 20.1918 287.105 20.0558 286.601 19.7838C286.105 19.5038 285.717 19.1198 285.437 18.6318C285.157 18.1438 285.017 17.5918 285.017 16.9758C285.017 16.3598 285.149 15.8078 285.413 15.3198C285.685 14.8318 286.053 14.4518 286.517 14.1798C286.989 13.9078 287.517 13.7718 288.101 13.7718C288.685 13.7718 289.209 13.9078 289.673 14.1798C290.137 14.4518 290.501 14.8318 290.765 15.3198C291.029 15.7998 291.161 16.3518 291.161 16.9758L291.149 17.2398ZM288.101 14.5038C287.493 14.5038 286.981 14.6998 286.565 15.0918C286.157 15.4758 285.925 15.9798 285.869 16.6038H290.345C290.289 15.9798 290.053 15.4758 289.637 15.0918C289.229 14.6998 288.717 14.5038 288.101 14.5038ZM293.711 15.0558C293.911 14.6318 294.207 14.3118 294.599 14.0958C294.999 13.8798 295.491 13.7718 296.075 13.7718V14.5998L295.871 14.5878C295.207 14.5878 294.687 14.7918 294.311 15.1998C293.935 15.6078 293.747 16.1798 293.747 16.9158V20.1318H292.895V13.8198H293.711V15.0558ZM298.434 15.0558C298.634 14.6318 298.93 14.3118 299.322 14.0958C299.722 13.8798 300.214 13.7718 300.798 13.7718V14.5998L300.594 14.5878C299.93 14.5878 299.41 14.7918 299.034 15.1998C298.658 15.6078 298.47 16.1798 298.47 16.9158V20.1318H297.618V13.8198H298.434V15.0558ZM304.536 13.7718C305.36 13.7718 305.992 13.9798 306.432 14.3958C306.872 14.8038 307.092 15.4118 307.092 16.2198V20.1318H306.276V19.1478C306.084 19.4758 305.8 19.7318 305.424 19.9158C305.056 20.0998 304.616 20.1918 304.104 20.1918C303.4 20.1918 302.84 20.0238 302.424 19.6878C302.008 19.3518 301.8 18.9078 301.8 18.3558C301.8 17.8198 301.992 17.3878 302.376 17.0598C302.768 16.7318 303.388 16.5678 304.236 16.5678H306.24V16.1838C306.24 15.6398 306.088 15.2278 305.784 14.9478C305.48 14.6598 305.036 14.5158 304.452 14.5158C304.052 14.5158 303.668 14.5838 303.3 14.7198C302.932 14.8478 302.616 15.0278 302.352 15.2598L301.968 14.6238C302.288 14.3518 302.672 14.1438 303.12 13.9998C303.568 13.8478 304.04 13.7718 304.536 13.7718ZM304.236 19.5198C304.716 19.5198 305.128 19.4118 305.472 19.1958C305.816 18.9718 306.072 18.6518 306.24 18.2358V17.2038H304.26C303.18 17.2038 302.64 17.5798 302.64 18.3318C302.64 18.6998 302.78 18.9918 303.06 19.2078C303.34 19.4158 303.732 19.5198 304.236 19.5198ZM312.731 19.7478C312.571 19.8918 312.371 20.0038 312.131 20.0838C311.899 20.1558 311.655 20.1918 311.399 20.1918C310.807 20.1918 310.351 20.0318 310.031 19.7118C309.711 19.3918 309.551 18.9398 309.551 18.3558V14.5398H308.423V13.8198H309.551V12.4398H310.403V13.8198H312.323V14.5398H310.403V18.3078C310.403 18.6838 310.495 18.9718 310.679 19.1718C310.871 19.3638 311.143 19.4598 311.495 19.4598C311.671 19.4598 311.839 19.4318 311.999 19.3758C312.167 19.3198 312.311 19.2398 312.431 19.1358L312.731 19.7478Z" fill="#333333"/>
<rect x="0.334946" y="0.660645" width="159.75" height="106.75" fill="white" stroke="#3E4146" stroke-width="0.25"/>
<path d="M74.3019 11.7323V20.1323H73.4499V13.4123L70.1499 19.0643H69.7299L66.4299 13.4483V20.1323H65.5779V11.7323H66.3099L69.9579 17.9603L73.5699 11.7323H74.3019ZM79.4389 20.1923C78.8309 20.1923 78.2829 20.0563 77.7949 19.7843C77.3069 19.5043 76.9229 19.1203 76.6429 18.6323C76.3629 18.1443 76.2229 17.5923 76.2229 16.9763C76.2229 16.3603 76.3629 15.8083 76.6429 15.3203C76.9229 14.8323 77.3069 14.4523 77.7949 14.1803C78.2829 13.9083 78.8309 13.7723 79.4389 13.7723C80.0469 13.7723 80.5949 13.9083 81.0829 14.1803C81.5709 14.4523 81.9509 14.8323 82.2229 15.3203C82.5029 15.8083 82.6429 16.3603 82.6429 16.9763C82.6429 17.5923 82.5029 18.1443 82.2229 18.6323C81.9509 19.1203 81.5709 19.5043 81.0829 19.7843C80.5949 20.0563 80.0469 20.1923 79.4389 20.1923ZM79.4389 19.4363C79.8869 19.4363 80.2869 19.3363 80.6389 19.1363C80.9989 18.9283 81.2789 18.6363 81.4789 18.2603C81.6789 17.8843 81.7789 17.4563 81.7789 16.9763C81.7789 16.4963 81.6789 16.0683 81.4789 15.6923C81.2789 15.3163 80.9989 15.0283 80.6389 14.8283C80.2869 14.6203 79.8869 14.5163 79.4389 14.5163C78.9909 14.5163 78.5869 14.6203 78.2269 14.8283C77.8749 15.0283 77.5949 15.3163 77.3869 15.6923C77.1869 16.0683 77.0869 16.4963 77.0869 16.9763C77.0869 17.4563 77.1869 17.8843 77.3869 18.2603C77.5949 18.6363 77.8749 18.9283 78.2269 19.1363C78.5869 19.3363 78.9909 19.4363 79.4389 19.4363ZM87.5983 13.7723C88.3903 13.7723 89.0183 14.0043 89.4823 14.4683C89.9543 14.9243 90.1903 15.5923 90.1903 16.4723V20.1323H89.3383V16.5563C89.3383 15.9003 89.1743 15.4003 88.8463 15.0563C88.5183 14.7123 88.0503 14.5403 87.4423 14.5403C86.7623 14.5403 86.2223 14.7443 85.8223 15.1523C85.4303 15.5523 85.2343 16.1083 85.2343 16.8203V20.1323H84.3823V13.8203H85.1983V14.9843C85.4303 14.6003 85.7503 14.3043 86.1583 14.0963C86.5743 13.8803 87.0543 13.7723 87.5983 13.7723ZM95.8274 19.7483C95.6674 19.8923 95.4674 20.0043 95.2274 20.0843C94.9954 20.1563 94.7514 20.1923 94.4954 20.1923C93.9034 20.1923 93.4474 20.0323 93.1274 19.7123C92.8074 19.3923 92.6474 18.9403 92.6474 18.3563V14.5403H91.5194V13.8203H92.6474V12.4403H93.4994V13.8203H95.4194V14.5403H93.4994V18.3083C93.4994 18.6843 93.5914 18.9723 93.7754 19.1723C93.9674 19.3643 94.2394 19.4603 94.5914 19.4603C94.7674 19.4603 94.9354 19.4323 95.0954 19.3763C95.2634 19.3203 95.4074 19.2403 95.5274 19.1363L95.8274 19.7483ZM99.0704 20.1923C98.5584 20.1923 98.0664 20.1203 97.5944 19.9763C97.1304 19.8243 96.7664 19.6363 96.5024 19.4123L96.8864 18.7403C97.1504 18.9483 97.4824 19.1203 97.8824 19.2563C98.2824 19.3843 98.6984 19.4483 99.1304 19.4483C99.7064 19.4483 100.13 19.3603 100.402 19.1843C100.682 19.0003 100.822 18.7443 100.822 18.4163C100.822 18.1843 100.746 18.0043 100.594 17.8763C100.442 17.7403 100.25 17.6403 100.018 17.5763C99.7864 17.5043 99.4784 17.4363 99.0944 17.3723C98.5824 17.2763 98.1704 17.1803 97.8584 17.0843C97.5464 16.9803 97.2784 16.8083 97.0544 16.5683C96.8384 16.3283 96.7304 15.9963 96.7304 15.5723C96.7304 15.0443 96.9504 14.6123 97.3904 14.2763C97.8304 13.9403 98.4424 13.7723 99.2264 13.7723C99.6344 13.7723 100.042 13.8283 100.45 13.9403C100.858 14.0443 101.194 14.1843 101.458 14.3603L101.086 15.0443C100.566 14.6843 99.9464 14.5043 99.2264 14.5043C98.6824 14.5043 98.2704 14.6003 97.9904 14.7923C97.7184 14.9843 97.5824 15.2363 97.5824 15.5483C97.5824 15.7883 97.6584 15.9803 97.8104 16.1243C97.9704 16.2683 98.1664 16.3763 98.3984 16.4483C98.6304 16.5123 98.9504 16.5803 99.3584 16.6523C99.8624 16.7483 100.266 16.8443 100.57 16.9403C100.874 17.0363 101.134 17.2003 101.35 17.4323C101.566 17.6643 101.674 17.9843 101.674 18.3923C101.674 18.9443 101.442 19.3843 100.978 19.7123C100.522 20.0323 99.8864 20.1923 99.0704 20.1923ZM108.746 17.2403H103.466C103.514 17.8963 103.766 18.4283 104.222 18.8363C104.678 19.2363 105.254 19.4363 105.95 19.4363C106.342 19.4363 106.702 19.3683 107.03 19.2323C107.358 19.0883 107.642 18.8803 107.882 18.6083L108.362 19.1603C108.082 19.4963 107.73 19.7523 107.306 19.9283C106.89 20.1043 106.43 20.1923 105.926 20.1923C105.278 20.1923 104.702 20.0563 104.198 19.7843C103.702 19.5043 103.314 19.1203 103.034 18.6323C102.754 18.1443 102.614 17.5923 102.614 16.9763C102.614 16.3603 102.746 15.8083 103.01 15.3203C103.282 14.8323 103.65 14.4523 104.114 14.1803C104.586 13.9083 105.114 13.7723 105.698 13.7723C106.282 13.7723 106.806 13.9083 107.27 14.1803C107.734 14.4523 108.098 14.8323 108.362 15.3203C108.626 15.8003 108.758 16.3523 108.758 16.9763L108.746 17.2403ZM105.698 14.5043C105.09 14.5043 104.578 14.7003 104.162 15.0923C103.754 15.4763 103.522 15.9803 103.466 16.6043H107.942C107.886 15.9803 107.65 15.4763 107.234 15.0923C106.826 14.7003 106.314 14.5043 105.698 14.5043ZM111.308 15.0563C111.508 14.6323 111.804 14.3123 112.196 14.0963C112.596 13.8803 113.088 13.7723 113.672 13.7723V14.6003L113.468 14.5883C112.804 14.5883 112.284 14.7923 111.908 15.2003C111.532 15.6083 111.344 16.1803 111.344 16.9163V20.1323H110.492V13.8203H111.308V15.0563ZM116.03 15.0563C116.23 14.6323 116.526 14.3123 116.918 14.0963C117.318 13.8803 117.81 13.7723 118.394 13.7723V14.6003L118.19 14.5883C117.526 14.5883 117.006 14.7923 116.63 15.2003C116.254 15.6083 116.066 16.1803 116.066 16.9163V20.1323H115.214V13.8203H116.03V15.0563ZM122.133 13.7723C122.957 13.7723 123.589 13.9803 124.029 14.3963C124.469 14.8043 124.689 15.4123 124.689 16.2203V20.1323H123.873V19.1483C123.681 19.4763 123.397 19.7323 123.021 19.9163C122.653 20.1003 122.213 20.1923 121.701 20.1923C120.997 20.1923 120.437 20.0243 120.021 19.6883C119.605 19.3523 119.397 18.9083 119.397 18.3563C119.397 17.8203 119.589 17.3883 119.973 17.0603C120.365 16.7323 120.985 16.5683 121.833 16.5683H123.837V16.1843C123.837 15.6403 123.685 15.2283 123.381 14.9483C123.077 14.6603 122.633 14.5163 122.049 14.5163C121.649 14.5163 121.265 14.5843 120.897 14.7203C120.529 14.8483 120.213 15.0283 119.949 15.2603L119.565 14.6243C119.885 14.3523 120.269 14.1443 120.717 14.0003C121.165 13.8483 121.637 13.7723 122.133 13.7723ZM121.833 19.5203C122.313 19.5203 122.725 19.4123 123.069 19.1963C123.413 18.9723 123.669 18.6523 123.837 18.2363V17.2043H121.857C120.777 17.2043 120.237 17.5803 120.237 18.3323C120.237 18.7003 120.377 18.9923 120.657 19.2083C120.937 19.4163 121.329 19.5203 121.833 19.5203ZM130.327 19.7483C130.167 19.8923 129.967 20.0043 129.727 20.0843C129.495 20.1563 129.251 20.1923 128.995 20.1923C128.403 20.1923 127.947 20.0323 127.627 19.7123C127.307 19.3923 127.147 18.9403 127.147 18.3563V14.5403H126.019V13.8203H127.147V12.4403H127.999V13.8203H129.919V14.5403H127.999V18.3083C127.999 18.6843 128.091 18.9723 128.275 19.1723C128.467 19.3643 128.739 19.4603 129.091 19.4603C129.267 19.4603 129.435 19.4323 129.595 19.3763C129.763 19.3203 129.907 19.2403 130.027 19.1363L130.327 19.7483Z" fill="#333333"/>
<path d="M23.8739 89.2004C24.3539 89.3524 24.7299 89.6084 25.0019 89.9684C25.2739 90.3204 25.4099 90.7564 25.4099 91.2764C25.4099 92.0124 25.1219 92.5804 24.5459 92.9804C23.9779 93.3724 23.1459 93.5684 22.0499 93.5684H17.7059V85.1684H21.8099C22.8339 85.1684 23.6179 85.3644 24.1619 85.7564C24.7139 86.1484 24.9899 86.6804 24.9899 87.3524C24.9899 87.7604 24.8899 88.1244 24.6899 88.4444C24.4979 88.7644 24.2259 89.0164 23.8739 89.2004ZM19.6379 86.6324V88.6124H21.5699C22.0499 88.6124 22.4139 88.5284 22.6619 88.3604C22.9099 88.1924 23.0339 87.9444 23.0339 87.6164C23.0339 87.2884 22.9099 87.0444 22.6619 86.8844C22.4139 86.7164 22.0499 86.6324 21.5699 86.6324H19.6379ZM21.9059 92.1044C22.4179 92.1044 22.8019 92.0204 23.0579 91.8524C23.3219 91.6844 23.4539 91.4244 23.4539 91.0724C23.4539 90.3764 22.9379 90.0284 21.9059 90.0284H19.6379V92.1044H21.9059ZM29.8217 93.6644C29.1417 93.6644 28.5297 93.5244 27.9857 93.2444C27.4497 92.9564 27.0297 92.5604 26.7257 92.0564C26.4217 91.5524 26.2697 90.9804 26.2697 90.3404C26.2697 89.7004 26.4217 89.1284 26.7257 88.6244C27.0297 88.1204 27.4497 87.7284 27.9857 87.4484C28.5297 87.1604 29.1417 87.0164 29.8217 87.0164C30.5017 87.0164 31.1097 87.1604 31.6457 87.4484C32.1817 87.7284 32.6017 88.1204 32.9057 88.6244C33.2097 89.1284 33.3617 89.7004 33.3617 90.3404C33.3617 90.9804 33.2097 91.5524 32.9057 92.0564C32.6017 92.5604 32.1817 92.9564 31.6457 93.2444C31.1097 93.5244 30.5017 93.6644 29.8217 93.6644ZM29.8217 92.1284C30.3017 92.1284 30.6937 91.9684 30.9977 91.6484C31.3097 91.3204 31.4657 90.8844 31.4657 90.3404C31.4657 89.7964 31.3097 89.3644 30.9977 89.0444C30.6937 88.7164 30.3017 88.5524 29.8217 88.5524C29.3417 88.5524 28.9457 88.7164 28.6337 89.0444C28.3217 89.3644 28.1657 89.7964 28.1657 90.3404C28.1657 90.8844 28.3217 91.3204 28.6337 91.6484C28.9457 91.9684 29.3417 92.1284 29.8217 92.1284ZM34.613 84.6644H36.485V93.5684H34.613V84.6644ZM44.7984 84.6644V93.5684H43.0104V92.8244C42.5464 93.3844 41.8744 93.6644 40.9944 93.6644C40.3864 93.6644 39.8344 93.5284 39.3384 93.2564C38.8504 92.9844 38.4664 92.5964 38.1864 92.0924C37.9064 91.5884 37.7664 91.0044 37.7664 90.3404C37.7664 89.6764 37.9064 89.0924 38.1864 88.5884C38.4664 88.0844 38.8504 87.6964 39.3384 87.4244C39.8344 87.1524 40.3864 87.0164 40.9944 87.0164C41.8184 87.0164 42.4624 87.2764 42.9264 87.7964V84.6644H44.7984ZM41.3184 92.1284C41.7904 92.1284 42.1824 91.9684 42.4944 91.6484C42.8064 91.3204 42.9624 90.8844 42.9624 90.3404C42.9624 89.7964 42.8064 89.3644 42.4944 89.0444C42.1824 88.7164 41.7904 88.5524 41.3184 88.5524C40.8384 88.5524 40.4424 88.7164 40.1304 89.0444C39.8184 89.3644 39.6624 89.7964 39.6624 90.3404C39.6624 90.8844 39.8184 91.3204 40.1304 91.6484C40.4424 91.9684 40.8384 92.1284 41.3184 92.1284Z" fill="#333333"/>
<path d="M30.3099 57.5039H22.1849L20.6349 61.2539H16.4849L24.2849 43.7539H28.2849L36.1099 61.2539H31.8599L30.3099 57.5039ZM29.0349 54.4289L26.2599 47.7289L23.4849 54.4289H29.0349ZM50.1556 47.6039C52.239 47.6039 53.839 48.1039 54.9556 49.1039C56.0723 50.0872 56.6306 51.5789 56.6306 53.5789V61.2539H52.9806V59.5789C52.2473 60.8289 50.8806 61.4539 48.8806 61.4539C47.8473 61.4539 46.9473 61.2789 46.1806 60.9289C45.4306 60.5789 44.8556 60.0956 44.4556 59.4789C44.0556 58.8622 43.8556 58.1622 43.8556 57.3789C43.8556 56.1289 44.3223 55.1456 45.2556 54.4289C46.2056 53.7122 47.664 53.3539 49.6306 53.3539H52.7306C52.7306 52.5039 52.4723 51.8539 51.9556 51.4039C51.439 50.9372 50.664 50.7039 49.6306 50.7039C48.914 50.7039 48.2056 50.8206 47.5056 51.0539C46.8223 51.2706 46.239 51.5706 45.7556 51.9539L44.3556 49.2289C45.089 48.7122 45.964 48.3122 46.9806 48.0289C48.014 47.7456 49.0723 47.6039 50.1556 47.6039ZM49.8556 58.8289C50.5223 58.8289 51.114 58.6789 51.6306 58.3789C52.1473 58.0622 52.514 57.6039 52.7306 57.0039V55.6289H50.0556C48.4556 55.6289 47.6556 56.1539 47.6556 57.2039C47.6556 57.7039 47.8473 58.1039 48.2306 58.4039C48.6306 58.6872 49.1723 58.8289 49.8556 58.8289Z" fill="black"/>
</svg>
