<svg width="342" height="108" viewBox="0 0 342 108" fill="none" xmlns="http://www.w3.org/2000/svg">
<rect x="181.738" y="0.969238" width="159.75" height="106.75" fill="white" stroke="#3E4146" stroke-width="0.25"/>
<path d="M298.821 19.4629H302.541V20.4409H297.657V11.8429H298.821V19.4629ZM308.117 20.4409H307.643C307.539 20.4409 307.455 20.4249 307.391 20.3929C307.327 20.3609 307.285 20.2929 307.265 20.1889L307.145 19.6249C306.985 19.7689 306.829 19.8989 306.677 20.0149C306.525 20.1269 306.365 20.2229 306.197 20.3029C306.029 20.3789 305.849 20.4369 305.657 20.4769C305.469 20.5169 305.259 20.5369 305.027 20.5369C304.791 20.5369 304.569 20.5049 304.361 20.4409C304.157 20.3729 303.979 20.2729 303.827 20.1409C303.675 20.0089 303.553 19.8429 303.461 19.6429C303.373 19.4389 303.329 19.1989 303.329 18.9229C303.329 18.6829 303.395 18.4529 303.527 18.2329C303.659 18.0089 303.871 17.8109 304.163 17.6389C304.459 17.4669 304.845 17.3269 305.321 17.2189C305.797 17.1069 306.379 17.0429 307.067 17.0269V16.5529C307.067 16.0809 306.965 15.7249 306.761 15.4849C306.561 15.2409 306.263 15.1189 305.867 15.1189C305.607 15.1189 305.387 15.1529 305.207 15.2209C305.031 15.2849 304.877 15.3589 304.745 15.4429C304.617 15.5229 304.505 15.5969 304.409 15.6649C304.317 15.7289 304.225 15.7609 304.133 15.7609C304.061 15.7609 303.997 15.7429 303.941 15.7069C303.889 15.6669 303.847 15.6189 303.815 15.5629L303.623 15.2209C303.959 14.8969 304.321 14.6549 304.709 14.4949C305.097 14.3349 305.527 14.2549 305.999 14.2549C306.339 14.2549 306.641 14.3109 306.905 14.4229C307.169 14.5349 307.391 14.6909 307.571 14.8909C307.751 15.0909 307.887 15.3329 307.979 15.6169C308.071 15.9009 308.117 16.2129 308.117 16.5529V20.4409ZM305.345 19.7869C305.533 19.7869 305.705 19.7689 305.861 19.7329C306.017 19.6929 306.163 19.6389 306.299 19.5709C306.439 19.4989 306.571 19.4129 306.695 19.3129C306.823 19.2129 306.947 19.0989 307.067 18.9709V17.7049C306.575 17.7209 306.157 17.7609 305.813 17.8249C305.469 17.8849 305.189 17.9649 304.973 18.0649C304.757 18.1649 304.599 18.2829 304.499 18.4189C304.403 18.5549 304.355 18.7069 304.355 18.8749C304.355 19.0349 304.381 19.1729 304.433 19.2889C304.485 19.4049 304.555 19.5009 304.643 19.5769C304.731 19.6489 304.835 19.7029 304.955 19.7389C305.075 19.7709 305.205 19.7869 305.345 19.7869ZM311.577 20.5369C311.097 20.5369 310.727 20.4029 310.467 20.1349C310.211 19.8669 310.083 19.4809 310.083 18.9769V15.2569H309.351C309.287 15.2569 309.233 15.2389 309.189 15.2029C309.145 15.1629 309.123 15.1029 309.123 15.0229V14.5969L310.119 14.4709L310.365 12.5929C310.373 12.5329 310.399 12.4849 310.443 12.4489C310.487 12.4089 310.543 12.3889 310.611 12.3889H311.151V14.4829H312.891V15.2569H311.151V18.9049C311.151 19.1609 311.213 19.3509 311.337 19.4749C311.461 19.5989 311.621 19.6609 311.817 19.6609C311.929 19.6609 312.025 19.6469 312.105 19.6189C312.189 19.5869 312.261 19.5529 312.321 19.5169C312.381 19.4809 312.431 19.4489 312.471 19.4209C312.515 19.3889 312.553 19.3729 312.585 19.3729C312.641 19.3729 312.691 19.4069 312.735 19.4749L313.047 19.9849C312.863 20.1569 312.641 20.2929 312.381 20.3929C312.121 20.4889 311.853 20.5369 311.577 20.5369ZM316.672 14.2669C317.116 14.2669 317.516 14.3409 317.872 14.4889C318.232 14.6369 318.536 14.8469 318.784 15.1189C319.036 15.3909 319.228 15.7209 319.36 16.1089C319.496 16.4929 319.564 16.9229 319.564 17.3989C319.564 17.8789 319.496 18.3109 319.36 18.6949C319.228 19.0789 319.036 19.4069 318.784 19.6789C318.536 19.9509 318.232 20.1609 317.872 20.3089C317.516 20.4529 317.116 20.5249 316.672 20.5249C316.228 20.5249 315.826 20.4529 315.466 20.3089C315.11 20.1609 314.806 19.9509 314.554 19.6789C314.302 19.4069 314.108 19.0789 313.972 18.6949C313.836 18.3109 313.768 17.8789 313.768 17.3989C313.768 16.9229 313.836 16.4929 313.972 16.1089C314.108 15.7209 314.302 15.3909 314.554 15.1189C314.806 14.8469 315.11 14.6369 315.466 14.4889C315.826 14.3409 316.228 14.2669 316.672 14.2669ZM316.672 19.6909C317.272 19.6909 317.72 19.4909 318.016 19.0909C318.312 18.6869 318.46 18.1249 318.46 17.4049C318.46 16.6809 318.312 16.1169 318.016 15.7129C317.72 15.3089 317.272 15.1069 316.672 15.1069C316.368 15.1069 316.104 15.1589 315.88 15.2629C315.656 15.3669 315.468 15.5169 315.316 15.7129C315.168 15.9089 315.056 16.1509 314.98 16.4389C314.908 16.7229 314.872 17.0449 314.872 17.4049C314.872 17.7649 314.908 18.0869 314.98 18.3709C315.056 18.6549 315.168 18.8949 315.316 19.0909C315.468 19.2829 315.656 19.4309 315.88 19.5349C316.104 19.6389 316.368 19.6909 316.672 19.6909Z" fill="#333333"/>
<path d="M201.435 90.289V93.877H200.277V85.279H202.707C203.251 85.279 203.721 85.335 204.117 85.447C204.513 85.555 204.839 85.713 205.095 85.921C205.355 86.129 205.547 86.381 205.671 86.677C205.795 86.969 205.857 87.297 205.857 87.661C205.857 87.965 205.809 88.249 205.713 88.513C205.617 88.777 205.477 89.015 205.293 89.227C205.113 89.435 204.891 89.613 204.627 89.761C204.367 89.909 204.071 90.021 203.739 90.097C203.883 90.181 204.011 90.303 204.123 90.463L206.631 93.877H205.599C205.387 93.877 205.231 93.795 205.131 93.631L202.899 90.559C202.831 90.463 202.757 90.395 202.677 90.355C202.597 90.311 202.477 90.289 202.317 90.289H201.435ZM201.435 89.443H202.653C202.993 89.443 203.291 89.403 203.547 89.323C203.807 89.239 204.023 89.123 204.195 88.975C204.371 88.823 204.503 88.643 204.591 88.435C204.679 88.227 204.723 87.997 204.723 87.745C204.723 87.233 204.553 86.847 204.213 86.587C203.877 86.327 203.375 86.197 202.707 86.197H201.435V89.443ZM210.118 87.703C210.482 87.703 210.818 87.765 211.126 87.889C211.434 88.009 211.7 88.185 211.924 88.417C212.148 88.645 212.322 88.929 212.446 89.269C212.574 89.605 212.638 89.989 212.638 90.421C212.638 90.589 212.62 90.701 212.584 90.757C212.548 90.813 212.48 90.841 212.38 90.841H208.336C208.344 91.225 208.396 91.559 208.492 91.843C208.588 92.127 208.72 92.365 208.888 92.557C209.056 92.745 209.256 92.887 209.488 92.983C209.72 93.075 209.98 93.121 210.268 93.121C210.536 93.121 210.766 93.091 210.958 93.031C211.154 92.967 211.322 92.899 211.462 92.827C211.602 92.755 211.718 92.689 211.81 92.629C211.906 92.565 211.988 92.533 212.056 92.533C212.144 92.533 212.212 92.567 212.26 92.635L212.56 93.025C212.428 93.185 212.27 93.325 212.086 93.445C211.902 93.561 211.704 93.657 211.492 93.733C211.284 93.809 211.068 93.865 210.844 93.901C210.62 93.941 210.398 93.961 210.178 93.961C209.758 93.961 209.37 93.891 209.014 93.751C208.662 93.607 208.356 93.399 208.096 93.127C207.84 92.851 207.64 92.511 207.496 92.107C207.352 91.703 207.28 91.239 207.28 90.715C207.28 90.291 207.344 89.895 207.472 89.527C207.604 89.159 207.792 88.841 208.036 88.573C208.28 88.301 208.578 88.089 208.93 87.937C209.282 87.781 209.678 87.703 210.118 87.703ZM210.142 88.489C209.626 88.489 209.22 88.639 208.924 88.939C208.628 89.235 208.444 89.647 208.372 90.175H211.678C211.678 89.927 211.644 89.701 211.576 89.497C211.508 89.289 211.408 89.111 211.276 88.963C211.144 88.811 210.982 88.695 210.79 88.615C210.602 88.531 210.386 88.489 210.142 88.489ZM216.051 87.697C216.315 87.697 216.561 87.727 216.789 87.787C217.021 87.843 217.231 87.927 217.419 88.039H219.069V88.435C219.069 88.567 218.985 88.651 218.817 88.687L218.127 88.783C218.263 89.043 218.331 89.333 218.331 89.653C218.331 89.949 218.273 90.219 218.157 90.463C218.045 90.703 217.887 90.909 217.683 91.081C217.483 91.253 217.243 91.385 216.963 91.477C216.687 91.569 216.383 91.615 216.051 91.615C215.767 91.615 215.499 91.581 215.247 91.513C215.119 91.593 215.021 91.679 214.953 91.771C214.889 91.863 214.857 91.953 214.857 92.041C214.857 92.185 214.915 92.295 215.031 92.371C215.147 92.443 215.301 92.495 215.493 92.527C215.685 92.559 215.903 92.579 216.147 92.587C216.391 92.595 216.639 92.609 216.891 92.629C217.147 92.645 217.397 92.675 217.641 92.719C217.885 92.763 218.103 92.835 218.295 92.935C218.487 93.035 218.641 93.173 218.757 93.349C218.873 93.525 218.931 93.753 218.931 94.033C218.931 94.293 218.865 94.545 218.733 94.789C218.605 95.033 218.419 95.249 218.175 95.437C217.931 95.629 217.633 95.781 217.281 95.893C216.929 96.009 216.531 96.067 216.087 96.067C215.643 96.067 215.253 96.023 214.917 95.935C214.585 95.847 214.309 95.729 214.089 95.581C213.869 95.433 213.703 95.261 213.591 95.065C213.483 94.873 213.429 94.671 213.429 94.459C213.429 94.159 213.523 93.905 213.711 93.697C213.903 93.485 214.165 93.317 214.497 93.193C214.325 93.113 214.187 93.007 214.083 92.875C213.983 92.739 213.933 92.559 213.933 92.335C213.933 92.247 213.949 92.157 213.981 92.065C214.013 91.969 214.061 91.875 214.125 91.783C214.193 91.691 214.275 91.603 214.371 91.519C214.467 91.435 214.579 91.361 214.707 91.297C214.407 91.129 214.171 90.907 213.999 90.631C213.831 90.351 213.747 90.025 213.747 89.653C213.747 89.357 213.803 89.089 213.915 88.849C214.031 88.605 214.191 88.399 214.395 88.231C214.599 88.059 214.841 87.927 215.121 87.835C215.405 87.743 215.715 87.697 216.051 87.697ZM217.947 94.207C217.947 94.055 217.905 93.933 217.821 93.841C217.737 93.749 217.623 93.679 217.479 93.631C217.335 93.579 217.169 93.541 216.981 93.517C216.793 93.493 216.595 93.477 216.387 93.469C216.179 93.457 215.967 93.445 215.751 93.433C215.535 93.421 215.329 93.399 215.133 93.367C214.905 93.475 214.719 93.607 214.575 93.763C214.435 93.919 214.365 94.105 214.365 94.321C214.365 94.457 214.399 94.583 214.467 94.699C214.539 94.819 214.647 94.921 214.791 95.005C214.935 95.093 215.115 95.161 215.331 95.209C215.551 95.261 215.809 95.287 216.105 95.287C216.393 95.287 216.651 95.261 216.879 95.209C217.107 95.157 217.299 95.083 217.455 94.987C217.615 94.891 217.737 94.777 217.821 94.645C217.905 94.513 217.947 94.367 217.947 94.207ZM216.051 90.907C216.267 90.907 216.457 90.877 216.621 90.817C216.789 90.757 216.929 90.673 217.041 90.565C217.153 90.457 217.237 90.329 217.293 90.181C217.349 90.029 217.377 89.863 217.377 89.683C217.377 89.311 217.263 89.015 217.035 88.795C216.811 88.575 216.483 88.465 216.051 88.465C215.623 88.465 215.295 88.575 215.067 88.795C214.843 89.015 214.731 89.311 214.731 89.683C214.731 89.863 214.759 90.029 214.815 90.181C214.875 90.329 214.961 90.457 215.073 90.565C215.185 90.673 215.323 90.757 215.487 90.817C215.651 90.877 215.839 90.907 216.051 90.907ZM221.058 87.799V91.675C221.058 92.135 221.164 92.491 221.376 92.743C221.588 92.995 221.908 93.121 222.336 93.121C222.648 93.121 222.942 93.047 223.218 92.899C223.494 92.751 223.748 92.545 223.98 92.281V87.799H225.048V93.877H224.412C224.26 93.877 224.164 93.803 224.124 93.655L224.04 93.001C223.776 93.293 223.48 93.529 223.152 93.709C222.824 93.885 222.448 93.973 222.024 93.973C221.692 93.973 221.398 93.919 221.142 93.811C220.89 93.699 220.678 93.543 220.506 93.343C220.334 93.143 220.204 92.901 220.116 92.617C220.032 92.333 219.99 92.019 219.99 91.675V87.799H221.058ZM227.99 85.039V93.877H226.922V85.039H227.99ZM234.336 93.877H233.862C233.758 93.877 233.674 93.861 233.61 93.829C233.546 93.797 233.504 93.729 233.484 93.625L233.364 93.061C233.204 93.205 233.048 93.335 232.896 93.451C232.744 93.563 232.584 93.659 232.416 93.739C232.248 93.815 232.068 93.873 231.876 93.913C231.688 93.953 231.478 93.973 231.246 93.973C231.01 93.973 230.788 93.941 230.58 93.877C230.376 93.809 230.198 93.709 230.046 93.577C229.894 93.445 229.772 93.279 229.68 93.079C229.592 92.875 229.548 92.635 229.548 92.359C229.548 92.119 229.614 91.889 229.746 91.669C229.878 91.445 230.09 91.247 230.382 91.075C230.678 90.903 231.064 90.763 231.54 90.655C232.016 90.543 232.598 90.479 233.286 90.463V89.989C233.286 89.517 233.184 89.161 232.98 88.921C232.78 88.677 232.482 88.555 232.086 88.555C231.826 88.555 231.606 88.589 231.426 88.657C231.25 88.721 231.096 88.795 230.964 88.879C230.836 88.959 230.724 89.033 230.628 89.101C230.536 89.165 230.444 89.197 230.352 89.197C230.28 89.197 230.216 89.179 230.16 89.143C230.108 89.103 230.066 89.055 230.034 88.999L229.842 88.657C230.178 88.333 230.54 88.091 230.928 87.931C231.316 87.771 231.746 87.691 232.218 87.691C232.558 87.691 232.86 87.747 233.124 87.859C233.388 87.971 233.61 88.127 233.79 88.327C233.97 88.527 234.106 88.769 234.198 89.053C234.29 89.337 234.336 89.649 234.336 89.989V93.877ZM231.564 93.223C231.752 93.223 231.924 93.205 232.08 93.169C232.236 93.129 232.382 93.075 232.518 93.007C232.658 92.935 232.79 92.849 232.914 92.749C233.042 92.649 233.166 92.535 233.286 92.407V91.141C232.794 91.157 232.376 91.197 232.032 91.261C231.688 91.321 231.408 91.401 231.192 91.501C230.976 91.601 230.818 91.719 230.718 91.855C230.622 91.991 230.574 92.143 230.574 92.311C230.574 92.471 230.6 92.609 230.652 92.725C230.704 92.841 230.774 92.937 230.862 93.013C230.95 93.085 231.054 93.139 231.174 93.175C231.294 93.207 231.424 93.223 231.564 93.223ZM235.954 93.877V87.799H236.566C236.682 87.799 236.762 87.821 236.806 87.865C236.85 87.909 236.88 87.985 236.896 88.093L236.968 89.041C237.176 88.617 237.432 88.287 237.736 88.051C238.044 87.811 238.404 87.691 238.816 87.691C238.984 87.691 239.136 87.711 239.272 87.751C239.408 87.787 239.534 87.839 239.65 87.907L239.512 88.705C239.484 88.805 239.422 88.855 239.326 88.855C239.27 88.855 239.184 88.837 239.068 88.801C238.952 88.761 238.79 88.741 238.582 88.741C238.21 88.741 237.898 88.849 237.646 89.065C237.398 89.281 237.19 89.595 237.022 90.007V93.877H235.954Z" fill="#333333"/>
<path d="M216.026 62.562H214.151C213.934 62.562 213.759 62.5078 213.626 62.3995C213.492 62.2912 213.392 62.1537 213.326 61.987L211.651 57.662H203.613L201.938 61.987C201.88 62.137 201.78 62.2703 201.638 62.387C201.496 62.5037 201.321 62.562 201.113 62.562H199.238L206.401 44.6495H208.863L216.026 62.562ZM204.288 55.912H210.976L208.163 48.6245C207.98 48.1745 207.801 47.612 207.626 46.937C207.534 47.2787 207.442 47.5953 207.351 47.887C207.267 48.1703 207.184 48.4203 207.101 48.637L204.288 55.912ZM232.064 62.562H231.077C230.86 62.562 230.685 62.5287 230.552 62.462C230.418 62.3953 230.331 62.2537 230.289 62.037L230.039 60.862C229.706 61.162 229.381 61.4328 229.064 61.6745C228.748 61.9078 228.414 62.1078 228.064 62.2745C227.714 62.4328 227.339 62.5537 226.939 62.637C226.548 62.7203 226.11 62.762 225.627 62.762C225.135 62.762 224.673 62.6953 224.239 62.562C223.814 62.4203 223.443 62.212 223.127 61.937C222.81 61.662 222.556 61.3162 222.364 60.8995C222.181 60.4745 222.089 59.9745 222.089 59.3995C222.089 58.8995 222.227 58.4203 222.502 57.962C222.777 57.4953 223.218 57.0828 223.827 56.7245C224.443 56.3662 225.248 56.0745 226.239 55.8495C227.231 55.6162 228.443 55.4828 229.877 55.4495V54.462C229.877 53.4787 229.664 52.737 229.239 52.237C228.823 51.7287 228.202 51.4745 227.377 51.4745C226.835 51.4745 226.377 51.5453 226.002 51.687C225.635 51.8203 225.314 51.9745 225.039 52.1495C224.773 52.3162 224.539 52.4703 224.339 52.612C224.148 52.7453 223.956 52.812 223.764 52.812C223.614 52.812 223.481 52.7745 223.364 52.6995C223.256 52.6162 223.168 52.5162 223.102 52.3995L222.702 51.687C223.402 51.012 224.156 50.5078 224.964 50.1745C225.773 49.8412 226.668 49.6745 227.652 49.6745C228.36 49.6745 228.989 49.7912 229.539 50.0245C230.089 50.2578 230.552 50.5828 230.927 50.9995C231.302 51.4162 231.585 51.9203 231.777 52.512C231.968 53.1037 232.064 53.7537 232.064 54.462V62.562ZM226.289 61.1995C226.681 61.1995 227.039 61.162 227.364 61.087C227.689 61.0037 227.993 60.8912 228.277 60.7495C228.568 60.5995 228.843 60.4203 229.102 60.212C229.368 60.0037 229.627 59.7662 229.877 59.4995V56.862C228.852 56.8953 227.981 56.9787 227.264 57.112C226.548 57.237 225.964 57.4037 225.514 57.612C225.064 57.8203 224.735 58.0662 224.527 58.3495C224.327 58.6328 224.227 58.9495 224.227 59.2995C224.227 59.6328 224.281 59.9203 224.389 60.162C224.498 60.4037 224.643 60.6037 224.827 60.762C225.01 60.912 225.227 61.0245 225.477 61.0995C225.727 61.1662 225.998 61.1995 226.289 61.1995Z" fill="black"/>
<rect x="0.334946" y="0.969238" width="159.75" height="106.75" fill="white" stroke="#3E4146" stroke-width="0.25"/>
<path d="M117.418 29.4629H121.138V30.4409H116.254V21.8429H117.418V29.4629ZM126.714 30.4409H126.24C126.136 30.4409 126.052 30.4249 125.988 30.3929C125.924 30.3609 125.882 30.2929 125.862 30.1889L125.742 29.6249C125.582 29.7689 125.426 29.8989 125.274 30.0149C125.122 30.1269 124.962 30.2229 124.794 30.3029C124.626 30.3789 124.446 30.4369 124.254 30.4769C124.066 30.5169 123.856 30.5369 123.624 30.5369C123.388 30.5369 123.166 30.5049 122.958 30.4409C122.754 30.3729 122.576 30.2729 122.424 30.1409C122.272 30.0089 122.15 29.8429 122.058 29.6429C121.97 29.4389 121.926 29.1989 121.926 28.9229C121.926 28.6829 121.992 28.4529 122.124 28.2329C122.256 28.0089 122.468 27.8109 122.76 27.6389C123.056 27.4669 123.442 27.3269 123.918 27.2189C124.394 27.1069 124.976 27.0429 125.664 27.0269V26.5529C125.664 26.0809 125.562 25.7249 125.358 25.4849C125.158 25.2409 124.86 25.1189 124.464 25.1189C124.204 25.1189 123.984 25.1529 123.804 25.2209C123.628 25.2849 123.474 25.3589 123.342 25.4429C123.214 25.5229 123.102 25.5969 123.006 25.6649C122.914 25.7289 122.822 25.7609 122.73 25.7609C122.658 25.7609 122.594 25.7429 122.538 25.7069C122.486 25.6669 122.444 25.6189 122.412 25.5629L122.22 25.2209C122.556 24.8969 122.918 24.6549 123.306 24.4949C123.694 24.3349 124.124 24.2549 124.596 24.2549C124.936 24.2549 125.238 24.3109 125.502 24.4229C125.766 24.5349 125.988 24.6909 126.168 24.8909C126.348 25.0909 126.484 25.3329 126.576 25.6169C126.668 25.9009 126.714 26.2129 126.714 26.5529V30.4409ZM123.942 29.7869C124.13 29.7869 124.302 29.7689 124.458 29.7329C124.614 29.6929 124.76 29.6389 124.896 29.5709C125.036 29.4989 125.168 29.4129 125.292 29.3129C125.42 29.2129 125.544 29.0989 125.664 28.9709V27.7049C125.172 27.7209 124.754 27.7609 124.41 27.8249C124.066 27.8849 123.786 27.9649 123.57 28.0649C123.354 28.1649 123.196 28.2829 123.096 28.4189C123 28.5549 122.952 28.7069 122.952 28.8749C122.952 29.0349 122.978 29.1729 123.03 29.2889C123.082 29.4049 123.152 29.5009 123.24 29.5769C123.328 29.6489 123.432 29.7029 123.552 29.7389C123.672 29.7709 123.802 29.7869 123.942 29.7869ZM130.174 30.5369C129.694 30.5369 129.324 30.4029 129.064 30.1349C128.808 29.8669 128.68 29.4809 128.68 28.9769V25.2569H127.948C127.884 25.2569 127.83 25.2389 127.786 25.2029C127.742 25.1629 127.72 25.1029 127.72 25.0229V24.5969L128.716 24.4709L128.962 22.5929C128.97 22.5329 128.996 22.4849 129.04 22.4489C129.084 22.4089 129.14 22.3889 129.208 22.3889H129.748V24.4829H131.488V25.2569H129.748V28.9049C129.748 29.1609 129.81 29.3509 129.934 29.4749C130.058 29.5989 130.218 29.6609 130.414 29.6609C130.526 29.6609 130.622 29.6469 130.702 29.6189C130.786 29.5869 130.858 29.5529 130.918 29.5169C130.978 29.4809 131.028 29.4489 131.068 29.4209C131.112 29.3889 131.15 29.3729 131.182 29.3729C131.238 29.3729 131.288 29.4069 131.332 29.4749L131.644 29.9849C131.46 30.1569 131.238 30.2929 130.978 30.3929C130.718 30.4889 130.45 30.5369 130.174 30.5369ZM135.269 24.2669C135.713 24.2669 136.113 24.3409 136.469 24.4889C136.829 24.6369 137.133 24.8469 137.381 25.1189C137.633 25.3909 137.825 25.7209 137.957 26.1089C138.093 26.4929 138.161 26.9229 138.161 27.3989C138.161 27.8789 138.093 28.3109 137.957 28.6949C137.825 29.0789 137.633 29.4069 137.381 29.6789C137.133 29.9509 136.829 30.1609 136.469 30.3089C136.113 30.4529 135.713 30.5249 135.269 30.5249C134.825 30.5249 134.423 30.4529 134.063 30.3089C133.707 30.1609 133.403 29.9509 133.151 29.6789C132.899 29.4069 132.705 29.0789 132.569 28.6949C132.433 28.3109 132.365 27.8789 132.365 27.3989C132.365 26.9229 132.433 26.4929 132.569 26.1089C132.705 25.7209 132.899 25.3909 133.151 25.1189C133.403 24.8469 133.707 24.6369 134.063 24.4889C134.423 24.3409 134.825 24.2669 135.269 24.2669ZM135.269 29.6909C135.869 29.6909 136.317 29.4909 136.613 29.0909C136.909 28.6869 137.057 28.1249 137.057 27.4049C137.057 26.6809 136.909 26.1169 136.613 25.7129C136.317 25.3089 135.869 25.1069 135.269 25.1069C134.965 25.1069 134.701 25.1589 134.477 25.2629C134.253 25.3669 134.065 25.5169 133.913 25.7129C133.765 25.9089 133.653 26.1509 133.577 26.4389C133.505 26.7229 133.469 27.0449 133.469 27.4049C133.469 27.7649 133.505 28.0869 133.577 28.3709C133.653 28.6549 133.765 28.8949 133.913 29.0909C134.065 29.2829 134.253 29.4309 134.477 29.5349C134.701 29.6389 134.965 29.6909 135.269 29.6909Z" fill="#333333"/>
<path d="M18.5859 95.877V87.201H21.5799C22.1479 87.201 22.6319 87.255 23.0319 87.363C23.4359 87.471 23.7659 87.625 24.0219 87.825C24.2819 88.025 24.4719 88.267 24.5919 88.551C24.7119 88.835 24.7719 89.155 24.7719 89.511C24.7719 89.715 24.7419 89.911 24.6819 90.099C24.6219 90.283 24.5279 90.457 24.3999 90.621C24.2759 90.781 24.1159 90.927 23.9199 91.059C23.7279 91.191 23.4979 91.303 23.2299 91.395C24.4219 91.663 25.0179 92.307 25.0179 93.327C25.0179 93.695 24.9479 94.035 24.8079 94.347C24.6679 94.659 24.4639 94.929 24.1959 95.157C23.9279 95.381 23.5979 95.557 23.2059 95.685C22.8139 95.813 22.3659 95.877 21.8619 95.877H18.5859ZM20.1999 92.073V94.617H21.8379C22.1379 94.617 22.3879 94.581 22.5879 94.509C22.7919 94.437 22.9539 94.341 23.0739 94.221C23.1979 94.101 23.2859 93.961 23.3379 93.801C23.3939 93.641 23.4219 93.471 23.4219 93.291C23.4219 93.103 23.3919 92.935 23.3319 92.787C23.2719 92.635 23.1779 92.507 23.0499 92.403C22.9219 92.295 22.7579 92.213 22.5579 92.157C22.3579 92.101 22.1159 92.073 21.8319 92.073H20.1999ZM20.1999 90.957H21.4899C22.0379 90.957 22.4539 90.857 22.7379 90.657C23.0219 90.457 23.1639 90.139 23.1639 89.703C23.1639 89.251 23.0359 88.929 22.7799 88.737C22.5239 88.545 22.1239 88.449 21.5799 88.449H20.1999V90.957ZM28.9464 89.625C29.4064 89.625 29.8224 89.699 30.1944 89.847C30.5704 89.995 30.8904 90.205 31.1544 90.477C31.4184 90.749 31.6224 91.081 31.7664 91.473C31.9104 91.865 31.9824 92.303 31.9824 92.787C31.9824 93.275 31.9104 93.715 31.7664 94.107C31.6224 94.499 31.4184 94.833 31.1544 95.109C30.8904 95.385 30.5704 95.597 30.1944 95.745C29.8224 95.893 29.4064 95.967 28.9464 95.967C28.4864 95.967 28.0684 95.893 27.6924 95.745C27.3164 95.597 26.9944 95.385 26.7264 95.109C26.4624 94.833 26.2564 94.499 26.1084 94.107C25.9644 93.715 25.8924 93.275 25.8924 92.787C25.8924 92.303 25.9644 91.865 26.1084 91.473C26.2564 91.081 26.4624 90.749 26.7264 90.477C26.9944 90.205 27.3164 89.995 27.6924 89.847C28.0684 89.699 28.4864 89.625 28.9464 89.625ZM28.9464 94.827C29.4584 94.827 29.8364 94.655 30.0804 94.311C30.3284 93.967 30.4524 93.463 30.4524 92.799C30.4524 92.135 30.3284 91.629 30.0804 91.281C29.8364 90.933 29.4584 90.759 28.9464 90.759C28.4264 90.759 28.0424 90.935 27.7944 91.287C27.5464 91.635 27.4224 92.139 27.4224 92.799C27.4224 93.459 27.5464 93.963 27.7944 94.311C28.0424 94.655 28.4264 94.827 28.9464 94.827ZM34.7167 86.961V95.877H33.2347V86.961H34.7167ZM40.7285 95.877C40.5365 95.877 40.4105 95.787 40.3505 95.607L40.2305 95.013C40.1025 95.157 39.9685 95.287 39.8285 95.403C39.6885 95.519 39.5365 95.619 39.3725 95.703C39.2125 95.787 39.0385 95.851 38.8505 95.895C38.6665 95.943 38.4665 95.967 38.2505 95.967C37.9145 95.967 37.6065 95.897 37.3265 95.757C37.0465 95.617 36.8045 95.415 36.6005 95.151C36.4005 94.883 36.2445 94.553 36.1325 94.161C36.0245 93.769 35.9705 93.321 35.9705 92.817C35.9705 92.361 36.0325 91.937 36.1565 91.545C36.2805 91.153 36.4585 90.813 36.6905 90.525C36.9225 90.237 37.2005 90.013 37.5245 89.853C37.8485 89.689 38.2125 89.607 38.6165 89.607C38.9605 89.607 39.2545 89.663 39.4985 89.775C39.7425 89.883 39.9605 90.029 40.1525 90.213V86.961H41.6345V95.877H40.7285ZM38.7545 94.791C39.0625 94.791 39.3245 94.727 39.5405 94.599C39.7565 94.471 39.9605 94.289 40.1525 94.053V91.293C39.9845 91.089 39.8005 90.945 39.6005 90.861C39.4045 90.777 39.1925 90.735 38.9645 90.735C38.7405 90.735 38.5365 90.777 38.3525 90.861C38.1725 90.945 38.0185 91.073 37.8905 91.245C37.7665 91.413 37.6705 91.629 37.6025 91.893C37.5345 92.153 37.5005 92.461 37.5005 92.817C37.5005 93.177 37.5285 93.483 37.5845 93.735C37.6445 93.983 37.7285 94.187 37.8365 94.347C37.9445 94.503 38.0765 94.617 38.2325 94.689C38.3885 94.757 38.5625 94.791 38.7545 94.791Z" fill="#333333"/>
<path d="M35.4224 64.562H32.8224C32.5308 64.562 32.2891 64.4912 32.0974 64.3495C31.9141 64.1995 31.7808 64.0162 31.6974 63.7995L30.3474 60.112H22.8599L21.5099 63.7995C21.4433 63.9912 21.3099 64.1662 21.1099 64.3245C20.9183 64.4828 20.6808 64.562 20.3974 64.562H17.7849L24.8849 46.487H28.3224L35.4224 64.562ZM23.7224 57.737H29.4849L27.2849 51.7245C27.1849 51.4578 27.0724 51.1453 26.9474 50.787C26.8308 50.4203 26.7141 50.0245 26.5974 49.5995C26.4808 50.0245 26.3641 50.4203 26.2474 50.787C26.1391 51.1537 26.0308 51.4745 25.9224 51.7495L23.7224 57.737ZM51.993 64.562H50.6055C50.3138 64.562 50.0846 64.5203 49.918 64.437C49.7513 64.3453 49.6263 64.1662 49.543 63.8995L49.268 62.987C48.943 63.2787 48.6221 63.537 48.3055 63.762C47.9971 63.9787 47.6763 64.162 47.343 64.312C47.0096 64.462 46.6555 64.5745 46.2805 64.6495C45.9055 64.7245 45.4888 64.762 45.0305 64.762C44.4888 64.762 43.9888 64.6912 43.5305 64.5495C43.0721 64.3995 42.6763 64.1787 42.343 63.887C42.018 63.5953 41.7638 63.2328 41.5805 62.7995C41.3971 62.3662 41.3055 61.862 41.3055 61.287C41.3055 60.8037 41.4305 60.3287 41.6805 59.862C41.9388 59.387 42.3638 58.962 42.9555 58.587C43.5471 58.2037 44.3346 57.887 45.318 57.637C46.3013 57.387 47.5221 57.2453 48.9805 57.212V56.462C48.9805 55.6037 48.7971 54.9703 48.4305 54.562C48.0721 54.1453 47.5471 53.937 46.8555 53.937C46.3555 53.937 45.9388 53.9953 45.6055 54.112C45.2721 54.2287 44.9805 54.362 44.7305 54.512C44.4888 54.6537 44.2638 54.7828 44.0555 54.8995C43.8471 55.0162 43.618 55.0745 43.368 55.0745C43.1596 55.0745 42.9805 55.0203 42.8305 54.912C42.6805 54.8037 42.5596 54.6703 42.468 54.512L41.9055 53.5245C43.3805 52.1745 45.1596 51.4995 47.243 51.4995C47.993 51.4995 48.6596 51.6245 49.243 51.8745C49.8346 52.1162 50.3346 52.4578 50.743 52.8995C51.1513 53.3328 51.4596 53.8537 51.668 54.462C51.8846 55.0703 51.993 55.737 51.993 56.462V64.562ZM45.993 62.637C46.3096 62.637 46.6013 62.6078 46.868 62.5495C47.1346 62.4912 47.3846 62.4037 47.618 62.287C47.8596 62.1703 48.0888 62.0287 48.3055 61.862C48.5305 61.687 48.7555 61.4828 48.9805 61.2495V59.087C48.0805 59.1287 47.3263 59.2078 46.718 59.3245C46.118 59.4328 45.6346 59.5745 45.268 59.7495C44.9013 59.9245 44.6388 60.1287 44.4805 60.362C44.3305 60.5953 44.2555 60.8495 44.2555 61.1245C44.2555 61.6662 44.4138 62.0537 44.7305 62.287C45.0555 62.5203 45.4763 62.637 45.993 62.637Z" fill="black"/>
</svg>
