<svg width="90" height="98" viewBox="0 0 90 98" fill="none" xmlns="http://www.w3.org/2000/svg">
<path fill-rule="evenodd" clip-rule="evenodd" d="M60.2853 61.6082H64.3453L89.9899 89.5775L82.3325 97.9124L56.6364 69.999V65.5798L55.2489 64.0136C49.3902 69.4955 41.7841 72.7959 33.51 72.7959C15.0602 72.7959 0.105103 56.5178 0.105103 36.4358C0.105103 16.3538 15.0602 0.0756836 33.51 0.0756836C51.9598 0.0756836 66.9149 16.3538 66.9149 36.4358C66.9149 45.4419 63.8827 53.7208 58.8463 60.0979L60.2853 61.6082ZM11.1451 36.4355C11.1451 50.3642 21.4749 61.6078 34.2715 61.6078C47.0682 61.6078 57.398 50.3642 57.398 36.4355C57.398 22.5068 47.0682 11.2631 34.2715 11.2631C21.4749 11.2631 11.1451 22.5068 11.1451 36.4355Z" fill="black" fill-opacity="0.54"/>
<path fill-rule="evenodd" clip-rule="evenodd" d="M34.2716 20.4485C30.6494 20.4485 27.7156 23.6406 27.7156 27.5818C27.7156 31.523 30.6494 34.7151 34.2716 34.7151C37.8939 34.7151 40.8277 31.523 40.8277 27.5818C40.8277 23.6406 37.8939 20.4485 34.2716 20.4485ZM37.5496 27.5728C37.5496 25.6128 36.0745 24.0092 34.2716 24.0092C32.4686 24.0092 30.9935 25.6128 30.9935 27.5728C30.9935 29.5327 32.4686 31.1363 34.2716 31.1363C36.0745 31.1363 37.5496 29.5327 37.5496 27.5728ZM44.1058 43.6313C43.778 42.3665 38.697 40.0684 34.2716 40.0684C29.8463 40.0684 24.7653 42.3665 24.4375 43.6491V45.4127H44.1058V43.6313ZM21.1594 43.6301C21.1594 38.8872 29.8954 36.4979 34.2716 36.4979C38.6477 36.4979 47.3837 38.8872 47.3837 43.6301V48.9793H21.1594V43.6301Z" fill="#01B5CC"/>
</svg>
