<svg width="104" height="104" viewBox="0 0 104 104" fill="none" xmlns="http://www.w3.org/2000/svg">
<path d="M52.6784 2.51023L52.0475 1.99561L51.4166 2.51023L16.1074 31.3116C6.16364 39.4226 1.14236 50.1167 1.14236 60.861C1.14236 71.6052 6.16364 82.2993 16.1074 90.4103C26.0421 98.514 39.0629 102.542 52.0475 102.542C65.0321 102.542 78.0529 98.514 87.9876 90.4103C97.9313 82.2993 102.953 71.6052 102.953 60.861C102.953 50.1167 97.9313 39.4226 87.9876 31.3116L52.6784 2.51023Z" fill="#696969" stroke="#01B5CC" stroke-width="1.99628"/>
<path d="M52.0475 91.4173C42.0661 91.4173 32.6461 88.2623 25.5968 82.4613C18.485 76.6603 14.6172 69.0273 14.6172 60.8855C14.6172 52.7437 18.485 45.0599 25.5968 39.3098L52.0475 17.6831V91.4173Z" fill="#01B5CC"/>
</svg>
