<svg width="100" height="99" viewBox="0 0 100 99" fill="none" xmlns="http://www.w3.org/2000/svg">
<path d="M90.8805 0.637695H9.2145C4.2238 0.637695 0.140503 5.55617 0.140503 11.5676V33.3729H9.2145V11.4583H90.8805V88.1319H9.2145V66.1627H0.140503V88.0773C0.140503 94.0887 4.2238 98.8979 9.2145 98.8979H90.8805C95.8712 98.8979 99.9545 94.0887 99.9545 88.0773V11.5676C99.9545 5.50152 95.8712 0.637695 90.8805 0.637695Z" fill="black" fill-opacity="0.54"/>
<path fill-rule="evenodd" clip-rule="evenodd" d="M45.5814 63.8416H50.6595L38.2435 31.0984H33.7242L21.3082 63.8416H26.3864L29.1077 56.2854H42.8115L45.5814 63.8416ZM30.9542 51.2429L35.9837 37.3391L41.0133 51.2429H30.9542ZM48.1326 73.1125L67.7892 52.7347L71.2152 56.2863L48.1569 80.2157L35.7895 67.3946L39.2155 63.843L48.1326 73.1125Z" fill="#01B5CC"/>
<path fill-rule="evenodd" clip-rule="evenodd" d="M87.9161 22.7262C88.7271 23.524 88.7271 24.8126 87.9161 25.6103L83.8403 29.6194L76.0423 21.9489L80.1181 17.9398C80.5066 17.5568 81.034 17.3416 81.5841 17.3416C82.1342 17.3416 82.6616 17.5568 83.0501 17.9398L87.9161 22.7262ZM73.9629 23.9925L53.1683 44.4561V52.13H60.9663L81.7609 31.6663L73.9629 23.9925ZM59.2403 48.0373H57.3272V46.1546L73.9629 29.7839L75.876 31.6666L59.2403 48.0373Z" fill="black" fill-opacity="0.54"/>
</svg>
