<svg width="100" height="99" viewBox="0 0 100 99" fill="none" xmlns="http://www.w3.org/2000/svg">
<path fill-rule="evenodd" clip-rule="evenodd" d="M90.8804 0.63623H27.3624C22.3717 0.63623 18.2884 4.65622 18.2884 9.56953V72.1026C18.2884 77.0159 22.3717 81.0359 27.3624 81.0359H90.8804C95.8711 81.0359 99.9544 77.0159 99.9544 72.1026V9.56953C99.9544 4.65622 95.8711 0.63623 90.8804 0.63623ZM9.2145 18.4967H0.140503V89.9631C0.140503 94.8764 4.2238 98.8964 9.2145 98.8964H81.8065V89.9631H9.2145V18.4967ZM27.3625 72.0941H90.8804V9.56149H27.3625V72.0941Z" fill="black" fill-opacity="0.54"/>
<path d="M68.014 42.1301L55.5373 57.9348L46.6448 47.3983L34.168 63.1583H84.075L68.014 42.1301Z" fill="#01B5CC"/>
</svg>
