<svg width="90" height="101" viewBox="0 0 90 101" fill="none" xmlns="http://www.w3.org/2000/svg">
<path d="M85.4911 0.278809H4.59471C2.0979 0.278809 0.100464 2.50862 0.100464 5.29587V95.6031C0.100464 97.8329 2.0979 100.62 4.59471 100.62H85.4911C87.4885 100.62 89.9853 97.8329 89.9853 95.6031V5.29587C89.9853 2.50862 87.4885 0.278809 85.4911 0.278809Z" fill="black" fill-opacity="0.54"/>
<path d="M79.9981 89.4712H10.0876V11.4287H79.9981V89.4712Z" fill="white"/>
<path d="M40.0493 22.5789H70.0109V33.719H40.0493V22.5789Z" fill="#01B5CC"/>
<path d="M40.0493 44.876H70.0109V56.0146H40.0493V44.876Z" fill="#01B5CC"/>
<path d="M40.0493 67.1736H70.0109V78.3132H40.0493V67.1736Z" fill="#01B5CC"/>
<path d="M20.0748 22.5789H30.062V33.719H20.0748V22.5789Z" fill="#01B5CC"/>
<path d="M20.0748 44.876H30.062V56.0146H20.0748V44.876Z" fill="#01B5CC"/>
<path d="M20.0748 67.1736H30.062V78.3132H20.0748V67.1736Z" fill="#01B5CC"/>
</svg>
